<?xml version="1.0" standalone="no"?>
<!DOCTYPE svg PUBLIC "-//W3C//DTD SVG 20010904//EN"
 "http://www.w3.org/TR/2001/REC-SVG-20010904/DTD/svg10.dtd">
<svg version="1.0" xmlns="http://www.w3.org/2000/svg"
 width="551.000000pt" height="182.000000pt" viewBox="0 0 551.000000 182.000000"
 preserveAspectRatio="xMidYMid meet">

<g transform="translate(0.000000,182.000000) scale(0.100000,-0.100000)"
fill="#000000" stroke="none">
<path d="M205 1784 c-52 -12 -97 -40 -118 -73 l-22 -36 0 -760 c0 -742 0 -761
20 -794 11 -19 33 -43 48 -55 28 -21 37 -21 573 -24 523 -2 547 -2 589 17 27
12 52 33 65 53 20 32 20 48 20 799 l0 766 -22 33 c-13 18 -36 43 -51 54 -28
21 -38 21 -555 23 -290 0 -536 -1 -547 -3z"/>
<path d="M2943 1039 c-80 -23 -110 -128 -50 -173 22 -16 48 -22 126 -26 108
-5 141 -21 141 -67 0 -42 -66 -83 -136 -83 -38 0 -116 28 -140 51 -20 18 -26
20 -39 9 -37 -31 82 -100 172 -100 58 0 122 21 153 50 25 23 30 36 30 72 0 77
-46 108 -161 108 -39 0 -85 7 -105 15 -30 12 -35 19 -32 41 2 15 15 36 31 48
40 30 138 29 190 -1 35 -21 37 -21 47 -4 25 48 -129 88 -227 60z"/>
<path d="M1850 850 c0 -182 1 -190 20 -190 17 0 19 8 22 88 l3 87 83 3 c74 3
82 5 82 22 0 18 -7 20 -85 20 l-85 0 0 60 0 60 140 0 c133 0 140 1 140 20 0
19 -7 20 -160 20 l-160 0 0 -190z"/>
<path d="M2270 850 l0 -190 25 0 25 0 0 190 0 190 -25 0 -25 0 0 -190z"/>
<path d="M2430 850 l0 -190 165 0 c158 0 165 1 165 20 0 19 -7 20 -145 20
l-145 0 0 70 0 70 70 0 c63 0 70 2 70 20 0 18 -7 20 -70 20 l-70 0 0 60 0 60
135 0 c128 0 135 1 135 20 0 19 -7 20 -155 20 l-155 0 0 -190z"/>
<path d="M3260 1020 c0 -18 7 -20 70 -20 l70 0 0 -170 c0 -163 1 -170 20 -170
19 0 20 7 20 170 l0 170 70 0 c63 0 70 2 70 20 0 19 -7 20 -160 20 -153 0
-160 -1 -160 -20z"/>
<path d="M3679 854 c-49 -102 -89 -188 -89 -190 0 -2 11 -4 23 -4 20 0 29 11
52 65 l27 65 97 0 97 0 28 -65 c24 -55 32 -65 53 -65 14 0 23 4 21 8 -1 5 -41
91 -88 190 -112 241 -102 242 -221 -4z m150 58 c17 -38 31 -72 31 -75 0 -4
-32 -7 -71 -7 -53 0 -70 3 -66 13 28 69 61 137 67 137 4 0 21 -31 39 -68z"/>
<path d="M4310 850 c0 -183 1 -190 20 -190 19 0 20 7 20 190 0 183 -1 190 -20
190 -19 0 -20 -7 -20 -190z"/>
<path d="M4470 850 c0 -183 1 -190 20 -190 18 0 20 8 22 155 l3 154 123 -154
c98 -123 129 -155 148 -155 l24 0 0 190 0 190 -25 0 -24 0 -3 -155 -3 -155
-120 154 c-90 116 -126 155 -142 155 l-23 1 0 -190z"/>
<path d="M4920 850 c0 -183 1 -190 20 -190 18 0 20 8 22 158 l3 157 124 -155
c88 -111 130 -156 147 -158 l24 -3 0 190 c0 184 -1 191 -20 191 -18 0 -20 -8
-22 -157 l-3 -158 -124 158 c-97 123 -129 157 -148 157 l-23 0 0 -190z"/>
<path d="M5330 770 c-23 -23 -25 -42 -9 -73 16 -29 28 -37 61 -37 27 0 68 39
68 65 0 7 -9 24 -21 39 -25 32 -70 35 -99 6z m90 -5 c16 -20 16 -61 0 -80 -21
-25 -72 -15 -89 16 -13 24 -13 29 2 53 20 30 67 36 87 11z"/>
<path d="M5351 723 c1 -21 3 -30 6 -20 2 9 7 17 10 17 4 0 16 -8 27 -17 15
-13 17 -14 9 -2 -10 12 -10 18 -1 27 9 9 9 15 -1 25 -10 10 -11 9 -6 -5 6 -14
2 -18 -15 -18 -16 0 -20 4 -16 15 3 8 1 15 -4 15 -6 0 -9 -17 -9 -37z"/>
<path d="M1853 415 c0 -38 2 -55 4 -37 4 31 6 32 48 32 42 0 44 -1 48 -32 2
-18 4 -1 4 37 0 39 -2 55 -4 38 -4 -32 -6 -33 -48 -33 -42 0 -44 1 -48 33 -2
17 -4 1 -4 -38z"/>
<path d="M2050 460 c-25 -25 -26 -72 -2 -93 25 -23 75 -21 97 3 56 62 -36 149
-95 90z m78 -6 c40 -28 19 -94 -30 -94 -29 0 -58 28 -58 56 0 22 33 54 55 54
6 0 21 -7 33 -16z"/>
<path d="M2238 473 c20 -4 22 -10 22 -64 0 -33 4 -59 10 -59 6 0 10 26 10 59
0 54 2 60 23 64 12 2 -3 4 -33 4 -30 0 -45 -2 -32 -4z"/>
<path d="M2380 415 l0 -65 58 2 57 2 -52 3 c-49 4 -53 6 -53 29 0 19 5 24 28
25 l27 1 -25 7 c-16 4 -25 14 -25 26 0 16 9 21 45 26 l45 6 -52 1 -53 2 0 -65z"/>
<path d="M2552 418 l-2 -68 48 2 47 1 -42 4 -42 4 -4 62 -3 62 -2 -67z"/>
<path d="M2690 415 l0 -65 58 2 c56 2 56 2 10 5 -43 4 -48 7 -48 28 0 17 7 25
23 28 l22 4 -22 2 c-17 1 -23 7 -23 25 0 22 5 25 48 29 46 3 46 3 -10 5 l-58
2 0 -65z"/>
<path d="M2866 464 c-26 -26 -4 -54 44 -54 43 0 58 -13 40 -35 -14 -17 -53
-19 -81 -5 -11 6 -19 7 -19 1 0 -24 91 -29 110 -6 22 27 3 54 -43 57 -30 2
-43 8 -45 20 -4 22 38 34 67 18 12 -6 21 -7 21 -1 0 24 -71 28 -94 5z"/>
<path d="M3110 415 l0 -65 50 0 c53 0 78 21 60 50 -5 8 -7 25 -4 37 7 27 -20
43 -70 43 l-36 0 0 -65z m93 39 c15 -16 -8 -34 -44 -34 -32 0 -39 3 -39 20 0
17 7 20 38 20 21 0 41 -3 45 -6z m2 -69 c0 -16 -8 -21 -42 -23 -40 -3 -43 -2
-43 23 0 25 3 26 43 23 34 -2 42 -7 42 -23z"/>
<path d="M3292 429 c-2 -63 8 -79 53 -79 45 0 55 16 53 79 l-2 56 -3 -50 c-5
-57 -16 -75 -48 -75 -32 0 -43 18 -48 75 l-3 50 -2 -56z"/>
<path d="M3482 468 c-31 -31 -8 -58 49 -58 33 0 51 -26 28 -41 -19 -12 -66
-11 -74 1 -3 6 -11 10 -17 10 -7 0 -6 -6 2 -15 16 -19 84 -20 100 0 23 27 8
50 -37 56 -53 7 -62 15 -40 36 14 15 22 15 47 6 17 -6 30 -8 30 -3 0 21 -69
27 -88 8z"/>
<path d="M3643 415 c0 -38 2 -53 4 -32 2 20 2 52 0 70 -2 17 -4 1 -4 -38z"/>
<path d="M3732 414 l1 -69 6 55 6 55 40 -52 c22 -29 43 -52 48 -53 4 0 6 30 5
68 l-1 67 -6 -59 -6 -60 -28 41 c-16 23 -37 49 -48 59 -19 17 -19 16 -17 -52z"/>
<path d="M3910 415 l0 -65 58 2 c56 2 56 2 10 5 -43 4 -48 7 -48 28 0 17 7 25
23 28 l22 4 -22 2 c-17 1 -23 7 -23 25 0 22 5 25 48 29 46 3 46 3 -10 5 l-58
2 0 -65z"/>
<path d="M4086 464 c-26 -26 -4 -54 43 -54 24 0 41 -5 44 -14 12 -31 -42 -48
-84 -26 -11 6 -19 7 -19 1 0 -24 91 -29 110 -6 22 27 3 54 -43 57 -30 2 -43 8
-45 20 -4 22 38 34 67 18 12 -6 21 -7 21 -1 0 24 -71 28 -94 5z"/>
<path d="M4252 468 c-31 -31 -8 -58 49 -58 33 0 51 -26 28 -41 -19 -12 -66
-11 -74 1 -3 6 -11 10 -17 10 -7 0 -6 -6 2 -15 13 -16 76 -20 98 -6 8 4 12 19
10 32 -2 20 -10 25 -45 30 -53 7 -62 15 -40 36 14 15 22 15 47 6 17 -6 30 -8
30 -3 0 21 -69 27 -88 8z"/>
<path d="M4510 462 c-44 -36 -17 -112 41 -112 34 0 59 9 59 21 0 6 -8 5 -19
-1 -28 -14 -57 -12 -75 6 -41 41 7 109 60 85 34 -15 43 -13 20 4 -27 20 -59
19 -86 -3z"/>
<path d="M4682 418 l-2 -68 48 2 47 1 -42 4 -42 4 -4 62 -3 62 -2 -67z"/>
<path d="M4835 419 c-15 -33 -25 -63 -22 -66 3 -2 8 5 12 16 5 17 15 21 45 21
30 0 40 -4 45 -21 4 -11 9 -18 13 -15 7 7 -48 126 -58 126 -4 0 -20 -27 -35
-61z m49 15 c9 -23 8 -24 -14 -24 -11 0 -20 2 -20 4 0 12 13 36 20 36 4 0 11
-7 14 -16z"/>
<path d="M4994 466 c-28 -22 -7 -50 42 -56 31 -4 39 -9 39 -25 0 -16 -6 -20
-35 -19 -19 0 -44 4 -55 8 -20 8 -20 7 -1 -8 25 -20 80 -21 100 0 25 24 4 54
-38 54 -44 0 -66 24 -37 40 11 6 33 8 48 4 22 -4 25 -3 13 5 -21 15 -53 14
-76 -3z"/>
<path d="M5163 473 c-18 -7 -16 -50 3 -57 9 -3 29 -6 44 -6 34 0 47 -15 30
-35 -14 -17 -53 -19 -81 -5 -11 6 -19 7 -19 1 0 -24 91 -29 110 -6 18 22 8 50
-20 53 -51 6 -70 13 -70 27 0 20 43 29 69 15 12 -6 21 -7 21 -1 0 18 -56 27
-87 14z"/>
</g>
</svg>
