<?xml version="1.0" standalone="no"?>
<!DOCTYPE svg PUBLIC "-//W3C//DTD SVG 20010904//EN"
 "http://www.w3.org/TR/2001/REC-SVG-20010904/DTD/svg10.dtd">
<svg version="1.0" xmlns="http://www.w3.org/2000/svg"
 width="2000.000000pt" height="1401.000000pt" viewBox="0 0 2000.000000 1401.000000"
 preserveAspectRatio="xMidYMid meet">

<g transform="translate(0.000000,1401.000000) scale(0.100000,-0.100000)"
fill="#000000" stroke="none">
<path d="M11555 12174 c-27 -2 -88 -9 -134 -15 l-83 -11 -22 -52 c-13 -28 -35
-89 -51 -136 -15 -47 -65 -193 -110 -325 -45 -132 -87 -258 -92 -280 -6 -22
-21 -74 -35 -116 l-25 -76 126 34 c69 18 176 45 236 60 61 14 112 27 113 29 8
6 85 202 93 237 9 36 52 145 121 302 17 39 39 96 50 128 10 32 35 92 54 133
20 41 35 77 33 79 -7 6 -221 13 -274 9z"/>
<path d="M9223 11891 c-24 -4 -44 -9 -46 -12 -10 -13 -62 -151 -100 -264 -24
-71 -66 -195 -94 -275 -28 -80 -85 -253 -127 -385 -43 -132 -82 -250 -87 -263
-5 -13 -9 -33 -9 -46 0 -13 -9 -48 -19 -79 -11 -30 -29 -88 -40 -127 l-20 -71
32 6 c18 4 37 10 42 14 6 4 46 23 90 41 44 18 85 37 90 41 6 4 40 19 78 34 55
22 68 32 72 54 3 14 25 85 49 156 44 129 101 300 156 465 16 47 47 135 70 195
23 61 47 128 53 150 10 41 83 239 112 309 9 21 14 40 11 43 -20 20 -221 29
-313 14z"/>
<path d="M13450 10890 c-279 -12 -735 -48 -885 -70 -340 -52 -317 -46 -494
-127 -91 -42 -175 -82 -186 -89 -11 -7 -76 -37 -145 -67 -69 -30 -173 -78
-232 -106 -59 -28 -112 -51 -118 -51 -5 0 -63 -25 -128 -55 -64 -30 -118 -51
-120 -47 -1 5 18 68 43 141 25 74 44 135 42 137 -6 6 -201 -38 -371 -83 l-69
-19 -23 -79 c-13 -43 -24 -89 -24 -101 0 -13 -4 -33 -9 -46 -23 -56 -140 -493
-159 -593 -5 -27 -43 -187 -85 -355 -42 -168 -82 -343 -91 -390 -8 -47 -29
-146 -46 -220 -54 -238 -91 -423 -100 -495 -4 -38 -25 -158 -45 -265 -59 -321
-125 -722 -125 -768 0 -23 -7 -86 -15 -140 -23 -155 -64 -489 -90 -731 -16
-149 -29 -227 -37 -233 -39 -25 -123 -41 -233 -45 -100 -4 -131 -1 -182 15
l-62 20 -6 -42 c-14 -110 -35 -383 -35 -460 l0 -86 -192 -1 c-106 -1 -197 -1
-202 0 -5 1 -3 -5 4 -14 17 -20 21 -43 10 -50 -4 -2 -7 5 -6 17 1 13 -6 22
-17 24 -14 2 -16 0 -7 -11 10 -12 8 -13 -10 -10 -18 3 -20 2 -10 -10 10 -12 8
-13 -9 -10 -12 2 -19 0 -16 -6 9 -13 45 -11 45 4 0 8 4 7 10 -3 8 -13 13 -13
31 -2 11 8 18 9 14 3 -4 -8 662 -11 2309 -11 l2316 0 0 2350 c0 1462 -4 2350
-9 2350 -6 0 -13 -5 -16 -10 -4 -6 -12 -7 -18 -3 -7 4 -6 -1 2 -11 12 -15 12
-17 0 -14 -8 2 -13 -3 -11 -10 1 -8 -2 -11 -8 -7 -5 3 -12 0 -15 -7 -9 -26
-14 -912 -14 -2715 l-1 -1843 -1686 0 -1687 0 7 68 c4 37 11 132 16 212 10
165 65 668 110 1000 17 124 35 263 40 310 31 268 60 454 126 800 20 102 40
214 45 250 14 91 94 466 135 628 19 75 34 146 34 157 0 17 45 184 134 500 l22
79 115 43 c63 24 148 56 189 71 41 16 100 37 130 47 30 10 60 21 65 26 6 4 34
17 63 28 29 11 85 37 125 56 39 19 78 35 85 35 13 0 247 112 442 211 52 26
119 60 148 74 153 74 276 140 311 167 13 10 31 18 40 18 9 1 41 16 71 35 97
59 209 125 214 125 7 0 145 83 197 118 26 18 52 32 58 32 6 0 39 19 73 43 75
50 159 103 210 132 21 11 65 40 99 65 34 25 82 57 108 71 58 32 67 60 19 57
-18 0 -112 -4 -208 -8z m191 -947 c13 -16 12 -17 -3 -4 -10 7 -18 15 -18 17 0
8 8 3 21 -13z m-4572 -4527 c9 -11 9 -16 -1 -22 -7 -4 -10 -4 -6 1 4 4 3 14
-3 22 -6 7 -9 13 -6 13 2 0 10 -6 16 -14z"/>
<path d="M13625 10069 c-4 -6 -5 -12 -2 -15 2 -3 7 2 10 11 7 17 1 20 -8 4z"/>
<path d="M8795 9771 c-22 -10 -53 -21 -70 -25 -16 -4 -72 -27 -123 -52 -51
-24 -97 -44 -102 -44 -6 0 -10 -2 -10 -4 0 -1 -13 -58 -30 -124 -16 -67 -30
-132 -30 -144 0 -13 -18 -100 -39 -193 -75 -320 -179 -906 -245 -1380 -28
-202 -39 -298 -67 -630 -11 -137 -22 -255 -24 -261 -7 -25 -156 -74 -225 -74
-60 0 -170 28 -238 60 -36 17 -68 28 -71 24 -3 -3 -6 -63 -6 -132 1 -138 16
-204 76 -323 28 -56 122 -169 141 -169 5 0 24 -11 41 -24 52 -39 168 -93 228
-106 67 -15 224 -9 242 9 7 7 14 66 18 159 10 221 64 688 130 1127 17 110 34
241 39 290 10 95 75 468 134 770 20 99 36 191 36 205 0 24 6 26 113 53 61 15
121 27 133 27 11 0 50 9 85 19 105 32 447 128 543 153 101 26 100 26 117 142
5 39 36 176 67 304 36 143 54 232 47 232 -6 0 -58 -16 -115 -35 -57 -19 -112
-35 -121 -35 -10 0 -120 -34 -246 -75 -125 -41 -235 -75 -244 -75 -15 0 -195
-56 -241 -75 -15 -6 -15 -1 3 57 10 35 19 71 19 81 0 11 18 77 41 149 22 71
39 131 37 133 -2 2 -21 -4 -43 -14z"/>
<path d="M7460 9084 c-47 -7 -104 -13 -128 -13 -27 -1 -57 -10 -82 -26 -22
-14 -85 -48 -140 -75 -54 -28 -136 -73 -181 -100 -45 -27 -91 -52 -103 -56
-21 -6 -69 -34 -212 -121 -40 -24 -77 -43 -83 -43 -6 0 -32 -13 -57 -28 -85
-54 -69 -56 449 -48 254 3 482 9 507 13 42 8 45 10 51 48 12 67 79 418 84 443
4 14 1 22 -7 21 -7 -1 -51 -7 -98 -15z"/>
<path d="M1876 4243 c-5 -17 -18 -84 -85 -418 -17 -82 -54 -262 -84 -400 -30
-137 -60 -286 -67 -329 -6 -44 -14 -85 -17 -93 -3 -8 2 -13 15 -13 25 0 19
-20 92 310 33 151 67 302 75 336 8 33 15 75 15 92 0 17 11 80 25 139 31 137
85 382 85 388 0 14 -49 3 -54 -12z"/>
<path d="M3317 4253 c-4 -3 -7 -23 -7 -44 0 -21 -38 -209 -85 -418 -47 -210
-85 -392 -85 -405 0 -13 -31 -164 -69 -337 -38 -173 -75 -343 -81 -379 -6 -36
-49 -240 -95 -455 -46 -214 -86 -408 -88 -430 -2 -22 -27 -144 -55 -272 -29
-128 -52 -235 -52 -239 0 -4 -56 -4 -124 -1 -116 5 -132 9 -211 46 -5 2 -4 -3
3 -12 38 -46 184 -87 309 -87 l62 0 16 77 c9 43 25 115 36 159 10 45 19 94 19
109 0 15 38 201 84 413 46 213 96 448 110 522 15 74 38 182 50 240 60 269 85
389 90 435 4 27 13 77 21 110 39 160 145 656 145 678 0 20 17 103 55 275 4 18
1 22 -18 22 -13 0 -27 -3 -30 -7z"/>
<path d="M14848 4183 c-8 -43 -42 -204 -76 -358 -33 -154 -67 -314 -75 -355
-8 -41 -46 -221 -85 -400 -39 -179 -80 -372 -91 -430 -19 -96 -40 -192 -115
-520 -14 -63 -26 -126 -26 -140 0 -14 -13 -84 -29 -155 -16 -72 -52 -231 -80
-354 -28 -124 -51 -227 -51 -229 0 -3 -39 -2 -87 1 -77 5 -195 33 -228 55 -6
4 -2 -2 10 -12 55 -51 196 -96 302 -96 36 0 43 4 48 23 36 152 115 515 115
531 0 11 35 183 79 381 43 198 88 410 100 470 11 61 36 178 55 260 83 368 96
427 96 449 0 13 38 194 84 402 46 208 88 411 94 450 6 39 14 78 18 87 5 13 0
17 -18 17 -22 0 -25 -6 -40 -77z"/>
<path d="M9272 4109 c-7 -28 -12 -61 -12 -74 0 -12 -38 -193 -85 -400 -47
-208 -85 -388 -85 -400 0 -11 -34 -172 -76 -356 -41 -183 -79 -363 -84 -399
-5 -36 -18 -105 -29 -155 -12 -49 -30 -130 -41 -180 -11 -49 -27 -119 -35
-155 -41 -179 -58 -260 -65 -315 -5 -33 -18 -103 -30 -155 -12 -52 -30 -128
-39 -169 -15 -69 -18 -75 -46 -83 -43 -12 -202 10 -250 35 -33 16 -37 17 -26
3 8 -9 44 -31 80 -48 59 -29 74 -32 165 -33 l100 0 23 95 c12 52 22 107 23
122 0 15 14 87 30 160 90 398 140 629 140 647 0 11 14 80 30 153 97 430 130
582 130 599 0 20 30 159 124 577 25 111 46 213 46 226 0 14 16 93 35 176 19
83 35 158 35 166 0 8 -10 14 -23 14 -20 0 -25 -8 -35 -51z"/>
<path d="M7115 3860 c15 -57 17 -124 5 -181 -16 -76 -81 -168 -141 -201 -23
-13 -58 -32 -78 -43 -55 -30 -182 -28 -236 4 l-40 23 25 -27 c71 -76 199 -94
300 -41 103 54 142 91 182 174 56 116 52 216 -12 302 -9 12 -10 10 -5 -10z"/>
<path d="M6107 3793 c-3 -5 -30 -125 -62 -268 -31 -143 -65 -297 -76 -343 -10
-46 -19 -97 -19 -113 0 -16 -11 -77 -25 -136 -13 -60 -45 -202 -70 -318 -25
-115 -50 -226 -55 -246 -6 -20 -10 -50 -10 -66 0 -25 -112 -552 -155 -729 -8
-33 -15 -72 -15 -86 0 -27 -22 -141 -41 -210 l-10 -38 -62 0 c-70 0 -161 21
-222 50 l-40 19 30 -25 c70 -58 193 -98 289 -92 50 3 51 3 54 38 3 34 38 208
67 335 44 188 97 439 105 498 6 38 44 221 85 407 41 187 75 349 75 362 0 22
19 112 106 503 34 154 47 221 77 388 13 73 13 77 -4 77 -10 0 -20 -3 -22 -7z"/>
<path d="M15445 3113 c18 -119 19 -122 36 -110 14 11 15 21 5 82 -9 54 -16 71
-29 73 -17 3 -18 -1 -12 -45z"/>
<path d="M17554 3103 c12 -104 16 -116 33 -101 12 9 14 24 8 63 -10 77 -16 95
-32 95 -13 0 -14 -10 -9 -57z"/>
<path d="M6967 3137 c-3 -8 -11 -49 -17 -93 -11 -75 -99 -492 -141 -671 -11
-45 -24 -117 -29 -160 -6 -42 -17 -104 -25 -137 -41 -171 -137 -620 -145 -684
-6 -41 -15 -92 -22 -114 l-12 -41 -85 6 c-90 5 -182 30 -216 56 -19 15 -19 15
-5 -3 41 -52 189 -106 291 -106 53 0 48 -7 73 105 76 334 146 663 146 684 0
15 22 127 50 251 66 296 106 490 119 570 6 36 24 126 40 200 17 74 31 138 31
143 0 13 -48 7 -53 -6z"/>
<path d="M12052 3073 c-6 -32 -43 -204 -82 -383 -38 -178 -70 -335 -70 -348 0
-12 -17 -96 -37 -185 -46 -203 -52 -345 -16 -413 12 -22 29 -46 37 -53 14 -12
14 -9 -1 25 -11 26 -16 68 -17 124 0 110 22 231 139 770 30 140 60 289 65 330
6 41 16 101 24 133 14 57 14 57 -8 57 -19 0 -24 -8 -34 -57z"/>
<path d="M13226 3099 c-3 -17 -6 -42 -6 -56 0 -13 -16 -95 -34 -181 -19 -86
-55 -250 -80 -365 -26 -114 -46 -218 -46 -232 0 -14 -20 -119 -44 -233 -45
-207 -112 -537 -126 -623 -12 -70 -57 -193 -111 -308 -27 -57 -49 -109 -49
-116 0 -8 -3 -15 -7 -17 -5 -2 -25 -29 -45 -60 -58 -89 -207 -248 -232 -248
-6 0 -24 -12 -41 -26 -45 -38 -223 -123 -280 -134 -27 -5 -102 -18 -165 -30
-79 -14 -157 -21 -250 -22 -152 0 -224 11 -384 62 -38 12 -127 66 -179 109
l-42 33 40 -38 c85 -81 111 -98 219 -143 l111 -46 255 -3 c276 -4 314 0 470
50 125 39 180 66 268 133 40 30 76 55 80 56 14 1 155 171 177 213 13 24 41 77
63 117 50 92 90 188 102 242 5 23 20 83 34 132 28 97 56 230 106 500 17 94 67
339 111 545 44 206 79 384 79 396 0 11 14 82 30 157 36 166 36 167 6 167 -18
0 -25 -7 -30 -31z"/>
<path d="M11070 2981 c0 -17 -27 -155 -60 -308 -34 -153 -70 -327 -81 -388
-11 -60 -58 -292 -105 -515 -46 -223 -84 -421 -84 -440 0 -45 -8 -56 -45 -64
-41 -8 -214 18 -256 39 -34 17 -34 17 -14 -3 38 -38 153 -75 246 -80 78 -4 87
-2 93 14 13 46 146 686 146 707 0 13 23 129 51 258 49 230 83 398 132 651 23
119 23 128 7 143 -24 22 -30 19 -30 -14z"/>
<path d="M18716 2934 c47 -95 61 -183 47 -311 -13 -115 -49 -288 -198 -943
-18 -76 -51 -240 -67 -330 l-13 -75 -53 -3 c-92 -5 -221 14 -253 37 -33 24
-40 15 -9 -12 40 -34 169 -69 259 -71 l83 -1 13 50 c7 28 22 93 34 145 12 52
42 183 67 290 25 107 49 224 54 260 5 36 25 128 44 205 69 280 80 341 80 485
l1 136 -37 74 c-21 41 -48 89 -62 105 -21 25 -19 19 10 -41z"/>
<path d="M16600 2960 c11 -19 29 -64 40 -99 39 -125 23 -282 -65 -646 -25
-102 -45 -196 -45 -209 0 -13 -15 -89 -34 -168 -33 -141 -47 -200 -102 -447
l-28 -124 -114 6 c-92 5 -124 11 -170 32 l-57 26 25 -25 c39 -38 160 -76 264
-83 l92 -6 18 79 c10 44 31 133 46 199 16 66 36 161 45 210 9 50 37 180 63
290 121 529 112 475 112 653 1 162 1 163 -29 225 -17 34 -42 76 -56 92 l-26
30 21 -35z"/>
<path d="M4962 2895 c2 -6 15 -35 30 -65 90 -180 89 -454 -1 -717 -17 -50 -31
-98 -31 -108 0 -23 -96 -217 -120 -243 -10 -11 -32 -41 -48 -67 -37 -60 -221
-229 -283 -260 -26 -14 -51 -29 -54 -35 -11 -18 -204 -110 -248 -119 -23 -5
-71 -17 -107 -27 -90 -26 -328 -26 -415 0 -33 10 -76 21 -95 25 -40 9 -112 38
-120 49 -3 4 -27 22 -55 40 l-50 33 36 -33 c54 -50 103 -88 115 -88 5 0 49
-16 97 -35 118 -48 246 -69 367 -61 101 6 261 44 323 76 21 11 44 20 53 20 15
0 95 37 104 49 3 3 45 33 95 66 194 129 351 317 415 495 7 19 28 78 47 130 66
182 77 246 77 440 0 188 -8 230 -70 350 -22 42 -69 107 -62 85z"/>
<path d="M8280 2883 c-88 -13 -183 -41 -232 -70 -88 -51 -235 -202 -287 -293
-53 -92 -93 -177 -122 -255 -33 -90 -33 -90 -34 -275 0 -200 4 -217 61 -285
l26 -30 -20 40 c-75 153 -44 425 72 655 13 25 32 63 42 85 11 22 47 72 82 111
34 40 62 76 62 81 0 12 172 131 223 153 78 34 166 52 241 48 69 -3 101 10 53
23 -33 9 -138 16 -167 12z"/>
<path d="M10325 2880 c-69 -9 -163 -33 -197 -51 -34 -18 -208 -161 -208 -171
0 -5 -22 -37 -48 -71 -71 -93 -98 -144 -148 -283 -92 -262 -97 -468 -13 -590
16 -24 31 -44 33 -44 2 0 -8 28 -22 63 -62 149 -13 459 105 674 32 57 66 113
76 123 9 11 17 23 17 28 0 11 110 123 161 165 51 42 188 106 255 118 32 6 89
8 127 5 54 -5 67 -3 67 8 0 10 -17 17 -57 21 -32 4 -65 8 -73 9 -8 2 -42 0
-75 -4z"/>
<path d="M4136 2855 c-62 -17 -143 -73 -181 -125 -17 -22 -33 -40 -37 -40 -5
0 -29 -33 -55 -72 -27 -40 -51 -74 -55 -76 -5 -2 -8 -9 -8 -17 0 -7 -18 -52
-39 -101 -77 -174 -110 -371 -91 -546 10 -91 15 -109 46 -155 41 -64 53 -69
23 -11 -19 36 -23 65 -27 176 -3 80 0 163 8 210 23 145 110 381 167 452 38 48
83 111 83 118 1 20 161 134 214 152 56 18 171 9 224 -19 58 -30 64 -20 10 16
-74 50 -184 65 -282 38z"/>
<path d="M15790 2834 c-91 -24 -250 -145 -250 -190 0 -8 -11 -36 -24 -62 -43
-85 -130 -364 -146 -467 -4 -27 -33 -158 -64 -290 -56 -238 -85 -367 -106
-477 l-11 -58 -227 -2 c-207 -3 -227 -5 -230 -21 -3 -16 14 -17 240 -17 l244
0 11 33 c10 28 29 104 78 312 8 33 26 108 40 167 14 59 25 118 25 131 0 46 78
341 146 547 43 134 108 250 138 250 7 0 23 11 35 24 12 13 50 37 84 52 54 25
74 29 153 29 76 0 95 -3 113 -19 29 -26 26 -6 -3 22 -53 50 -144 63 -246 36z"/>
<path d="M17905 2837 c-64 -22 -136 -62 -183 -102 -32 -28 -56 -64 -92 -139
-46 -97 -110 -278 -110 -313 0 -9 -22 -107 -50 -217 -71 -288 -120 -505 -120
-535 0 -14 -13 -73 -29 -131 l-28 -105 -219 -3 c-213 -2 -233 -5 -234 -34 0
-5 112 -8 250 -8 l249 0 6 38 c6 41 69 323 120 537 18 77 39 169 45 205 20
104 77 307 116 410 20 52 42 113 51 135 21 58 55 98 115 136 29 18 55 36 58
40 3 4 33 17 67 28 80 27 164 27 222 0 l45 -20 -20 22 c-51 56 -176 83 -259
56z"/>
<path d="M2320 2720 c-74 -16 -173 -35 -220 -44 -110 -19 -580 -123 -587 -129
-2 -3 -9 -36 -15 -74 -10 -65 -54 -277 -103 -503 -37 -168 -72 -338 -89 -430
-14 -74 -35 -178 -51 -246 -4 -16 -14 -23 -42 -26 -61 -8 -205 12 -243 33
l-35 19 34 -29 c49 -43 112 -62 223 -68 l97 -6 10 41 c6 22 15 71 20 109 8 59
113 548 156 729 8 33 15 72 15 86 0 23 8 64 54 277 l12 55 54 12 c30 7 69 13
87 14 17 0 71 9 120 20 403 92 586 130 624 130 27 0 39 4 39 14 0 8 3 21 6 30
8 21 -3 20 -166 -14z"/>
<path d="M920 2376 c-50 -14 -245 -83 -272 -98 -18 -9 -25 -58 -9 -58 5 0 53
16 108 35 54 20 123 45 155 56 44 16 58 26 63 46 3 14 5 27 3 28 -2 1 -23 -3
-48 -9z"/>
<path d="M10285 1447 c-11 -5 -32 -22 -48 -37 -31 -31 -160 -106 -203 -120
-182 -56 -388 -55 -548 3 -30 11 -111 63 -157 101 -14 11 3 -6 39 -40 51 -49
81 -67 155 -97 111 -44 174 -57 279 -57 168 0 366 70 477 168 51 46 54 50 40
69 -12 17 -18 19 -34 10z"/>
<path d="M8180 1389 c-104 -70 -161 -96 -271 -119 -228 -48 -466 -7 -610 105
-19 15 -11 6 16 -19 53 -50 151 -101 250 -132 90 -28 295 -26 390 3 125 38
187 64 241 98 73 47 96 72 89 96 -9 28 -22 24 -105 -32z"/>
<path d="M12265 1375 c-70 -44 -220 -95 -275 -95 -35 0 -231 -33 -325 -55 -73
-17 -167 -62 -205 -97 -58 -54 -70 -167 -26 -242 31 -53 55 -73 31 -26 -27 52
-17 148 20 202 52 73 144 107 440 158 322 57 425 100 425 181 0 25 -3 24 -85
-26z"/>
</g>
</svg>
