<?xml version="1.0" standalone="no"?>
<!DOCTYPE svg PUBLIC "-//W3C//DTD SVG 20010904//EN"
 "http://www.w3.org/TR/2001/REC-SVG-20010904/DTD/svg10.dtd">
<svg version="1.0" xmlns="http://www.w3.org/2000/svg"
 width="1228.000000pt" height="422.000000pt" viewBox="0 0 1228.000000 422.000000"
 preserveAspectRatio="xMidYMid meet">

<g transform="translate(0.000000,422.000000) scale(0.100000,-0.100000)"
fill="#000000" stroke="none">
<path d="M1420 3818 c0 -4 6 -13 14 -21 8 -7 27 -38 42 -68 16 -30 45 -80 66
-111 21 -31 38 -60 38 -64 0 -9 60 -105 77 -122 23 -24 14 -62 -30 -130 -24
-37 -47 -75 -50 -85 -4 -9 -25 -44 -47 -77 -22 -32 -40 -63 -40 -68 0 -5 -20
-40 -45 -76 -25 -37 -45 -73 -45 -80 0 -6 -7 -21 -15 -31 -29 -38 -75 -110
-75 -118 0 -5 -20 -40 -45 -78 -25 -38 -45 -73 -45 -77 0 -4 -15 -30 -33 -57
-18 -28 -45 -75 -61 -105 -16 -30 -32 -57 -36 -60 -4 -3 -21 -33 -38 -67 -18
-34 -36 -64 -42 -68 -33 -21 10 -25 243 -25 229 0 254 2 265 18 42 60 62 94
62 102 0 4 20 39 45 77 25 37 45 72 45 76 0 4 17 34 38 66 21 31 52 83 67 114
16 31 32 57 36 57 4 0 12 15 20 33 7 17 27 55 45 82 18 28 43 70 57 95 13 25
40 72 60 105 20 33 49 82 64 108 15 27 34 55 41 62 6 8 12 20 12 27 0 7 18 39
41 72 37 54 40 61 29 87 -7 16 -15 29 -19 29 -4 0 -20 26 -36 57 -15 31 -45
82 -65 112 -20 31 -39 64 -43 73 -3 9 -24 45 -47 80 l-41 63 -255 0 c-140 0
-254 -3 -254 -7z"/>
<path d="M2110 3815 c0 -3 16 -32 37 -63 20 -31 50 -82 66 -112 17 -30 33 -57
37 -60 4 -3 22 -32 39 -65 18 -33 42 -76 53 -95 l21 -36 -37 -52 c-20 -28 -36
-58 -36 -65 0 -7 -7 -22 -15 -32 -28 -37 -60 -90 -89 -145 -16 -30 -33 -61
-39 -68 -15 -18 -90 -146 -128 -217 -17 -33 -35 -62 -39 -65 -4 -3 -20 -30
-36 -60 -16 -30 -45 -80 -65 -110 -19 -30 -38 -63 -42 -72 -3 -10 -22 -43 -42
-73 -19 -31 -35 -58 -35 -62 0 -3 -18 -34 -40 -69 l-40 -64 260 0 c183 0 260
3 260 11 0 6 14 31 30 56 17 25 42 67 55 93 14 27 36 66 51 87 14 21 30 48 35
61 5 13 27 49 49 82 22 32 40 63 40 68 0 5 20 40 45 76 25 37 45 73 45 80 0 6
7 21 15 31 29 38 75 110 75 118 0 5 20 40 45 78 25 38 45 73 45 77 0 4 16 32
36 62 20 30 48 78 61 105 14 28 31 53 37 57 8 5 6 16 -6 35 -10 16 -25 43 -34
62 -9 19 -33 61 -55 92 -21 32 -39 63 -39 69 0 5 -15 32 -34 59 -19 26 -44 67
-55 90 l-21 41 -255 0 c-140 0 -255 -2 -255 -5z"/>
<path d="M4522 3578 c3 -220 4 -236 27 -286 26 -57 63 -94 118 -117 42 -18
166 -20 214 -3 47 16 100 62 126 112 21 39 22 52 23 284 l0 242 -45 0 -45 0 0
-245 0 -244 -30 -31 c-54 -56 -139 -75 -201 -47 -35 16 -78 68 -90 109 -5 18
-9 129 -9 245 l0 213 -46 0 -45 0 3 -232z"/>
<path d="M6030 3765 l0 -45 40 0 40 0 0 45 0 45 -40 0 -40 0 0 -45z"/>
<path d="M8857 3803 c-4 -3 -7 -24 -7 -45 0 -38 0 -38 40 -38 l40 0 0 45 c0
44 0 45 -33 45 -19 0 -37 -3 -40 -7z"/>
<path d="M9550 3698 l0 -111 -22 21 c-52 48 -139 56 -208 19 -34 -18 -52 -37
-79 -87 -32 -59 -36 -73 -35 -140 0 -101 36 -172 111 -222 56 -36 181 -17 217
33 l16 23 0 -32 c0 -31 2 -32 40 -32 l40 0 0 320 0 320 -40 0 -40 0 0 -112z
m-45 -151 c38 -38 51 -101 40 -192 -6 -43 -15 -66 -38 -92 -29 -32 -32 -34
-90 -31 -55 3 -62 6 -89 39 -23 29 -31 50 -35 97 -8 84 2 122 43 170 33 39 39
42 86 42 43 0 54 -4 83 -33z"/>
<path d="M10927 3804 c-4 -4 -7 -54 -7 -111 l0 -103 -42 30 c-34 25 -51 30
-98 30 -47 0 -64 -5 -96 -29 -58 -42 -74 -64 -90 -122 -33 -125 -8 -232 69
-298 45 -38 52 -41 110 -41 50 0 68 5 99 26 21 15 38 31 38 35 0 5 5 9 10 9 6
0 10 -13 10 -30 0 -28 3 -30 35 -30 l35 0 -2 318 -3 317 -30 3 c-17 2 -34 0
-38 -4z m-48 -261 c61 -74 61 -202 0 -276 -29 -35 -34 -37 -88 -37 -47 0 -61
4 -78 23 -31 35 -48 87 -48 152 0 117 44 175 132 175 47 0 54 -3 82 -37z"/>
<path d="M5502 3640 c-12 -5 -35 -21 -50 -35 l-27 -25 -3 30 c-3 28 -6 30 -43
30 l-39 0 2 -232 3 -233 38 -3 37 -3 0 133 c0 172 5 197 46 242 30 33 38 36
88 36 47 0 57 -4 75 -26 19 -25 21 -40 21 -205 l0 -179 41 0 40 0 -3 201 -3
201 -44 39 c-40 36 -48 39 -100 38 -31 0 -66 -4 -79 -9z"/>
<path d="M7165 3634 c-56 -29 -95 -65 -111 -102 -56 -135 -28 -274 70 -339 43
-29 56 -33 117 -33 71 0 96 9 147 54 21 18 62 85 62 101 0 3 -17 5 -38 5 -31
0 -41 -5 -55 -30 -32 -53 -44 -60 -111 -60 -81 0 -116 30 -131 114 l-7 36 177
0 178 0 -6 60 c-10 94 -48 154 -119 191 -46 23 -131 25 -173 3z m147 -66 c25
-21 56 -71 59 -98 l4 -25 -130 0 -130 0 3 24 c5 29 46 97 64 104 26 11 115 7
130 -5z"/>
<path d="M7860 3614 l-40 -36 0 31 c0 30 -2 31 -40 31 l-40 0 0 -235 0 -235
39 0 39 0 4 163 c3 168 2 164 49 217 9 10 35 21 58 25 39 6 41 9 41 41 0 32
-2 34 -35 34 -26 0 -45 -9 -75 -36z"/>
<path d="M8295 3633 c-16 -8 -42 -27 -57 -41 -25 -23 -28 -33 -28 -87 l0 -62
58 -31 c32 -17 86 -35 121 -41 35 -6 74 -17 87 -26 30 -20 32 -63 3 -94 -18
-19 -29 -22 -97 -19 l-76 3 -20 42 c-19 38 -24 42 -59 43 -34 0 -38 -2 -33
-20 3 -11 9 -30 12 -42 8 -29 41 -66 76 -84 17 -9 57 -14 105 -14 62 0 86 5
118 23 64 36 92 118 63 182 -14 32 -94 75 -140 76 -93 1 -156 56 -130 114 11
23 17 25 72 25 70 0 97 -11 110 -46 8 -19 17 -24 45 -24 32 0 35 2 35 29 0 31
-50 84 -97 102 -38 14 -135 10 -168 -8z"/>
<path d="M10020 3634 c-42 -18 -78 -61 -86 -103 -6 -30 -5 -31 30 -31 26 0 38
5 43 18 16 45 45 62 105 62 33 0 68 -5 79 -11 43 -23 44 -100 1 -113 -10 -4
-61 -10 -112 -15 -90 -8 -93 -9 -134 -50 -38 -39 -41 -45 -40 -96 0 -52 3 -58
43 -95 41 -38 45 -40 110 -40 55 0 73 4 106 27 22 14 43 31 48 37 8 13 27 -10
27 -35 0 -21 20 -29 71 -29 38 0 39 1 39 34 0 28 -4 35 -22 38 -23 3 -23 5
-26 168 l-3 165 -31 32 c-18 18 -48 38 -68 43 -51 14 -140 11 -180 -6z m200
-279 c0 -49 -3 -57 -37 -90 -33 -32 -41 -35 -98 -35 -72 0 -98 19 -98 72 0 44
29 64 119 77 42 6 84 16 93 21 9 5 17 10 19 10 1 0 2 -25 2 -55z"/>
<path d="M6030 3405 l0 -235 40 0 40 0 0 235 0 235 -40 0 -40 0 0 -235z"/>
<path d="M6360 3635 c0 -3 18 -48 40 -100 22 -52 40 -100 40 -108 0 -8 9 -36
21 -63 11 -27 27 -65 35 -84 8 -19 19 -43 24 -52 6 -10 10 -27 10 -38 0 -17 7
-20 43 -20 l43 0 47 113 c26 61 47 117 47 123 0 6 20 57 45 114 25 57 45 107
45 111 0 5 -19 9 -42 9 -42 0 -43 -1 -60 -48 -9 -26 -30 -83 -46 -127 -16 -44
-38 -106 -47 -137 -10 -32 -21 -58 -24 -58 -6 0 -43 105 -55 155 -2 11 -20 63
-39 115 l-35 95 -46 3 c-25 2 -46 0 -46 -3z"/>
<path d="M8852 3408 l3 -233 38 -3 37 -3 0 235 0 236 -40 0 -40 0 2 -232z"/>
<path d="M2916 3174 c-16 -31 -44 -79 -62 -107 -19 -29 -34 -55 -34 -60 0 -5
-14 -28 -30 -52 -17 -24 -42 -67 -56 -95 -30 -60 -27 -76 38 -172 21 -31 42
-67 47 -80 5 -13 21 -40 35 -61 15 -21 37 -60 51 -87 14 -27 36 -66 51 -87 14
-21 30 -48 35 -61 5 -13 27 -49 49 -82 22 -32 40 -63 40 -67 0 -9 61 -109 80
-130 5 -7 10 -18 10 -25 0 -7 18 -39 41 -72 22 -32 44 -69 50 -82 5 -14 27
-51 49 -84 22 -32 40 -65 40 -72 1 -7 9 -23 19 -35 19 -23 22 -23 273 -23
l253 0 35 57 c19 31 38 63 41 72 4 9 23 41 43 71 20 30 36 58 36 62 0 4 20 38
43 75 73 114 93 103 -197 103 -232 0 -254 1 -269 18 -10 10 -17 24 -17 31 0 7
-18 39 -40 71 -22 33 -44 70 -50 84 -5 14 -25 48 -45 75 -19 28 -35 57 -35 64
0 7 -7 22 -15 32 -29 38 -75 110 -75 118 0 5 -20 40 -45 78 -25 38 -45 73 -45
77 0 4 -16 32 -36 62 -20 30 -48 78 -61 105 -14 28 -29 52 -33 55 -4 3 -20 30
-36 60 -16 30 -45 80 -64 110 -20 30 -41 67 -48 83 -17 41 -35 33 -66 -29z"/>
<path d="M7480 2954 c-112 -15 -330 -145 -330 -198 0 -9 -4 -16 -8 -16 -15 0
-53 -96 -63 -160 -15 -96 9 -197 66 -268 21 -26 60 -62 68 -62 5 0 22 -11 38
-24 40 -34 244 -97 409 -126 36 -6 105 -25 153 -41 49 -16 93 -29 98 -29 25 0
119 -86 136 -124 42 -94 4 -236 -77 -290 -87 -57 -143 -71 -290 -71 -115 0
-143 3 -190 22 -92 36 -123 54 -165 97 -61 62 -78 94 -90 169 -5 37 -13 68
-17 67 -5 0 -48 0 -98 0 l-90 0 0 -26 c0 -35 29 -161 46 -200 12 -28 56 -91
87 -124 25 -27 89 -80 96 -80 4 0 32 -13 62 -29 108 -59 349 -87 489 -57 41 9
83 16 94 16 34 0 201 89 247 132 92 86 143 240 119 361 -28 146 -112 240 -272
307 -51 21 -111 41 -133 45 -22 4 -103 22 -180 41 -76 19 -148 34 -159 34 -10
0 -56 18 -101 39 -65 31 -87 48 -110 83 -42 61 -41 133 1 214 28 52 39 63 95
91 81 41 163 57 261 49 177 -13 299 -108 333 -260 l11 -51 97 -3 97 -3 0 37
c0 51 -35 164 -65 208 -14 20 -25 40 -25 45 0 21 -112 105 -187 142 l-85 41
-166 3 c-92 2 -183 1 -202 -1z"/>
<path d="M4520 2165 l0 -765 518 2 517 3 0 85 0 85 -412 3 -413 2 0 675 0 675
-105 0 -105 0 0 -765z"/>
<path d="M9552 2168 l3 -763 93 -3 92 -3 0 766 0 765 -95 0 -95 0 2 -762z"/>
<path d="M9980 2165 l0 -765 90 0 90 0 0 765 0 765 -90 0 -90 0 0 -765z"/>
<path d="M2601 2631 c-8 -17 -17 -31 -21 -31 -4 0 -13 -15 -21 -32 -7 -18 -30
-59 -51 -90 -21 -31 -42 -67 -47 -80 -5 -13 -21 -40 -35 -61 -38 -55 -56 -93
-56 -117 0 -11 20 -51 45 -89 25 -38 45 -74 45 -80 0 -7 6 -18 13 -26 6 -7 25
-35 40 -62 15 -26 44 -75 64 -108 20 -33 49 -85 66 -115 16 -30 35 -62 42 -70
8 -8 26 -40 41 -70 15 -30 31 -59 36 -65 19 -23 58 -87 58 -95 0 -5 18 -36 40
-69 22 -33 40 -64 40 -68 0 -4 20 -39 45 -76 25 -38 45 -73 45 -77 0 -5 12
-27 27 -49 l27 -41 255 0 256 0 28 44 c15 24 27 47 27 52 0 5 20 38 45 74 25
36 45 73 45 83 0 9 4 17 8 17 5 0 16 15 26 33 9 17 28 50 41 72 14 22 25 43
25 48 0 4 -112 7 -248 7 l-248 0 -22 30 c-12 16 -22 34 -22 40 0 6 -18 38 -40
70 -22 33 -44 70 -49 84 -6 13 -28 50 -50 82 -23 33 -41 65 -41 72 0 7 -6 19
-12 27 -7 7 -26 35 -41 62 -15 26 -44 75 -64 108 -20 33 -49 85 -66 115 -16
30 -35 62 -42 70 -7 8 -24 38 -39 67 -14 28 -37 69 -52 90 -14 21 -30 48 -35
61 -5 13 -27 49 -49 82 -22 32 -40 63 -40 68 0 4 -6 16 -13 26 -13 17 -14 16
-26 -13z"/>
<path d="M5985 2523 c-92 -22 -255 -132 -255 -173 0 -9 -4 -20 -9 -25 -9 -10
-41 -122 -41 -144 0 -7 32 -11 95 -11 92 0 95 1 95 23 0 12 11 44 23 70 19 39
34 54 83 80 56 30 65 31 169 32 95 0 116 -3 152 -22 50 -27 80 -63 93 -114 19
-71 -5 -119 -77 -151 -44 -19 -235 -58 -290 -58 -35 0 -192 -46 -207 -61 -6
-5 -18 -9 -28 -9 -20 0 -80 -59 -116 -115 -23 -36 -25 -49 -25 -152 l-1 -113
40 -57 c25 -38 57 -69 91 -89 114 -68 372 -65 486 6 27 16 52 30 56 30 5 0 21
16 35 35 34 44 56 46 56 5 0 -17 11 -48 25 -69 33 -53 100 -70 196 -50 l64 14
0 70 0 70 -40 -3 c-73 -4 -69 -25 -75 395 -5 374 -5 379 -29 428 -27 56 -58
95 -77 95 -6 0 -17 6 -23 14 -7 8 -40 24 -74 35 -52 18 -84 21 -216 20 -86 -1
-165 -3 -176 -6z m389 -802 c-19 -49 -69 -111 -90 -111 -8 0 -14 -4 -14 -9 0
-5 -24 -19 -52 -32 -45 -20 -69 -24 -159 -24 -98 0 -108 2 -147 27 -23 16 -49
39 -58 53 -22 34 -29 99 -14 137 13 34 65 89 100 108 11 6 97 24 192 40 95 16
191 35 213 43 l40 14 3 -101 c2 -76 -1 -112 -14 -145z"/>
<path d="M8685 2516 c-49 -16 -120 -51 -157 -79 -41 -31 -96 -120 -113 -184
-23 -87 -27 -83 79 -83 l93 0 7 38 c14 89 101 156 218 168 98 10 167 -2 229
-39 49 -30 54 -36 65 -87 19 -83 4 -125 -57 -155 -46 -24 -243 -65 -311 -65
-18 0 -71 -14 -118 -31 -47 -16 -95 -32 -107 -36 -12 -3 -44 -29 -72 -57 -43
-47 -51 -61 -66 -130 -27 -120 -2 -230 68 -298 56 -54 84 -67 185 -85 113 -20
260 -4 336 36 77 41 87 47 122 80 40 38 44 38 44 3 0 -15 12 -47 27 -70 24
-36 34 -43 80 -53 42 -8 67 -8 114 3 33 7 60 16 60 21 -1 4 -1 35 -1 70 l0 63
-38 -4 c-74 -7 -72 -15 -72 377 0 280 -3 358 -15 406 -17 64 -57 125 -87 133
-10 2 -18 8 -18 12 0 4 -24 18 -52 31 -48 21 -70 23 -228 26 -124 2 -187 -1
-215 -11z m420 -775 c-8 -56 -63 -117 -147 -161 -55 -29 -73 -34 -159 -38 -87
-4 -101 -2 -144 19 -26 13 -58 37 -72 53 -23 27 -25 37 -21 104 3 71 5 76 38
104 63 54 75 58 251 87 96 16 192 36 214 44 l40 14 3 -91 c2 -50 0 -111 -3
-135z"/>
<path d="M10655 2509 c-27 -11 -57 -27 -66 -35 -8 -8 -21 -14 -27 -14 -18 0
-104 -79 -138 -126 -98 -137 -130 -287 -102 -489 9 -67 24 -130 36 -152 10
-21 31 -59 44 -84 40 -74 115 -139 218 -189 60 -29 208 -44 308 -30 107 14
130 22 210 73 84 53 162 165 175 250 l6 37 -95 0 c-94 0 -94 0 -94 -25 0 -35
-44 -98 -88 -129 -70 -47 -115 -59 -210 -54 -87 4 -92 5 -199 63 -27 14 -88
94 -108 141 -8 20 -15 63 -15 95 l0 59 421 0 421 0 -5 58 c-4 31 -10 77 -15
102 -6 25 -15 70 -21 100 -11 55 -51 142 -77 167 -8 8 -14 20 -14 26 0 20
-102 102 -170 138 -64 34 -67 34 -205 36 -120 2 -147 -1 -190 -18z m308 -165
c53 -28 128 -99 152 -144 7 -14 16 -51 20 -83 l7 -57 -316 0 -316 0 0 43 c0
41 35 124 66 155 8 7 18 22 24 31 9 18 93 64 148 82 50 16 158 2 215 -27z"/>
<path d="M891 2051 c-12 -16 -21 -33 -21 -39 0 -5 -20 -40 -45 -76 -25 -37
-45 -73 -45 -79 0 -7 -17 -37 -38 -67 -44 -65 -82 -135 -82 -154 0 -7 7 -19
15 -26 8 -7 15 -20 15 -29 0 -9 7 -26 15 -36 29 -38 75 -110 75 -118 0 -5 19
-39 43 -76 23 -36 51 -83 61 -104 23 -44 34 -39 67 31 13 26 40 72 61 102 21
30 38 61 38 68 0 7 5 18 10 25 19 22 60 88 80 128 l20 39 684 2 684 3 -39 65
c-21 36 -51 87 -66 113 -15 27 -34 55 -40 62 -7 8 -13 19 -13 26 0 6 -17 37
-37 68 -21 31 -40 65 -43 76 -6 20 -15 20 -692 23 l-687 2 -20 -29z"/>
<path d="M1233 1475 c-7 -8 -13 -20 -13 -27 0 -7 -18 -39 -40 -71 -22 -31 -40
-63 -40 -70 0 -6 -20 -41 -45 -76 -25 -36 -45 -69 -45 -75 0 -6 -13 -31 -30
-56 -25 -38 -27 -46 -15 -60 7 -8 26 -40 41 -70 15 -30 31 -59 36 -65 19 -23
58 -87 58 -95 0 -5 17 -35 38 -67 21 -32 43 -70 50 -85 6 -16 15 -28 20 -28 5
0 19 19 32 43 28 48 47 81 74 128 10 18 25 39 32 47 8 7 14 20 14 27 0 7 20
44 45 81 25 36 45 73 45 80 0 8 10 16 23 19 12 3 322 4 690 3 367 -2 667 0
667 3 0 3 -11 23 -25 43 -14 20 -25 41 -25 46 0 4 -20 39 -45 77 -25 37 -45
72 -45 76 0 4 -19 38 -43 75 -23 37 -47 76 -53 87 -11 20 -23 20 -700 22 -586
2 -691 0 -701 -12z"/>
<path d="M5474 1012 c-12 -21 -29 -50 -38 -65 l-18 -27 27 0 c26 0 104 58 114
84 2 6 10 19 19 29 14 16 12 17 -35 17 -47 0 -50 -2 -69 -38z"/>
<path d="M4520 720 l0 -320 40 0 40 0 0 261 c0 171 3 258 10 254 6 -3 10 -13
10 -21 0 -8 9 -34 19 -57 11 -24 23 -56 26 -72 4 -17 26 -84 50 -150 23 -66
49 -140 56 -165 l14 -45 50 0 49 0 19 50 c11 28 25 73 33 100 8 28 30 91 49
141 19 50 42 117 51 150 8 32 19 63 25 69 5 5 9 -88 9 -253 l0 -262 40 0 40 0
0 320 0 321 -61 -3 -62 -3 -42 -111 c-23 -61 -45 -125 -48 -142 -3 -16 -24
-76 -47 -132 -22 -56 -40 -113 -40 -126 0 -13 -3 -24 -7 -24 -7 0 -21 34 -69
175 -9 28 -34 98 -56 156 -21 59 -44 129 -51 155 l-12 49 -67 3 -68 3 0 -321z"/>
<path d="M6332 998 c3 -43 3 -43 46 -46 l42 -3 0 45 0 46 -46 0 -45 0 3 -42z"/>
<path d="M5400 847 c-26 -14 -57 -43 -77 -71 -32 -47 -33 -50 -33 -156 0 -107
0 -109 33 -151 63 -83 164 -109 265 -69 45 18 64 33 90 70 42 61 41 70 -8 70
-22 0 -40 -5 -40 -11 0 -5 -17 -26 -37 -44 -33 -30 -45 -35 -87 -35 -35 0 -60
7 -83 23 -35 24 -38 29 -48 95 l-7 42 176 0 176 0 0 38 c0 55 -19 113 -50 152
-54 68 -187 91 -270 47z m171 -59 c40 -22 79 -92 61 -110 -5 -5 -65 -7 -133
-6 -136 3 -128 -1 -114 65 6 27 80 73 119 73 15 0 46 -10 67 -22z"/>
<path d="M6655 852 c-74 -35 -125 -126 -125 -225 0 -83 17 -131 64 -182 64
-68 159 -83 250 -40 43 20 96 94 96 132 0 20 -5 23 -35 23 -30 0 -37 -5 -46
-27 -6 -16 -22 -40 -37 -55 -21 -23 -35 -28 -73 -28 -52 0 -90 23 -114 70 -20
38 -20 158 0 207 18 45 72 83 117 83 43 0 96 -38 106 -75 7 -26 13 -30 49 -33
l41 -3 -8 37 c-10 43 -34 79 -74 108 -39 30 -156 34 -211 8z"/>
<path d="M7144 850 c-85 -40 -130 -132 -122 -250 8 -101 39 -157 108 -193 48
-24 63 -27 120 -23 69 5 148 37 157 65 4 9 12 23 19 31 7 8 20 42 29 74 23 78
14 152 -25 221 -24 42 -38 55 -82 73 -67 28 -148 28 -204 2z m151 -50 c15 -6
33 -17 41 -25 63 -63 56 -237 -13 -302 -27 -26 -103 -32 -146 -12 -68 31 -94
174 -50 272 31 67 98 94 168 67z"/>
<path d="M5810 853 c0 -5 17 -30 38 -58 21 -27 54 -74 74 -104 l36 -55 -40
-60 c-23 -34 -49 -70 -58 -81 -10 -11 -27 -37 -39 -57 l-21 -38 49 0 c47 0 49
1 82 52 61 93 69 103 78 103 10 0 81 -91 81 -104 0 -4 8 -18 19 -29 14 -17 30
-22 71 -22 l52 0 -26 31 c-14 17 -26 37 -26 44 0 7 -3 15 -7 17 -12 5 -66 77
-84 111 -20 38 -13 61 46 132 22 28 46 62 53 78 6 15 16 27 22 27 5 0 10 5 10
10 0 6 -22 10 -49 10 -51 0 -60 -6 -90 -59 -53 -94 -81 -122 -81 -83 0 9 -11
29 -24 45 -13 15 -34 43 -47 62 -22 32 -29 35 -71 35 -27 0 -48 -3 -48 -7z"/>
<path d="M6330 630 l0 -230 45 0 45 0 0 230 0 230 -45 0 -45 0 0 -230z"/>
</g>
</svg>
