<?xml version="1.0" standalone="no"?>
<!DOCTYPE svg PUBLIC "-//W3C//DTD SVG 20010904//EN"
 "http://www.w3.org/TR/2001/REC-SVG-20010904/DTD/svg10.dtd">
<svg version="1.0" xmlns="http://www.w3.org/2000/svg"
 width="1142.000000pt" height="265.000000pt" viewBox="0 0 1142.000000 265.000000"
 preserveAspectRatio="xMidYMid meet">

<g transform="translate(0.000000,265.000000) scale(0.100000,-0.100000)"
fill="#000000" stroke="none">
<path d="M1360 2501 c-144 -33 -220 -76 -311 -176 -74 -82 -129 -226 -129
-339 0 -57 24 -145 62 -224 23 -49 52 -87 111 -144 44 -43 86 -78 94 -78 7 0
32 -9 55 -21 61 -31 170 -51 240 -43 67 8 57 -6 114 154 19 52 34 101 34 109
0 8 17 64 38 125 22 61 58 172 82 246 23 74 49 154 57 177 13 39 13 45 -4 67
-10 14 -25 28 -33 31 -8 2 -27 15 -41 29 -34 31 -56 43 -131 66 -72 23 -186
33 -238 21z"/>
<path d="M2215 2489 c-118 -23 -126 -27 -200 -78 -50 -34 -145 -128 -145 -143
0 -5 -11 -25 -24 -46 -45 -70 -58 -131 -54 -260 3 -104 6 -124 32 -179 l29
-63 441 0 442 0 26 53 c40 79 51 137 46 241 -4 81 -10 103 -42 169 -20 41 -36
79 -36 83 0 10 -91 107 -112 119 -9 6 -41 26 -70 46 -29 20 -69 39 -88 42 -19
4 -55 11 -80 16 -53 12 -109 12 -165 0z"/>
<path d="M5194 2302 c-7 -4 -19 -23 -28 -42 -9 -19 -29 -53 -46 -75 -16 -22
-29 -43 -30 -47 0 -5 23 -8 52 -8 l52 0 87 90 87 90 -81 0 c-45 0 -87 -4 -93
-8z"/>
<path d="M6180 2088 l0 -212 -42 40 c-76 72 -196 92 -319 54 -134 -41 -208
-166 -211 -355 -3 -160 54 -297 152 -364 57 -39 98 -51 172 -51 74 0 145 27
208 80 l50 42 0 -51 0 -51 65 0 65 0 0 540 0 540 -70 0 -70 0 0 -212z m-141
-228 c50 -25 97 -85 122 -155 66 -189 -50 -397 -216 -383 -116 10 -187 118
-186 285 1 128 44 217 125 257 43 21 109 20 155 -4z"/>
<path d="M6510 2225 l0 -75 75 0 75 0 0 75 0 75 -75 0 -75 0 0 -75z"/>
<path d="M3540 1745 l0 -525 85 0 86 0 -3 419 c-2 231 0 417 4 415 4 -2 18
-39 32 -82 14 -43 39 -108 55 -146 17 -37 31 -74 31 -81 0 -12 16 -52 59 -150
10 -22 21 -53 25 -70 4 -16 18 -52 30 -80 13 -27 29 -68 36 -90 7 -22 22 -62
33 -88 l21 -48 80 3 79 3 27 75 c15 41 39 103 53 137 15 34 27 69 27 78 0 8 4
23 10 33 21 38 59 132 70 171 6 24 27 76 46 118 19 42 34 83 34 93 0 17 18 68
45 125 13 26 15 -22 15 -402 l0 -433 85 0 85 0 0 525 0 526 -136 -3 -135 -3
-18 -45 c-10 -25 -24 -63 -31 -85 -7 -22 -23 -62 -35 -90 -13 -27 -28 -69 -34
-92 -6 -22 -27 -75 -46 -118 -19 -42 -35 -85 -35 -96 0 -10 -4 -27 -10 -37
-22 -40 -70 -162 -70 -179 -1 -10 -7 -31 -14 -48 -13 -28 -14 -28 -21 -10 -4
11 -14 35 -21 54 -8 18 -14 41 -14 51 0 10 -13 47 -29 82 -16 36 -41 100 -56
143 -15 44 -38 102 -51 129 -13 27 -24 56 -24 63 0 8 -9 34 -20 59 -33 71 -43
96 -64 159 l-21 60 -132 3 -133 3 0 -526z"/>
<path d="M8509 2260 c-65 -16 -146 -59 -172 -90 -42 -50 -70 -136 -64 -202 8
-89 48 -152 132 -210 39 -26 76 -47 83 -48 16 0 100 -43 130 -67 67 -52 74
-60 82 -101 9 -53 -2 -117 -26 -143 -22 -25 -74 -48 -129 -59 -38 -8 -103 1
-206 28 -37 9 -37 9 -43 -27 -3 -20 -6 -50 -6 -68 0 -30 3 -32 58 -48 186 -55
382 -7 468 115 38 54 39 58 42 154 4 87 1 103 -19 143 -25 48 -132 153 -157
153 -16 0 -139 67 -148 81 -3 5 -14 9 -25 9 -31 0 -79 75 -79 124 0 46 26 93
62 112 31 18 211 17 261 0 45 -16 46 -15 50 63 l2 55 -45 13 c-57 18 -204 25
-251 13z"/>
<path d="M10595 2135 c-5 -2 -22 -6 -37 -9 -17 -4 -39 -23 -58 -52 -54 -78
-38 -169 39 -221 53 -36 93 -39 148 -12 52 26 93 88 93 142 0 33 -41 114 -67
132 -19 13 -100 27 -118 20z m86 -36 c89 -45 94 -184 8 -228 -51 -27 -84 -26
-133 2 -87 49 -83 173 7 227 41 25 68 25 118 -1z"/>
<path d="M10570 1985 c0 -73 3 -96 13 -93 6 3 13 21 15 41 2 20 7 37 12 37 15
0 40 -30 46 -56 4 -15 13 -24 25 -24 24 0 24 7 -1 48 -18 30 -19 38 -8 68 15
43 1 60 -59 70 l-43 7 0 -98z m80 41 c0 -16 -34 -31 -50 -21 -22 14 -10 35 20
35 19 0 30 -5 30 -14z"/>
<path d="M5043 1968 c-63 -20 -130 -71 -166 -128 -81 -127 -71 -393 19 -508
38 -48 59 -63 144 -104 84 -41 245 -37 368 9 l42 16 0 53 c0 63 -8 88 -24 76
-36 -28 -151 -62 -210 -62 -64 0 -132 26 -179 68 -25 23 -67 113 -67 145 l0
27 265 0 c242 0 265 1 265 17 0 9 -5 57 -11 107 -14 107 -43 172 -104 231 -74
73 -213 94 -342 53z m224 -125 c41 -32 67 -78 78 -136 l7 -37 -191 0 c-218 0
-209 -5 -166 89 40 86 96 123 177 118 46 -3 65 -9 95 -34z"/>
<path d="M7058 1967 c-39 -14 -80 -36 -99 -55 -18 -18 -37 -32 -41 -32 -5 0
-14 -12 -20 -27 -7 -16 -20 -39 -29 -53 -33 -49 -52 -138 -47 -226 4 -67 10
-94 38 -150 45 -92 87 -134 176 -180 68 -34 87 -39 158 -42 48 -2 99 2 126 10
l45 14 3 53 c5 79 1 84 -50 61 -103 -47 -235 -10 -296 81 -100 152 -54 361 96
438 50 25 130 28 192 6 24 -8 44 -14 46 -13 1 2 4 28 5 58 l4 54 -40 12 c-68
21 -191 17 -267 -9z"/>
<path d="M7715 1980 c-16 -5 -46 -13 -66 -18 -19 -5 -47 -17 -61 -26 -25 -16
-26 -21 -21 -74 3 -31 7 -59 9 -61 2 -3 15 5 27 17 54 51 190 76 266 49 48
-17 92 -75 98 -130 l5 -45 -123 -4 c-97 -4 -137 -10 -184 -28 -33 -13 -62 -26
-65 -29 -3 -3 -18 -13 -35 -21 -43 -22 -85 -109 -85 -176 0 -72 32 -141 85
-181 51 -38 101 -53 181 -53 92 0 152 26 227 97 16 16 17 14 17 -30 l0 -47 63
0 63 0 -4 273 c-3 304 -13 359 -75 425 -56 58 -220 90 -322 62z m255 -462 c0
-84 -28 -133 -95 -170 -54 -30 -129 -37 -168 -17 -47 25 -77 67 -77 109 0 84
102 139 258 140 l82 0 0 -62z"/>
<path d="M10110 1976 c-14 -9 -33 -15 -42 -16 -9 0 -32 -21 -50 -46 l-33 -46
-3 51 -3 51 -65 0 -64 0 0 -375 0 -375 69 0 69 0 4 228 c5 246 15 301 69 358
49 52 86 67 149 61 l57 -5 6 56 c3 31 4 59 1 61 -13 14 -140 11 -164 -3z"/>
<path d="M6520 1595 l0 -375 70 0 70 0 0 375 0 375 -70 0 -70 0 0 -375z"/>
<path d="M9012 1683 l3 -288 31 -55 c17 -30 50 -69 73 -87 112 -86 284 -68
376 40 l35 41 0 -57 0 -57 65 0 65 0 0 375 0 375 -69 0 -69 0 -4 -237 c-3
-248 -2 -240 -50 -338 -17 -36 -79 -68 -140 -73 -51 -4 -61 -1 -102 28 -25 18
-48 40 -51 49 -13 42 -25 224 -25 389 l0 182 -71 0 -70 0 3 -287z"/>
<path d="M2491 1669 c-77 -10 -190 -54 -236 -92 -79 -65 -84 -71 -76 -108 9
-40 68 -221 122 -374 22 -60 39 -118 39 -127 0 -9 18 -65 40 -125 22 -59 40
-116 40 -125 0 -9 5 -28 11 -42 10 -21 21 -26 66 -32 164 -20 364 65 458 194
18 25 48 75 66 111 l34 66 0 145 c-1 157 -4 170 -78 286 -27 44 -132 143 -169
161 -64 30 -130 53 -169 58 -85 11 -94 12 -148 4z"/>
<path d="M905 1619 c-22 -11 -47 -28 -55 -38 -8 -10 -30 -28 -47 -40 -18 -12
-33 -28 -33 -34 0 -7 -16 -31 -35 -55 -34 -44 -58 -109 -78 -215 -11 -59 -2
-139 25 -237 13 -46 67 -140 81 -140 4 0 7 -6 7 -14 0 -17 53 -65 125 -112
159 -106 429 -93 579 27 6 5 26 20 44 35 17 14 32 32 32 39 0 8 6 18 14 22 33
20 106 186 106 243 0 23 -65 87 -97 96 -13 3 -23 10 -23 14 0 4 -28 27 -62 50
-35 24 -81 59 -102 77 -22 18 -46 33 -53 33 -7 0 -13 4 -13 9 0 4 -30 29 -67
54 -38 25 -83 59 -102 76 -19 17 -40 31 -46 31 -7 0 -20 9 -30 20 -21 23 -108
80 -121 80 -5 -1 -27 -10 -49 -21z"/>
<path d="M2004 1092 c-27 -19 -51 -38 -54 -42 -3 -4 -16 -13 -29 -20 -13 -7
-48 -31 -77 -54 -100 -78 -154 -116 -162 -116 -4 0 -21 -13 -38 -28 -16 -16
-42 -37 -59 -48 -42 -26 -109 -78 -113 -86 -2 -5 -9 -8 -15 -8 -7 0 -28 -14
-47 -31 -19 -17 -43 -37 -54 -44 -17 -13 -18 -18 -7 -62 7 -26 20 -66 30 -88
10 -22 23 -51 28 -65 17 -39 80 -111 142 -159 78 -62 189 -96 311 -96 178 0
329 86 425 240 53 84 74 160 75 265 0 115 -39 252 -84 289 -9 8 -16 18 -16 23
0 13 -42 68 -52 68 -5 0 -24 15 -43 33 -19 19 -52 41 -73 49 -39 15 -39 15
-88 -20z"/>
<path d="M4427 883 c-4 -3 -7 -75 -7 -160 0 -146 1 -153 20 -153 19 0 20 7 20
160 0 127 -3 160 -13 160 -8 0 -17 -3 -20 -7z"/>
<path d="M7570 730 c0 -136 2 -160 15 -160 13 0 15 24 15 160 0 136 -2 160
-15 160 -13 0 -15 -24 -15 -160z"/>
<path d="M8540 730 c0 -136 2 -160 15 -160 12 0 15 15 15 79 0 71 2 82 22 95
31 22 65 20 78 -3 5 -11 10 -54 10 -95 0 -61 3 -76 15 -76 21 0 22 167 1 195
-14 19 -62 24 -103 10 -22 -7 -23 -5 -23 54 0 48 -3 61 -15 61 -13 0 -15 -24
-15 -160z"/>
<path d="M3540 725 l0 -155 95 0 c78 0 95 3 95 15 0 12 -14 15 -70 15 l-70 0
0 50 0 50 55 0 c48 0 55 2 55 20 0 18 -7 20 -55 20 l-55 0 0 55 0 55 70 0 c56
0 70 3 70 15 0 12 -17 15 -95 15 l-95 0 0 -155z"/>
<path d="M5197 866 c-6 -16 11 -36 30 -36 7 0 13 11 13 25 0 18 -5 25 -19 25
-10 0 -21 -6 -24 -14z"/>
<path d="M6052 857 c-25 -26 -28 -37 -9 -37 12 1 67 45 67 55 0 14 -39 2 -58
-18z"/>
<path d="M6330 824 c0 -53 -1 -55 -22 -48 -29 10 -56 9 -89 -4 -23 -9 -28 -19
-34 -61 -8 -62 0 -103 26 -126 23 -22 75 -22 98 -1 22 20 31 20 31 1 0 -8 7
-15 15 -15 13 0 15 24 15 155 0 148 -1 155 -20 155 -18 0 -20 -7 -20 -56z
m-12 -76 c7 -7 12 -38 12 -70 0 -52 -3 -60 -24 -69 -35 -16 -75 -3 -87 28 -12
31 -3 81 19 106 17 20 62 23 80 5z"/>
<path d="M6437 873 c-24 -23 12 -55 38 -33 12 10 13 16 4 26 -12 15 -31 18
-42 7z"/>
<path d="M7677 867 c-3 -8 -2 -20 3 -27 11 -18 42 -4 38 17 -4 22 -34 29 -41
10z"/>
<path d="M7920 824 c0 -50 -2 -55 -17 -49 -39 16 -52 16 -83 0 -63 -32 -77
-137 -25 -185 29 -27 78 -29 106 -4 17 16 19 16 19 1 0 -10 8 -17 20 -17 19 0
20 7 20 155 0 148 -1 155 -20 155 -18 0 -20 -7 -20 -56z m-12 -76 c7 -7 12
-38 12 -70 0 -53 -2 -60 -25 -70 -18 -8 -35 -9 -53 -2 -24 8 -27 15 -30 58 -4
60 17 96 56 96 16 0 33 -5 40 -12z"/>
<path d="M4023 775 c-27 -12 -33 -22 -38 -60 -15 -96 14 -145 86 -145 48 0 69
8 69 27 0 12 -8 13 -39 8 -52 -9 -79 7 -87 50 -13 70 31 120 90 104 33 -9 45
-4 29 12 -17 17 -76 19 -110 4z"/>
<path d="M4232 775 c-84 -37 -63 -190 28 -209 33 -6 92 13 105 34 5 9 -6 10
-48 5 -69 -9 -97 4 -97 45 l0 30 75 0 c68 0 75 2 75 20 0 35 -21 66 -54 78
-40 15 -43 15 -84 -3z m76 -21 c12 -8 22 -24 22 -35 0 -16 -7 -19 -56 -19 -52
0 -55 2 -52 22 2 12 14 28 28 35 32 16 31 16 58 -3z"/>
<path d="M4573 778 c-79 -26 -70 -184 12 -207 42 -11 100 2 109 25 5 13 -2 14
-48 9 -47 -6 -57 -4 -75 14 -12 12 -21 30 -21 41 0 18 7 20 75 20 81 0 81 0
69 57 -5 24 -14 33 -44 42 -20 6 -39 11 -41 10 -2 -1 -18 -6 -36 -11z m85 -31
c6 -5 12 -18 12 -28 0 -17 -8 -19 -60 -19 -64 0 -66 1 -49 31 18 35 63 42 97
16z"/>
<path d="M4823 775 c-18 -8 -33 -10 -33 -5 0 6 -7 10 -15 10 -12 0 -15 -18
-15 -105 0 -87 3 -105 15 -105 12 0 15 15 15 79 0 71 2 82 22 95 27 19 59 21
76 4 7 -7 12 -44 12 -95 0 -67 3 -83 15 -83 12 0 15 18 15 99 l0 99 -31 11
c-39 13 -36 13 -76 -4z"/>
<path d="M5038 779 c-33 -13 -62 -79 -54 -125 4 -17 17 -43 31 -58 30 -33 91
-36 126 -7 l24 20 -63 -2 c-72 -2 -82 6 -82 66 0 68 38 105 89 85 14 -5 32 -6
40 -3 12 5 7 10 -18 21 -38 16 -55 16 -93 3z"/>
<path d="M5350 777 c-19 -7 -33 -16 -30 -22 3 -5 10 -9 15 -8 6 1 23 5 39 9
22 5 32 2 43 -11 23 -33 17 -55 -16 -55 -67 0 -109 -38 -97 -86 10 -39 46 -50
92 -28 27 13 39 15 42 6 2 -7 10 -12 18 -12 11 0 14 19 14 90 0 82 -2 91 -22
104 -36 22 -60 26 -98 13z m80 -135 c0 -21 -7 -30 -32 -41 -36 -16 -63 -5 -63
25 0 13 12 23 35 31 52 18 60 16 60 -15z"/>
<path d="M5668 774 c-16 -8 -28 -10 -28 -4 0 5 -7 10 -15 10 -12 0 -15 -18
-15 -105 0 -98 1 -105 20 -105 18 0 20 7 20 83 0 87 8 107 45 107 37 0 45 -20
45 -107 0 -76 2 -83 20 -83 18 0 20 7 20 78 0 92 12 115 55 110 l30 -3 3 -92
c3 -86 4 -93 23 -93 20 0 21 5 17 91 -3 82 -5 92 -28 109 -32 25 -61 25 -94
-1 -14 -11 -26 -16 -26 -11 0 8 -44 32 -58 32 -4 -1 -19 -8 -34 -16z"/>
<path d="M6003 774 c-18 -7 -37 -22 -43 -33 -15 -30 -12 -104 6 -130 32 -45
111 -60 152 -28 25 19 11 28 -37 21 -41 -5 -52 -3 -70 15 -11 11 -21 30 -21
41 0 18 7 20 75 20 68 0 75 2 75 20 0 35 -22 69 -53 80 -37 12 -44 12 -84 -6z
m95 -26 c6 -6 12 -19 12 -29 0 -17 -8 -19 -60 -19 -67 0 -73 8 -35 46 26 25
52 26 83 2z"/>
<path d="M6581 776 c-56 -31 -69 -123 -25 -175 21 -26 33 -31 67 -31 39 1 77
18 77 34 0 4 -18 5 -40 1 -57 -10 -77 0 -84 40 -11 57 2 102 32 113 15 5 36 6
47 1 47 -18 64 -1 20 19 -33 15 -64 15 -94 -2z"/>
<path d="M6783 778 c-18 -6 -33 -18 -33 -26 0 -10 6 -12 23 -7 70 22 97 13 97
-30 0 -19 -7 -23 -40 -28 -62 -8 -92 -32 -88 -70 2 -23 10 -35 31 -45 25 -12
33 -11 68 6 30 15 39 16 39 6 0 -8 5 -14 10 -14 12 0 14 169 2 186 -9 15 -47
34 -64 33 -7 -1 -28 -6 -45 -11z m87 -137 c0 -25 -6 -31 -35 -41 -63 -21 -92
29 -32 55 51 23 67 19 67 -14z"/>
<path d="M7182 777 c-44 -16 -52 -31 -52 -101 0 -52 3 -61 28 -82 32 -29 102
-33 126 -8 9 8 16 17 16 19 0 1 -25 2 -54 1 -31 0 -60 4 -67 11 -7 7 -12 33
-13 58 -1 39 3 51 26 70 23 20 33 22 60 15 38 -12 50 -4 24 16 -23 17 -49 17
-94 1z"/>
<path d="M7383 779 c-19 -6 -33 -16 -33 -25 0 -12 5 -14 18 -9 56 24 92 12 92
-30 0 -19 -7 -23 -42 -28 -29 -4 -50 -14 -65 -32 -29 -33 -29 -40 2 -71 27
-27 64 -25 98 4 15 14 17 13 17 -1 0 -10 8 -17 20 -17 18 0 20 7 20 63 0 94
-13 131 -53 145 -18 7 -35 12 -38 11 -2 0 -19 -5 -36 -10z m77 -138 c0 -36
-45 -60 -79 -41 -34 17 -22 46 25 60 48 14 54 12 54 -19z"/>
<path d="M8066 776 c-37 -17 -55 -50 -56 -102 0 -78 73 -130 143 -101 61 26
56 39 -11 31 -55 -6 -61 -4 -76 17 -34 49 -24 59 59 59 68 0 75 2 75 20 0 35
-21 66 -54 78 -39 14 -43 14 -80 -2z m74 -16 c4 0 13 -13 19 -30 l10 -30 -59
0 -59 0 10 29 c10 30 31 42 57 35 8 -2 17 -4 22 -4z"/>
<path d="M9073 773 c-14 -9 -23 -11 -23 -4 0 6 -9 11 -20 11 -19 0 -20 -7 -20
-105 0 -98 1 -105 20 -105 18 0 20 7 20 78 0 86 14 112 59 112 29 0 41 -35 41
-121 0 -55 3 -69 15 -69 12 0 15 15 15 76 0 86 11 114 43 114 39 0 47 -19 47
-107 0 -76 2 -83 20 -83 18 0 20 7 20 88 0 94 -3 103 -39 122 -19 10 -31 10
-62 0 -30 -10 -45 -11 -64 -2 -33 15 -45 14 -72 -5z"/>
<path d="M9413 777 c-41 -16 -50 -25 -29 -33 10 -4 22 -2 29 5 20 20 64 13 71
-11 11 -41 7 -48 -24 -48 -64 0 -110 -43 -95 -88 12 -40 85 -49 112 -14 11 13
13 13 19 -1 3 -10 12 -17 20 -17 11 0 14 18 14 79 0 95 -4 107 -41 126 -32 17
-34 17 -76 2z m77 -135 c0 -45 -72 -72 -85 -32 -11 33 13 52 73 59 7 0 12 -11
12 -27z"/>
<path d="M9662 779 c-13 -5 -35 -6 -48 -3 l-24 6 0 -106 c0 -99 1 -106 20
-106 18 0 20 7 20 76 0 94 10 114 54 114 41 0 46 -13 46 -117 0 -66 2 -73 20
-73 18 0 20 7 20 88 0 93 -3 103 -37 121 -25 13 -40 13 -71 0z"/>
<path d="M9873 777 c-42 -16 -50 -25 -29 -33 10 -4 22 -2 29 5 6 6 24 11 39
11 21 0 31 -6 38 -26 15 -40 13 -44 -27 -44 -55 0 -103 -32 -103 -69 0 -16 7
-34 16 -42 22 -18 81 -14 105 7 17 16 19 16 19 1 0 -10 7 -17 15 -17 24 0 21
160 -2 188 -23 27 -60 34 -100 19z m85 -134 c4 -26 -48 -58 -79 -48 -28 9 -21
46 11 62 35 18 64 12 68 -14z"/>
<path d="M3800 734 c34 -49 35 -74 3 -109 -46 -51 -47 -55 -21 -55 18 0 30 10
47 40 12 22 26 40 30 40 10 0 51 -56 51 -70 0 -5 12 -10 26 -10 26 0 26 8 -5
43 -36 43 -39 69 -13 112 14 22 30 43 36 47 6 4 0 8 -14 8 -19 0 -31 -10 -49
-42 l-24 -42 -18 23 c-11 13 -19 29 -19 36 0 13 -21 25 -46 25 -11 0 -6 -13
16 -46z"/>
<path d="M5200 675 c0 -98 1 -105 20 -105 19 0 20 7 20 105 0 98 -1 105 -20
105 -19 0 -20 -7 -20 -105z"/>
<path d="M6440 675 c0 -98 1 -105 20 -105 19 0 20 7 20 105 0 98 -1 105 -20
105 -19 0 -20 -7 -20 -105z"/>
<path d="M7680 675 c0 -87 3 -105 15 -105 12 0 15 18 15 105 0 87 -3 105 -15
105 -12 0 -15 -18 -15 -105z"/>
<path d="M8240 770 c0 -6 27 -10 61 -10 l60 0 -41 -57 c-22 -32 -52 -70 -65
-85 -40 -42 -33 -48 60 -48 69 0 85 3 85 15 0 12 -14 15 -62 15 -48 1 -59 3
-45 11 9 5 17 16 17 23 0 7 12 26 26 41 24 26 64 89 64 100 0 3 -36 5 -80 5
-47 0 -80 -4 -80 -10z"/>
<path d="M8770 706 c0 -90 11 -123 46 -136 21 -8 35 -7 65 8 31 15 39 16 39 6
0 -8 7 -14 15 -14 12 0 15 18 15 105 0 85 -3 105 -15 105 -11 0 -15 -18 -17
-82 -3 -79 -4 -82 -31 -91 -15 -5 -39 -6 -52 -3 -24 6 -25 9 -25 91 0 78 -2
85 -20 85 -18 0 -20 -7 -20 -74z"/>
<path d="M6960 596 c0 -8 5 -18 10 -21 6 -3 7 -17 4 -31 -3 -13 -3 -24 0 -24
11 0 37 70 31 80 -10 15 -45 12 -45 -4z"/>
</g>
</svg>
