<?xml version="1.0" standalone="no"?>
<!DOCTYPE svg PUBLIC "-//W3C//DTD SVG 20010904//EN"
 "http://www.w3.org/TR/2001/REC-SVG-20010904/DTD/svg10.dtd">
<svg version="1.0" xmlns="http://www.w3.org/2000/svg"
 width="3840.000000pt" height="2160.000000pt" viewBox="0 0 3840.000000 2160.000000"
 preserveAspectRatio="xMidYMid meet">
<metadata>
Created by potrace 1.16, written by Peter Selinger 2001-2019
</metadata>
<g transform="translate(0.000000,2160.000000) scale(0.100000,-0.100000)"
fill="#000000" stroke="none">
<path d="M10260 20792 c0 -4 -28 -14 -62 -21 -70 -14 -208 -68 -278 -109 -25
-14 -86 -67 -135 -117 -70 -69 -101 -109 -134 -173 -23 -45 -44 -90 -46 -100
-3 -9 -16 -59 -30 -111 -19 -72 -25 -117 -25 -201 0 -77 -4 -110 -12 -113 -10
-4 -10 -7 -1 -14 7 -5 23 -47 34 -94 21 -84 59 -170 85 -197 8 -7 14 -18 14
-24 0 -6 10 -21 23 -33 12 -12 33 -35 47 -50 14 -16 51 -50 82 -76 91 -76 95
-81 100 -126 2 -24 0 -43 -3 -43 -4 0 -3 -15 1 -32 27 -101 42 -165 41 -180 0
-10 4 -18 9 -18 4 0 11 -11 14 -25 16 -65 154 -269 243 -360 49 -50 132 -125
138 -125 2 0 39 -22 82 -49 80 -49 163 -91 182 -91 6 0 11 -5 11 -11 0 -5 5
-7 10 -4 6 4 16 3 23 -3 7 -5 46 -15 87 -22 41 -7 86 -14 100 -17 14 -2 37 -4
53 -4 18 0 27 -6 27 -16 0 -33 110 -180 124 -165 3 3 6 1 6 -5 0 -9 59 -44 83
-49 4 -1 10 -3 15 -4 4 -1 10 -2 15 -1 4 0 7 -5 7 -13 0 -11 -28 -15 -127 -21
-71 -3 -173 -13 -228 -21 -109 -15 -322 -69 -342 -86 -7 -6 -13 -8 -13 -5 0 8
-113 -41 -167 -72 -24 -14 -43 -28 -43 -33 0 -4 -7 -8 -15 -8 -8 0 -15 -4 -15
-10 0 -5 -7 -10 -15 -10 -9 0 -18 -7 -21 -15 -4 -8 -12 -15 -18 -15 -18 0
-120 -106 -161 -167 -20 -29 -33 -53 -29 -53 3 0 -1 -11 -10 -24 -8 -14 -21
-55 -28 -91 -11 -58 -17 -69 -43 -83 -80 -41 -195 -128 -195 -147 0 -4 -8 -15
-18 -24 -10 -9 -22 -23 -25 -31 -4 -8 -16 -28 -27 -45 -35 -54 -58 -113 -80
-202 -20 -77 -22 -104 -17 -228 6 -143 9 -169 19 -195 4 -8 12 -33 18 -55 22
-74 83 -189 132 -248 26 -32 48 -63 48 -68 0 -5 5 -9 11 -9 6 0 25 -14 42 -32
18 -17 59 -49 92 -70 32 -21 63 -44 67 -51 4 -7 11 -12 15 -13 26 -2 63 -17
63 -25 0 -5 11 -9 25 -9 14 0 25 -4 25 -8 0 -5 6 -9 13 -9 17 0 82 -11 144
-24 69 -14 183 -18 206 -7 12 6 17 5 17 -4 0 -10 2 -10 8 -1 4 7 23 14 42 17
19 3 60 12 90 21 30 8 60 17 66 18 6 2 23 11 37 20 15 10 27 14 27 10 0 -5 4
-3 8 2 4 6 26 22 49 37 40 26 45 27 93 16 27 -6 50 -14 50 -17 0 -3 10 -7 23
-7 12 -1 61 -5 109 -9 165 -14 370 33 511 116 73 44 197 154 224 200 16 26 22
28 77 28 62 0 79 3 176 23 66 14 59 12 93 26 73 30 136 66 165 93 18 17 32 27
32 22 0 -4 36 28 81 72 84 84 158 190 190 275 21 56 26 159 7 178 -27 27 -65
13 -114 -41 -71 -76 -155 -142 -235 -182 -38 -20 -69 -32 -69 -29 0 3 -11 -1
-25 -10 -14 -9 -25 -14 -25 -12 0 3 -18 -1 -40 -9 -22 -8 -40 -12 -40 -8 0 3
-7 0 -15 -7 -8 -6 -18 -9 -24 -6 -5 3 -11 2 -13 -3 -3 -10 -68 -17 -241 -27
-112 -7 -119 -9 -138 -33 -10 -14 -29 -39 -42 -56 -41 -55 -149 -155 -167
-155 -5 0 -10 -4 -10 -8 0 -13 -70 -40 -161 -64 -69 -17 -101 -20 -179 -15
-112 8 -257 46 -312 82 -42 28 -42 28 -91 -16 -32 -29 -112 -68 -172 -84 -174
-45 -382 16 -475 139 -113 149 -130 332 -45 494 23 45 167 194 183 190 24 -7
50 25 61 77 32 141 143 287 281 368 69 40 207 97 249 102 15 2 28 4 31 5 3 2
9 2 14 1 4 -1 13 3 20 8 20 16 187 30 306 26 114 -5 115 -5 135 21 28 37 48
57 70 71 91 56 179 102 186 97 5 -3 9 -1 9 4 0 12 91 37 185 52 87 14 123 28
135 51 25 47 14 108 -23 128 -12 6 -74 24 -138 40 -202 50 -338 131 -439 261
-27 36 -55 71 -60 78 -6 6 -27 43 -46 81 l-35 70 -67 6 c-37 4 -98 14 -137 22
-71 16 -226 70 -235 83 -3 4 -15 10 -27 14 -13 4 -23 12 -23 17 0 5 -7 9 -15
9 -8 0 -15 5 -15 10 0 6 -5 10 -12 10 -17 0 -188 177 -188 195 0 8 -4 15 -10
15 -5 0 -10 7 -10 15 0 8 -4 15 -8 15 -16 0 -72 108 -102 197 -18 55 -35 136
-42 199 l-12 106 -40 20 c-47 24 -146 115 -146 134 0 8 -4 14 -8 14 -4 0 -20
24 -35 53 -62 123 -62 261 -1 378 49 94 141 189 221 228 35 17 66 31 70 30 5
-1 10 0 13 1 20 7 40 7 40 -1 0 -6 6 -7 13 -2 12 8 109 6 161 -3 55 -9 102
-34 151 -81 8 -7 18 -13 24 -13 6 0 20 -15 31 -32 11 -18 20 -29 20 -24 0 6 6
2 13 -8 10 -14 21 -16 57 -10 54 9 309 10 365 1 22 -3 69 -16 105 -28 36 -11
74 -23 84 -25 29 -5 174 -90 224 -131 76 -62 233 -288 217 -314 -4 -5 -1 -9 4
-9 6 0 10 -3 9 -7 -1 -5 4 -21 11 -38 7 -16 13 -40 13 -53 0 -12 4 -25 9 -28
5 -3 9 -16 9 -28 0 -22 22 -51 31 -41 3 2 36 -3 74 -11 39 -8 79 -17 90 -19
42 -9 185 -87 185 -100 0 -8 5 -15 10 -15 29 0 116 -115 170 -224 35 -71 89
-251 103 -343 4 -30 39 -74 54 -68 7 2 13 0 13 -4 0 -11 19 -9 46 7 26 14 35
37 73 182 46 178 62 209 198 363 19 22 26 46 34 114 17 152 19 162 39 213 52
133 74 163 232 326 79 82 185 151 214 140 7 -3 14 -1 14 5 0 6 5 7 10 4 6 -3
10 -2 10 3 0 17 109 39 224 46 33 1 62 8 64 14 6 20 56 89 95 131 44 49 129
103 166 107 14 1 28 3 31 4 3 1 8 2 13 1 4 0 7 2 7 7 0 8 114 7 173 -2 61 -9
108 -28 168 -68 79 -52 130 -114 163 -199 71 -181 32 -367 -105 -495 -36 -35
-40 -43 -35 -74 3 -19 7 -44 8 -55 2 -11 7 -23 13 -27 5 -4 9 -58 10 -120 0
-91 -4 -127 -23 -188 -13 -41 -30 -82 -37 -90 -7 -8 -20 -30 -29 -48 -24 -47
-102 -127 -162 -167 -28 -19 -92 -51 -142 -71 -90 -37 -91 -38 -98 -78 -9 -47
-11 -55 -14 -58 -1 -2 -3 -10 -5 -18 -6 -35 -52 -129 -89 -185 -88 -134 -201
-228 -363 -305 -143 -68 -163 -83 -163 -126 0 -39 28 -73 63 -75 91 -5 186 3
267 21 114 26 108 24 145 39 17 7 35 14 42 15 12 2 76 41 156 94 59 40 162
154 190 213 15 30 33 81 42 113 8 32 16 59 17 60 2 1 46 22 99 48 219 109 432
389 465 613 8 50 5 235 -4 279 l-10 49 49 60 c52 65 83 125 120 232 21 62 24
87 23 220 0 143 -2 154 -33 238 -57 155 -108 233 -230 350 -65 62 -100 86
-184 127 -57 27 -133 57 -168 65 -35 9 -72 20 -81 25 -23 13 -253 13 -276 0
-9 -5 -44 -16 -77 -25 -182 -50 -315 -137 -438 -287 -34 -41 -44 -47 -90 -53
-51 -7 -182 -41 -202 -53 -5 -4 -15 -7 -22 -8 -57 -9 -234 -147 -316 -247 -21
-26 -44 -52 -51 -59 -50 -51 -117 -178 -141 -268 -3 -8 -13 -46 -24 -83 -11
-38 -25 -114 -31 -170 -6 -56 -14 -105 -16 -109 -14 -22 -39 7 -48 54 -3 13
-5 24 -7 26 -1 1 -2 6 -3 11 -3 20 -69 112 -102 140 -43 38 -141 86 -209 102
-88 20 -89 21 -123 110 -17 46 -46 108 -64 138 -18 29 -37 62 -43 72 -5 11
-13 19 -18 19 -4 0 -5 5 -2 10 3 6 1 10 -4 10 -6 0 -11 6 -11 14 0 8 -7 16
-15 20 -8 3 -15 10 -15 17 0 22 -99 134 -155 174 -16 11 -34 26 -41 33 -7 6
-17 12 -23 12 -6 0 -11 5 -11 10 0 6 -5 10 -10 10 -6 0 -37 18 -69 40 -70 48
-165 85 -286 112 -73 16 -119 19 -248 17 l-158 -3 -37 29 c-20 16 -50 37 -67
45 -49 26 -80 45 -86 53 -10 13 -161 68 -206 74 -24 3 -43 10 -43 14 0 5 -58
9 -130 9 -71 0 -130 -4 -130 -8z"/>
<path d="M20150 20792 c0 -4 -37 -13 -82 -19 -46 -6 -123 -24 -173 -38 -49
-15 -97 -28 -106 -30 -9 -2 -47 -16 -85 -31 -157 -62 -273 -133 -392 -241 -26
-23 -52 -43 -59 -43 -17 0 -145 -145 -209 -236 -71 -101 -116 -196 -199 -418
-39 -104 -90 -218 -123 -275 -30 -53 -75 -131 -99 -173 -23 -43 -65 -113 -92
-155 -27 -43 -78 -127 -113 -188 -66 -115 -86 -149 -155 -262 -24 -38 -43 -72
-43 -76 0 -4 140 -7 310 -7 l310 0 -36 -72 c-20 -40 -39 -75 -43 -78 -9 -8
-211 -407 -211 -418 0 -5 12 -7 28 -5 15 3 35 5 45 6 9 1 17 5 17 9 0 4 16 5
35 3 25 -4 37 -1 41 9 3 9 15 13 30 10 13 -2 24 0 24 5 0 6 7 8 15 5 8 -4 21
-1 29 5 7 6 15 8 18 6 3 -3 27 -1 54 6 27 6 65 12 84 14 19 2 35 4 35 5 0 3
28 7 97 13 32 3 110 11 175 18 127 13 408 7 478 -10 22 -6 56 -13 75 -16 19
-4 40 -8 45 -9 6 -1 17 -6 25 -11 8 -5 17 -10 20 -10 20 -3 50 -18 50 -26 0
-5 5 -9 11 -9 14 0 39 -26 39 -41 0 -7 3 -10 6 -6 9 9 75 -73 68 -84 -3 -5 -1
-9 4 -9 19 0 70 -144 87 -250 3 -14 9 -43 14 -64 5 -22 8 -43 5 -47 -2 -4 0
-10 5 -13 5 -3 12 -32 17 -63 4 -32 9 -65 11 -73 1 -8 5 -33 7 -55 3 -22 9
-58 15 -79 5 -22 8 -43 6 -47 -3 -4 0 -20 5 -35 5 -16 12 -51 15 -79 2 -27 11
-88 19 -135 7 -47 11 -91 9 -98 -3 -7 -1 -18 5 -25 6 -6 12 -34 15 -62 3 -27
15 -99 27 -160 12 -60 21 -129 21 -152 0 -24 3 -43 8 -43 9 0 31 -112 31 -157
0 -16 3 -33 7 -37 4 -3 8 -17 10 -29 4 -28 29 -143 50 -226 9 -35 18 -74 19
-85 5 -28 57 -175 73 -204 6 -12 9 -27 6 -32 -3 -6 -1 -10 4 -10 6 0 11 -5 11
-10 0 -12 30 -79 138 -305 94 -195 109 -219 285 -456 48 -65 87 -122 87 -127
0 -6 7 -12 15 -16 8 -3 15 -12 15 -21 0 -8 5 -15 10 -15 6 0 14 -8 17 -17 4
-10 15 -27 25 -38 10 -11 31 -34 46 -51 15 -17 47 -53 72 -81 25 -27 70 -78
100 -112 56 -64 260 -267 363 -362 32 -30 71 -66 85 -80 15 -14 34 -30 43 -35
20 -11 115 -92 177 -151 25 -24 49 -43 53 -43 4 0 25 -16 46 -36 21 -19 50
-42 66 -50 15 -8 27 -19 27 -25 0 -6 5 -7 10 -4 6 3 10 1 10 -5 0 -6 4 -9 9
-6 5 3 11 0 14 -7 7 -18 57 -19 84 -2 17 11 23 25 23 51 0 31 -14 49 -132 172
-149 154 -247 263 -363 402 -44 52 -90 106 -103 120 -93 95 -390 530 -513 750
-219 391 -276 520 -396 890 -65 204 -172 759 -187 977 -1 18 -5 35 -8 39 -4 3
-4 12 -2 18 3 7 -7 98 -21 202 -15 104 -28 203 -31 219 -2 17 -6 53 -9 80 -8
82 -44 253 -75 362 -67 231 -176 399 -321 493 -65 42 -192 98 -236 104 -15 3
-39 7 -53 10 -131 27 -368 34 -515 16 -44 -5 -102 -12 -130 -15 -111 -12 -142
-16 -180 -25 -22 -5 -41 -7 -43 -5 -2 2 17 38 42 80 25 42 46 78 46 80 0 6 96
169 131 224 16 25 29 50 29 58 0 10 -45 13 -226 13 l-226 0 25 43 c13 23 39
69 57 102 18 33 57 96 85 140 72 110 88 145 130 276 77 238 140 361 278 534
57 72 225 198 345 259 53 27 226 87 240 84 4 -1 23 2 42 7 19 4 51 9 70 11 19
1 35 3 35 4 0 1 39 2 88 3 48 1 87 0 87 -3 0 -3 33 -5 73 -5 83 0 166 -12 185
-27 7 -6 15 -8 18 -5 7 7 68 -11 128 -38 28 -12 75 -33 104 -45 28 -12 52 -26
52 -30 0 -4 11 -11 24 -14 13 -3 47 -22 76 -41 29 -19 55 -35 58 -35 4 0 69
-47 127 -92 78 -61 205 -182 205 -196 0 -5 11 -15 25 -22 14 -7 25 -19 25 -27
0 -7 4 -13 9 -13 18 0 236 -236 306 -330 24 -33 203 -254 294 -365 86 -104
113 -135 188 -214 34 -36 63 -72 63 -78 0 -7 6 -13 13 -13 7 0 27 -15 43 -32
42 -47 164 -158 173 -158 4 0 17 -11 28 -24 11 -13 35 -32 52 -42 17 -10 31
-22 31 -26 0 -4 5 -8 11 -8 5 0 27 -13 47 -28 20 -16 64 -49 97 -73 83 -61
209 -162 213 -171 2 -5 10 -8 18 -8 8 0 17 -7 20 -15 4 -8 12 -15 20 -15 7 0
21 -11 30 -25 9 -14 20 -25 26 -25 5 0 28 -18 51 -39 23 -22 67 -60 97 -86
171 -148 509 -482 690 -684 41 -45 86 -95 100 -110 14 -14 45 -51 70 -81 25
-30 50 -59 56 -65 6 -5 33 -37 60 -70 27 -33 59 -71 72 -85 12 -14 25 -33 28
-42 3 -10 12 -18 20 -18 8 0 14 -4 14 -8 0 -5 11 -22 25 -38 14 -16 25 -35 25
-43 0 -8 3 -12 6 -8 6 6 84 -86 84 -98 0 -3 16 -22 35 -42 19 -20 35 -42 35
-50 0 -7 4 -13 9 -13 9 0 187 -237 223 -296 30 -50 43 -68 54 -79 6 -5 30 -37
53 -70 23 -33 66 -94 96 -135 30 -41 62 -88 71 -103 26 -49 241 -371 263 -396
11 -13 21 -30 21 -37 0 -7 4 -14 9 -16 10 -4 91 -136 91 -149 0 -5 4 -9 9 -9
5 0 13 -9 16 -20 4 -11 17 -32 31 -47 13 -14 24 -30 24 -34 0 -5 26 -46 59
-91 59 -83 122 -184 169 -268 44 -78 47 -83 62 -102 17 -21 54 -81 72 -118 7
-14 21 -33 30 -42 10 -10 32 -43 50 -74 18 -31 43 -72 55 -92 13 -21 32 -55
43 -77 11 -22 49 -85 84 -140 91 -142 176 -285 176 -295 0 -5 6 -15 14 -22 7
-8 21 -30 31 -48 10 -19 21 -37 24 -40 3 -3 17 -27 31 -55 14 -27 28 -52 31
-55 4 -3 19 -27 33 -55 15 -27 43 -75 61 -105 19 -30 34 -60 35 -66 0 -6 7
-17 15 -24 8 -7 15 -18 15 -25 0 -7 17 -39 39 -71 21 -33 65 -108 96 -169 32
-60 62 -116 68 -123 5 -7 23 -36 39 -65 62 -114 88 -167 81 -167 -5 0 -3 -4 2
-8 6 -4 24 -33 40 -64 15 -32 32 -58 37 -58 5 0 7 -4 4 -9 -4 -5 -2 -11 2 -13
5 -1 26 -39 49 -83 22 -44 72 -142 112 -217 40 -76 69 -138 64 -138 -4 0 -3
-4 3 -8 13 -8 57 -92 49 -92 -4 0 3 -13 15 -30 12 -16 18 -30 13 -30 -4 0 -3
-4 3 -8 12 -8 224 -427 229 -453 3 -16 75 -170 152 -324 49 -99 93 -205 93
-223 0 -7 3 -12 8 -12 7 0 44 -82 48 -106 1 -6 16 -44 34 -85 18 -41 33 -80
33 -86 0 -7 4 -13 9 -13 4 0 8 -5 8 -11 0 -5 13 -38 29 -72 78 -166 93 -201
112 -255 11 -31 21 -64 23 -73 3 -9 13 -36 24 -60 10 -24 27 -69 36 -99 9 -30
28 -79 42 -107 14 -29 23 -57 20 -62 -4 -5 -2 -11 3 -13 6 -1 22 -33 36 -71
l25 -67 -43 26 c-23 15 -54 35 -69 46 -16 11 -28 17 -28 13 0 -3 -12 6 -27 20
-15 14 -33 25 -39 25 -7 0 -14 6 -17 13 -2 7 -139 104 -303 215 -397 269 -488
333 -492 343 -2 5 -8 9 -13 9 -5 0 -18 9 -29 20 -11 11 -27 20 -35 20 -8 0
-15 4 -15 10 0 5 -15 17 -32 26 -18 9 -40 24 -49 33 -36 35 -104 88 -160 122
-32 20 -74 50 -93 67 -19 16 -56 45 -83 63 -54 37 -495 366 -648 483 -90 69
-138 108 -209 171 -40 35 -70 59 -131 104 -33 25 -66 52 -72 60 -7 8 -13 11
-13 7 0 -4 -19 12 -42 36 -42 42 -294 258 -302 258 -2 0 -19 15 -38 33 -18 17
-112 101 -208 186 -584 514 -1112 1063 -1585 1651 -60 74 -115 141 -123 149
-17 18 -162 210 -272 361 -46 63 -86 117 -90 120 -10 8 -164 236 -270 400 -52
80 -96 147 -99 150 -8 7 -27 37 -52 85 -12 22 -39 65 -60 96 -20 31 -63 100
-95 155 -31 54 -61 100 -65 102 -5 2 -9 9 -9 16 0 8 -9 24 -19 38 -18 22 -95
161 -186 333 -17 33 -52 96 -77 140 -58 104 -141 267 -276 545 -193 397 -229
474 -250 535 -60 175 -99 227 -155 206 -52 -20 -61 -58 -40 -160 7 -36 15 -77
17 -91 2 -14 6 -32 9 -40 3 -8 18 -64 32 -125 15 -60 31 -119 36 -130 6 -11
11 -31 13 -45 2 -14 6 -32 9 -40 3 -8 27 -82 53 -165 27 -82 52 -151 56 -153
4 -2 4 -10 1 -18 -3 -8 -1 -14 5 -14 6 0 14 -15 18 -32 10 -40 9 -39 16 -58 4
-8 14 -40 23 -70 10 -30 24 -67 31 -82 8 -14 14 -37 14 -51 0 -14 4 -27 8 -29
5 -1 25 -41 46 -88 21 -47 60 -129 87 -182 27 -54 49 -104 49 -112 0 -8 3 -16
8 -18 14 -6 73 -128 67 -138 -3 -6 -2 -10 3 -10 5 0 24 -33 42 -72 18 -40 36
-75 40 -78 3 -3 12 -21 20 -40 8 -19 20 -41 27 -49 8 -7 22 -29 32 -50 16 -29
114 -193 202 -336 10 -16 27 -46 36 -65 10 -19 23 -42 30 -50 26 -32 223 -321
223 -326 0 -3 16 -24 35 -47 19 -22 35 -47 35 -54 0 -7 4 -13 8 -13 4 0 15
-12 24 -27 9 -16 28 -41 42 -58 14 -16 26 -36 26 -42 0 -7 5 -13 10 -13 6 0
13 -7 17 -16 3 -9 21 -32 39 -52 18 -20 30 -41 27 -46 -4 -6 -3 -8 2 -4 8 8
125 -133 125 -151 0 -6 5 -11 10 -11 6 0 10 -5 10 -11 0 -6 9 -21 19 -33 79
-89 112 -127 144 -168 21 -26 43 -53 50 -60 7 -7 57 -67 112 -132 55 -66 118
-140 140 -165 117 -131 237 -263 290 -318 33 -34 74 -78 90 -98 17 -20 63 -69
104 -108 40 -40 99 -99 130 -131 51 -54 188 -192 314 -314 27 -26 68 -67 92
-92 24 -25 76 -74 116 -110 39 -36 104 -96 143 -133 39 -38 78 -74 88 -81 10
-7 48 -41 85 -77 37 -35 82 -75 99 -89 31 -26 159 -138 199 -175 11 -11 115
-98 231 -194 115 -95 218 -183 229 -195 11 -11 45 -41 75 -66 30 -25 64 -53
75 -63 11 -10 36 -28 55 -40 19 -12 42 -29 52 -39 10 -10 23 -18 28 -18 6 0
10 -7 10 -15 0 -8 4 -15 9 -15 6 0 25 -14 43 -31 18 -17 51 -43 73 -57 47 -31
166 -122 180 -138 16 -18 176 -138 225 -169 25 -15 47 -31 50 -35 9 -12 144
-115 201 -154 55 -36 58 -42 90 -129 18 -51 34 -95 35 -99 1 -5 3 -10 4 -13 3
-6 3 -6 14 -55 5 -19 13 -41 19 -48 5 -7 7 -15 3 -19 -3 -3 1 -14 9 -23 8 -9
16 -25 18 -36 1 -10 5 -23 8 -29 7 -10 29 -77 33 -98 2 -7 8 -25 14 -40 7 -16
12 -34 12 -41 0 -6 4 -16 8 -21 5 -6 28 -71 52 -145 24 -74 49 -148 56 -165 7
-16 19 -46 28 -65 8 -20 18 -51 21 -69 3 -18 12 -46 20 -62 9 -16 14 -32 14
-36 -1 -4 1 -15 4 -23 15 -35 59 -156 61 -165 1 -5 5 -16 9 -22 5 -7 5 -13 0
-13 -4 0 -3 -4 3 -8 6 -4 21 -38 33 -77 13 -38 25 -77 28 -85 4 -8 5 -21 4
-27 -1 -7 2 -13 7 -13 9 0 32 -65 39 -110 3 -13 9 -30 15 -37 5 -7 7 -16 4
-22 -3 -5 -2 -11 2 -13 7 -2 56 -134 67 -178 1 -3 4 -12 8 -20 29 -74 87 -269
87 -292 0 -41 -26 -87 -56 -98 -14 -6 -107 -10 -207 -10 -205 0 -243 10 -290
71 -25 34 -82 182 -93 242 -3 17 -9 36 -13 42 -5 5 -23 55 -41 110 -18 55 -40
120 -50 145 -10 25 -25 72 -35 105 -9 33 -46 139 -82 235 -53 140 -199 565
-202 585 -1 3 -1 6 -2 8 0 1 -2 10 -4 20 -6 31 -49 131 -64 150 -16 20 -95 24
-107 6 -10 -17 -13 -109 -3 -109 4 0 8 -8 8 -17 0 -10 6 -49 14 -88 14 -66 19
-94 33 -182 3 -21 17 -90 30 -153 43 -201 85 -404 88 -425 1 -11 5 -27 9 -35
7 -16 45 -202 51 -248 2 -15 7 -49 12 -77 4 -27 7 -56 6 -62 -2 -7 1 -13 6
-13 9 0 25 -69 26 -110 1 -8 4 -20 8 -25 9 -14 38 -170 38 -204 0 -59 -45
-120 -191 -261 -79 -77 -154 -147 -166 -155 -29 -19 -83 -19 -111 1 -35 24
-49 61 -82 211 -17 76 -44 192 -60 258 -82 339 -123 513 -127 545 -2 19 -12
62 -20 95 -9 33 -17 67 -17 75 -1 9 -4 20 -7 25 -3 6 -6 22 -7 37 -1 14 -31
142 -68 285 -36 142 -85 335 -109 428 -23 94 -54 213 -69 265 -14 52 -28 109
-31 125 -3 17 -8 41 -11 55 -3 14 -7 34 -8 45 -1 12 -6 26 -10 33 -4 7 -5 16
-1 21 3 5 1 12 -4 15 -4 3 -9 16 -9 28 -1 31 -185 724 -205 770 -32 76 -105
89 -133 22 -8 -19 -12 -49 -9 -67 2 -18 21 -135 41 -261 19 -126 39 -250 44
-275 4 -25 6 -49 4 -53 -3 -4 0 -16 5 -26 5 -10 15 -68 21 -128 13 -125 16
-143 29 -204 8 -40 17 -98 26 -170 4 -36 17 -141 21 -170 2 -14 12 -69 24
-123 11 -53 22 -119 25 -145 3 -26 8 -60 11 -77 2 -16 6 -39 7 -50 2 -11 8
-36 14 -55 12 -37 52 -270 58 -340 1 -14 6 -36 12 -50 9 -22 20 -82 29 -160 1
-14 8 -45 14 -70 6 -25 11 -64 12 -87 0 -24 3 -45 8 -48 9 -5 17 -47 25 -125
2 -25 8 -63 11 -85 4 -22 8 -51 9 -65 1 -14 5 -32 8 -40 3 -8 11 -42 17 -75 5
-33 12 -71 15 -85 3 -14 8 -47 11 -75 3 -27 10 -67 14 -89 5 -21 6 -45 3 -52
-3 -8 -1 -20 5 -27 9 -11 14 -33 27 -120 2 -12 8 -39 14 -61 5 -21 7 -45 4
-52 -3 -8 0 -14 7 -14 9 0 11 -10 6 -30 -4 -21 -2 -29 5 -24 6 3 10 -1 8 -12
-1 -11 1 -26 4 -34 3 -8 11 -33 18 -55 20 -68 67 -153 102 -184 59 -54 100
-77 135 -74 17 2 32 -1 32 -6 0 -9 101 -8 117 2 6 4 13 2 15 -4 3 -8 8 -7 18
2 8 8 22 14 30 14 8 0 17 2 20 5 8 9 44 29 68 40 13 6 124 108 245 228 231
227 285 271 371 305 47 18 80 20 396 23 390 5 420 6 420 16 0 5 3 7 8 6 17 -4
83 33 122 68 106 96 125 249 54 461 -14 43 -27 86 -29 95 -4 20 -119 330 -168
453 -17 44 -32 83 -33 88 -1 4 -2 8 -4 10 -1 1 -4 15 -6 31 -3 16 -16 54 -29
85 -12 31 -46 121 -73 201 -28 80 -82 232 -121 338 -39 105 -71 196 -71 201 0
8 -25 76 -104 281 -18 47 -36 97 -40 111 -6 25 -4 25 36 -12 23 -21 44 -36 46
-34 4 4 102 -65 135 -96 10 -9 43 -34 75 -55 31 -21 59 -41 62 -45 5 -5 135
-86 214 -133 17 -10 33 -22 34 -27 2 -5 8 -9 14 -9 10 0 81 -40 147 -82 31
-20 194 -112 201 -114 3 0 19 -6 35 -13 88 -36 186 -71 192 -70 5 1 11 0 16
-1 4 -1 12 -4 17 -5 6 -1 11 -4 13 -5 1 -1 27 -4 57 -5 122 -5 160 44 160 207
0 59 -4 98 -10 98 -5 0 -10 9 -10 20 0 10 -9 59 -21 107 -11 48 -22 99 -24
113 -2 14 -4 25 -5 25 -1 0 -3 9 -4 20 -2 11 -13 55 -25 98 -12 43 -24 87 -26
98 -10 49 -195 540 -241 637 -8 18 -17 41 -19 51 -2 10 -19 56 -38 102 -49
122 -50 123 -52 134 -4 18 -147 329 -161 350 -7 11 -28 58 -47 105 -74 180
-547 1139 -598 1211 -10 15 -23 38 -28 53 -6 14 -38 77 -72 138 -92 166 -164
300 -226 418 -31 58 -59 107 -62 110 -4 3 -36 57 -72 120 -35 63 -68 122 -74
131 -5 10 -30 53 -54 96 -24 43 -80 140 -125 216 -44 76 -87 150 -95 165 -8
15 -17 29 -20 32 -3 3 -19 30 -35 60 -16 30 -38 66 -47 80 -10 14 -51 83 -92
153 -40 70 -81 137 -90 147 -9 11 -62 97 -118 192 -56 95 -139 230 -184 299
-46 69 -127 197 -181 285 -53 87 -100 160 -105 162 -5 2 -9 10 -9 18 0 8 -4
14 -10 14 -5 0 -10 7 -10 15 0 8 -4 15 -10 15 -5 0 -10 4 -10 8 0 5 -33 58
-72 119 -40 61 -102 156 -136 212 -35 56 -70 108 -78 115 -7 8 -70 101 -141
207 -136 207 -230 341 -298 424 -23 29 -58 76 -78 106 -40 60 -229 305 -255
330 -10 9 -27 30 -39 45 -64 84 -184 233 -191 236 -4 2 -63 66 -132 143 -134
151 -561 582 -729 735 -56 52 -114 105 -127 118 -13 12 -26 22 -30 22 -4 0
-14 8 -23 18 -9 9 -32 29 -51 43 -19 15 -68 56 -108 92 -39 36 -168 138 -285
228 -221 170 -412 338 -510 449 -233 264 -367 423 -367 437 0 4 -9 14 -20 21
-11 7 -20 16 -20 21 0 5 -12 22 -27 38 -16 17 -46 51 -68 77 -22 27 -60 71
-84 100 -82 97 -386 398 -466 463 -117 94 -290 214 -368 256 -137 75 -393 157
-559 179 -49 7 -88 16 -88 20 0 4 -81 8 -180 8 -99 0 -180 -4 -180 -8z"/>
<path d="M26063 20379 c3 -8 -254 -453 -265 -460 -5 -3 -10 -12 -11 -20 -3
-18 -64 -125 -82 -143 -21 -21 -124 -178 -220 -336 -86 -142 -222 -350 -235
-360 -9 -7 -70 -98 -70 -104 0 -14 -83 -141 -123 -189 -43 -52 -180 -241 -250
-347 -20 -30 -86 -119 -147 -198 l-110 -143 137 -149 138 -149 28 32 c78 91
182 237 336 472 93 143 174 265 180 271 5 7 7 15 4 18 -4 3 -1 6 5 6 7 0 12 6
12 13 0 25 251 392 271 395 18 3 19 -3 19 -90 0 -109 18 -213 48 -282 12 -27
22 -53 22 -58 0 -19 81 -127 125 -166 42 -36 198 -122 223 -122 6 0 23 -5 39
-12 29 -11 47 -14 143 -22 30 -2 67 -6 82 -9 15 -2 25 -1 22 4 -2 4 24 7 58 6
35 -1 69 2 76 6 6 5 16 6 21 3 5 -4 21 -2 34 3 14 6 43 12 64 15 21 3 74 14
118 25 43 11 81 18 84 16 2 -3 10 0 18 7 7 6 16 8 20 5 3 -4 11 -2 18 3 6 5
20 11 31 13 10 1 24 6 31 10 6 4 14 1 16 -5 4 -10 6 -10 6 0 1 7 6 10 11 7 6
-3 10 -2 10 3 0 14 39 22 46 10 4 -7 10 -4 16 6 5 9 20 16 33 16 14 0 25 4 25
9 0 5 9 7 20 4 11 -3 20 0 20 6 0 5 7 8 15 5 8 -4 15 -2 15 4 0 6 8 9 18 7 9
-1 22 1 27 5 9 7 82 29 110 34 6 1 16 5 23 9 6 5 12 6 12 3 0 -3 48 12 108 34
59 21 110 38 115 39 4 0 23 8 43 16 20 8 44 15 53 15 9 0 25 7 35 15 11 8 26
15 34 15 8 0 39 11 69 25 29 14 58 23 63 20 6 -3 10 -1 10 4 0 6 3 10 8 9 4 0
23 6 43 15 20 9 52 19 70 22 18 3 38 10 44 14 5 5 25 12 43 16 17 3 32 10 32
15 0 5 11 7 25 4 14 -2 25 0 25 6 0 5 6 10 14 10 7 0 26 7 42 14 15 8 31 13
36 10 4 -3 8 0 8 6 0 7 6 10 14 7 7 -3 42 5 77 18 l64 23 3 215 2 215 -37 -10
c-21 -6 -128 -44 -238 -85 -109 -41 -208 -77 -219 -79 -15 -3 -142 -45 -216
-72 -8 -3 -19 -6 -25 -8 -5 -1 -84 -30 -175 -64 -184 -69 -442 -158 -474 -164
-12 -2 -90 -25 -175 -50 -84 -25 -157 -43 -162 -41 -4 3 -11 0 -14 -6 -4 -5
-13 -8 -20 -5 -7 2 -16 2 -20 -2 -3 -3 -16 -7 -28 -9 -12 -1 -35 -4 -52 -7
-188 -30 -288 -30 -360 0 -19 8 -35 12 -35 9 0 -8 -26 13 -70 56 -21 20 -48
59 -60 85 -43 88 -34 322 20 532 31 124 108 357 155 472 24 58 71 175 105 260
34 85 73 177 87 203 13 27 28 59 33 72 l9 24 -214 3 c-117 2 -213 0 -212 -3z"/>
<path d="M19850 19801 c-125 -41 -198 -144 -209 -295 -13 -173 63 -266 202
-245 56 9 160 56 201 92 16 14 41 31 55 39 83 43 181 160 181 217 0 57 -71
123 -181 167 -68 28 -201 41 -249 25z"/>
<path d="M10776 19665 c-22 -22 -20 -84 3 -112 11 -13 23 -23 28 -23 4 0 19
-13 33 -30 14 -16 29 -30 35 -30 5 0 65 -47 131 -104 121 -103 139 -118 202
-176 18 -16 35 -30 39 -30 6 0 173 -137 188 -155 6 -6 46 -42 90 -79 44 -37
92 -78 107 -90 15 -13 34 -26 43 -29 8 -4 15 -11 15 -17 0 -5 6 -10 14 -10 8
0 16 -4 18 -10 5 -15 111 -100 124 -100 7 0 44 37 83 81 l71 82 -32 41 c-55
70 -298 305 -403 388 -55 43 -108 86 -118 94 -9 8 -22 14 -27 14 -6 0 -10 3
-10 8 0 4 -15 13 -32 21 -18 8 -62 33 -98 57 -72 46 -273 152 -365 191 -79 34
-118 39 -139 18z"/>
<path d="M13870 19663 c-91 -62 -391 -367 -486 -494 -113 -150 -361 -591 -358
-636 1 -7 2 -17 3 -23 0 -5 35 -25 76 -45 41 -19 75 -40 75 -46 0 -5 5 -7 10
-4 6 3 10 -2 10 -11 0 -16 2 -16 20 1 11 10 26 30 34 44 17 34 201 318 229
354 12 16 46 68 74 115 53 87 78 126 230 361 114 173 193 313 193 339 0 29
-34 62 -63 62 -12 0 -34 -8 -47 -17z"/>
<path d="M16087 19475 c-158 -32 -364 -114 -460 -185 -72 -53 -228 -211 -274
-278 -65 -95 -159 -289 -154 -319 1 -7 -2 -13 -7 -13 -5 0 -9 -6 -9 -12 0 -7
-16 -65 -36 -128 -38 -123 -80 -271 -102 -360 -20 -81 -89 -286 -119 -354 -14
-32 -26 -63 -26 -68 0 -16 -123 -228 -132 -228 -4 0 -8 -6 -8 -14 0 -8 -4 -16
-9 -18 -5 -1 -27 -32 -50 -68 -23 -35 -45 -67 -49 -70 -5 -3 -29 -32 -54 -65
-25 -33 -83 -103 -128 -155 -309 -357 -433 -507 -546 -655 -63 -82 -135 -176
-160 -208 -25 -32 -55 -74 -66 -95 -36 -63 -132 -217 -139 -222 -13 -10 -173
-306 -191 -353 -10 -26 -67 -147 -127 -270 -99 -202 -154 -328 -256 -582 -57
-140 -57 -136 6 -129 84 9 174 13 295 13 l110 1 65 133 c36 72 81 170 99 217
35 87 147 311 205 410 18 30 69 127 115 215 45 88 95 179 111 203 16 24 29 47
29 52 0 4 4 10 8 12 4 2 39 53 77 113 37 61 74 115 80 120 14 13 75 102 75
110 0 3 5 11 10 18 6 7 23 28 38 48 15 20 106 130 202 244 327 388 362 430
484 592 108 144 141 192 223 331 71 119 215 448 228 520 2 15 14 55 25 89 11
35 36 128 55 207 83 346 146 479 289 613 85 80 281 193 306 178 5 -3 11 -1 15
4 3 5 14 8 25 6 11 -2 22 0 25 5 3 5 12 7 20 3 8 -3 23 -2 33 2 22 10 52 13
52 6 0 -3 35 -5 77 -4 43 1 83 -3 90 -9 8 -6 13 -7 13 -1 0 6 12 8 28 6 46 -7
67 -11 67 -13 0 -1 13 -4 29 -6 16 -3 57 -19 90 -35 34 -17 61 -30 61 -29 0 2
38 -12 120 -45 33 -12 87 -31 120 -40 33 -9 71 -20 85 -24 14 -4 85 -6 158 -5
72 1 132 0 132 -3 0 -6 -57 -79 -80 -103 -53 -57 -149 -182 -150 -196 0 -11
124 -104 140 -104 6 0 10 -4 10 -10 0 -5 6 -10 14 -10 8 0 16 -3 18 -7 2 -5
29 -26 61 -47 50 -34 68 -58 44 -57 -19 1 -131 -57 -203 -104 -81 -54 -205
-172 -267 -255 -46 -61 -130 -203 -161 -270 -64 -141 -58 -202 20 -208 39 -3
44 1 112 70 40 40 79 84 88 98 25 37 147 160 159 160 6 0 16 9 23 20 7 11 19
20 27 20 8 0 15 5 15 10 0 6 5 10 10 10 6 0 20 9 32 20 12 10 25 17 30 14 4
-3 8 1 8 8 0 8 50 40 110 72 61 31 110 54 110 51 0 -4 6 -3 13 2 11 9 76 34
102 39 6 1 40 13 77 27 36 14 69 23 72 20 3 -4 6 -1 6 5 0 7 6 12 14 12 7 0
34 9 58 20 25 11 54 21 64 23 10 2 32 9 47 15 16 7 33 12 38 12 32 0 -13 41
-179 162 -103 75 -205 152 -227 172 -22 19 -51 43 -64 54 l-24 19 157 234 c87
129 173 253 192 277 19 24 34 48 34 53 0 5 -113 9 -273 9 -390 0 -496 16 -712
110 -173 76 -327 129 -423 145 -104 18 -322 18 -415 0z"/>
<path d="M16332 18769 c-47 -22 -97 -77 -125 -137 -18 -38 -22 -66 -22 -149 0
-91 2 -104 23 -125 12 -14 22 -29 22 -34 0 -5 26 -17 58 -25 52 -13 63 -13
127 4 222 58 364 222 301 346 -21 39 -81 90 -135 114 -62 27 -195 31 -249 6z"/>
<path d="M28755 18399 c-55 -22 -114 -47 -132 -55 -17 -7 -36 -14 -41 -14 -9
0 -298 -111 -372 -143 -14 -5 -27 -11 -30 -12 -3 -1 -16 -6 -30 -12 -14 -6
-97 -40 -185 -75 -88 -36 -169 -68 -180 -73 -11 -4 -25 -9 -31 -10 -11 -3 -86
-36 -242 -106 -34 -16 -65 -29 -68 -29 -10 0 -233 -95 -326 -139 -83 -39 -137
-63 -148 -65 -3 -1 -25 -11 -50 -23 -97 -46 -176 -81 -200 -88 -14 -4 -124
-56 -245 -115 -121 -60 -290 -141 -375 -180 -85 -40 -231 -114 -325 -165 -93
-51 -191 -103 -218 -115 -26 -12 -49 -26 -52 -30 -3 -5 10 -28 28 -52 18 -23
55 -74 82 -113 27 -38 52 -72 56 -75 3 -3 19 -24 36 -46 23 -34 33 -40 46 -32
9 5 17 5 17 1 0 -4 4 -3 8 3 9 14 87 44 112 44 11 0 20 4 20 9 0 5 15 13 33
16 17 4 38 12 45 17 6 6 12 7 12 3 0 -4 6 -3 13 3 6 6 29 13 50 17 20 4 40 11
43 16 3 5 14 9 26 9 11 0 70 16 132 34 113 36 223 63 286 72 19 3 46 7 60 10
102 18 153 24 205 23 33 -1 70 2 83 4 13 4 22 1 22 -6 0 -8 3 -8 8 -2 11 15
32 17 32 3 0 -10 2 -10 9 0 4 8 12 14 16 14 4 0 12 -6 16 -14 7 -10 9 -10 9 0
0 10 5 10 20 2 11 -6 20 -7 20 -1 0 5 82 9 193 10 205 2 272 5 352 15 28 3 83
8 124 11 41 3 77 7 80 9 3 3 33 7 67 10 63 7 66 7 184 30 41 7 81 11 88 8 8
-3 17 0 21 6 3 6 24 13 46 16 22 3 51 8 65 11 14 4 36 8 50 10 14 1 25 4 25 5
0 1 10 4 23 6 12 2 32 6 45 8 12 2 28 4 35 5 9 1 12 41 12 166 0 151 -2 165
-18 165 -9 0 -73 -11 -141 -25 -68 -14 -140 -27 -160 -29 -20 -2 -44 -7 -53
-11 -10 -4 -24 -5 -32 -2 -8 3 -17 3 -21 -1 -3 -3 -16 -7 -28 -8 -12 -2 -114
-17 -227 -34 -230 -34 -438 -43 -503 -21 -54 19 -61 55 -17 92 18 16 37 26 41
23 4 -2 10 0 14 6 4 6 11 8 16 5 5 -4 9 -1 9 5 0 6 5 8 10 5 6 -3 10 -1 10 5
0 6 4 9 8 6 4 -2 21 1 37 8 78 35 271 109 283 109 6 0 12 3 12 6 0 3 12 11 28
18 15 6 53 23 84 36 31 14 59 23 62 19 3 -3 6 -1 6 4 0 8 86 46 110 49 3 0 15
6 28 13 12 7 22 10 22 7 0 -3 11 2 24 11 14 8 26 15 28 14 4 -2 32 8 98 33 30
12 57 22 60 23 3 0 18 6 33 12 16 7 34 12 41 12 6 0 16 4 22 9 8 9 182 79 209
85 6 1 27 10 49 19 21 9 46 17 55 17 9 0 21 4 27 9 5 5 48 26 97 46 l87 37 0
214 c0 118 -3 214 -7 214 -5 0 -53 -19 -108 -41z"/>
<path d="M12595 18000 c-76 -76 -78 -80 -65 -104 7 -14 20 -34 29 -43 24 -26
109 -158 123 -191 7 -15 29 -55 50 -90 21 -34 38 -69 38 -76 0 -8 3 -16 8 -18
13 -6 67 -90 114 -178 103 -193 116 -217 133 -265 10 -27 25 -58 33 -67 8 -9
11 -22 7 -27 -3 -6 -1 -11 5 -11 6 0 15 -12 21 -27 5 -16 28 -63 50 -105 21
-42 39 -83 39 -92 0 -8 4 -16 9 -18 10 -4 81 -163 81 -183 0 -8 4 -15 9 -15 5
0 11 -8 13 -17 2 -10 37 32 95 113 51 71 114 156 141 188 l49 59 -29 59 c-16
33 -33 65 -39 71 -5 7 -41 66 -80 132 -39 66 -74 122 -78 125 -4 3 -41 57 -81
120 -66 104 -241 345 -287 395 -10 11 -38 47 -63 80 -75 102 -223 265 -239
265 -4 0 -42 -36 -86 -80z"/>
<path d="M12012 17453 c-13 -3 -112 -27 -220 -54 -108 -28 -204 -52 -212 -54
-8 -2 -16 -4 -17 -5 -2 -2 -7 -4 -13 -5 -5 -1 -11 -3 -12 -5 -2 -1 -11 -3 -21
-5 -24 -4 -142 -54 -185 -77 -18 -10 -38 -18 -45 -18 -31 0 -379 -211 -448
-272 -15 -13 -38 -32 -51 -43 -16 -13 -27 -35 -31 -60 -5 -35 -3 -42 20 -59
22 -16 31 -18 62 -8 50 15 472 164 551 194 36 14 71 23 78 21 6 -3 12 1 12 7
0 7 7 10 15 6 8 -3 15 -1 15 4 0 6 3 9 8 9 4 -1 10 0 15 1 4 1 10 3 15 5 4 1
14 4 22 7 50 18 166 52 171 50 4 -1 36 10 70 24 112 45 261 94 270 88 5 -3 9
-1 9 5 0 5 14 12 31 16 17 4 33 13 35 20 3 7 -9 58 -27 114 -31 100 -32 101
-63 100 -17 -1 -41 -4 -54 -6z"/>
<path d="M18305 17359 c-106 -25 -135 -31 -165 -34 -14 -2 -27 -4 -30 -5 -3
-1 -8 -2 -12 -1 -4 0 -51 -9 -105 -21 -133 -30 -396 -32 -523 -5 -47 10 -96
20 -110 22 -14 2 -26 4 -27 6 -2 1 -12 3 -23 4 -11 1 -21 3 -22 4 -2 2 -32 6
-68 9 -143 15 -390 5 -450 -18 -3 -1 -8 -2 -12 -1 -13 2 -173 -51 -182 -60 -6
-5 -17 -9 -26 -9 -20 0 -158 -81 -190 -112 -14 -13 -60 -54 -102 -92 -128
-113 -219 -252 -292 -448 -61 -166 -75 -237 -106 -568 -24 -257 -43 -362 -80
-455 -55 -136 -81 -177 -290 -465 -46 -63 -97 -134 -114 -157 -16 -24 -33 -43
-38 -43 -4 0 -8 -7 -8 -15 0 -9 -7 -18 -15 -21 -8 -4 -15 -10 -15 -15 0 -6 -6
-17 -12 -25 -7 -8 -18 -20 -23 -27 -26 -30 -183 -253 -212 -300 -18 -29 -37
-57 -43 -64 -5 -7 -10 -16 -10 -22 0 -5 -4 -11 -8 -13 -5 -2 -36 -50 -70 -108
-34 -58 -66 -110 -72 -117 -14 -17 -13 -20 18 -36 166 -86 264 -139 293 -156
46 -28 52 -27 81 17 127 188 281 411 297 429 11 12 39 50 61 85 59 93 63 98
86 127 12 14 52 71 90 126 37 55 73 105 80 110 28 23 230 349 297 481 105 204
117 266 131 684 11 306 100 520 287 694 84 77 206 142 340 180 78 22 101 24
240 21 96 -2 180 -10 224 -20 104 -25 111 -26 228 -29 109 -3 154 3 237 31 25
8 50 16 55 17 6 2 22 9 38 16 36 18 42 9 21 -32 -24 -45 -134 -309 -134 -319
0 -5 4 -9 9 -9 5 0 40 -14 78 -32 37 -17 71 -31 76 -30 6 2 163 -65 176 -75 3
-2 -15 -20 -40 -40 -166 -138 -321 -345 -445 -595 -105 -212 -138 -294 -180
-453 -39 -151 -42 -165 -53 -305 -9 -113 -1 -407 12 -450 5 -13 30 -173 33
-210 1 -8 3 -19 4 -25 2 -5 4 -14 5 -20 2 -11 17 -69 41 -152 13 -46 19 -54
47 -61 69 -19 83 12 91 218 12 275 47 537 101 748 131 519 483 1036 892 1312
53 36 98 70 100 75 2 6 -14 19 -34 29 -67 31 -268 118 -278 120 -16 2 -239 98
-248 106 -5 4 -2 27 7 51 32 92 100 268 143 369 25 58 53 126 64 153 l19 47
-28 -1 c-15 -1 -63 -10 -107 -20z"/>
<path d="M17180 16663 c-14 -2 -43 -10 -65 -18 -70 -26 -121 -129 -126 -255
-3 -99 14 -155 61 -202 43 -43 84 -49 155 -22 22 8 46 16 53 17 13 2 38 22
134 107 107 95 137 174 99 253 -26 54 -94 103 -156 112 -5 1 -12 3 -15 4 -12
5 -117 8 -140 4z"/>
<path d="M12480 15549 c-314 -22 -646 -78 -944 -161 -61 -16 -118 -31 -126
-33 -8 -2 -16 -4 -17 -5 -2 -2 -6 -3 -10 -4 -5 -1 -14 -5 -20 -9 -7 -5 -13 -6
-13 -3 0 3 -18 -1 -40 -9 -22 -8 -40 -12 -40 -8 0 3 -7 0 -15 -7 -8 -7 -15
-10 -15 -7 0 14 -277 -109 -300 -133 -3 -3 -18 -11 -33 -18 -15 -6 -33 -16
-40 -22 -7 -5 -48 -36 -92 -68 -100 -73 -159 -139 -198 -222 -44 -92 -42 -161
7 -300 49 -137 49 -195 1 -385 -43 -170 -51 -242 -35 -320 6 -33 12 -67 13
-75 1 -8 5 -17 9 -20 4 -3 9 -15 11 -25 6 -40 121 -248 164 -298 112 -131 185
-274 167 -329 -4 -13 -8 -32 -10 -43 -1 -11 -10 -49 -19 -85 -17 -71 -20 -84
-31 -180 -10 -86 -10 -90 5 -200 13 -98 39 -201 68 -267 9 -21 16 -43 15 -49
-1 -5 6 -19 17 -30 10 -11 28 -40 40 -65 29 -59 47 -90 58 -98 16 -11 143
-181 143 -191 0 -6 5 -10 10 -10 6 0 10 -5 10 -10 0 -6 21 -32 48 -58 76 -77
204 -221 242 -273 19 -26 40 -48 45 -49 6 0 28 -21 50 -46 22 -26 57 -62 78
-82 20 -19 37 -38 37 -42 0 -7 -111 -52 -136 -56 -7 -1 -47 -18 -90 -37 -44
-19 -119 -53 -169 -75 -49 -22 -110 -47 -135 -55 -70 -24 -261 -106 -295 -126
-16 -10 -41 -22 -55 -26 -25 -7 -242 -98 -323 -134 -23 -11 -63 -27 -90 -35
-59 -20 -378 -182 -443 -226 -100 -68 -205 -166 -273 -254 -28 -37 -99 -183
-105 -217 -3 -13 -5 -24 -6 -24 -1 0 -3 -7 -5 -15 -2 -8 -11 -46 -21 -85 -14
-57 -18 -134 -21 -430 -3 -260 -8 -362 -16 -367 -9 -6 -9 -10 0 -16 6 -4 14
-39 18 -77 l7 -70 87 2 c98 2 132 6 149 17 7 4 12 5 12 1 0 -10 75 33 97 57
54 57 57 78 64 443 7 365 12 401 65 508 42 83 99 151 182 214 72 55 222 142
222 128 0 -4 12 2 28 13 26 19 313 142 331 142 9 0 88 34 196 84 68 32 134 59
265 109 36 14 95 39 132 56 107 48 139 61 159 61 11 0 19 4 19 8 0 7 83 41
105 43 6 0 15 5 21 10 14 12 246 109 260 109 6 0 17 7 24 15 6 8 15 13 18 12
8 -2 192 72 208 84 6 5 44 20 85 34 169 59 248 84 275 90 16 4 40 9 54 13 48
11 327 7 342 -6 8 -6 17 -9 20 -6 3 3 23 -2 44 -11 22 -9 39 -15 39 -14 0 0
19 -4 43 -10 23 -7 42 -16 42 -22 0 -6 4 -8 10 -4 5 3 26 -2 47 -10 21 -9 46
-18 56 -20 10 -2 66 -30 125 -61 59 -31 125 -66 147 -77 22 -11 42 -23 43 -28
2 -5 8 -9 14 -9 16 0 323 -207 377 -253 26 -23 70 -61 97 -83 27 -23 62 -54
77 -68 15 -14 31 -26 35 -26 11 0 80 -68 141 -138 63 -73 84 -77 138 -29 21
18 58 49 83 69 25 20 56 46 70 58 14 12 37 29 53 38 15 9 27 20 27 24 0 15
-274 284 -360 354 -172 141 -422 316 -604 423 -155 92 -462 236 -520 245 -6 1
-17 5 -23 9 -7 5 -13 6 -13 3 0 -3 -30 4 -67 14 -38 11 -116 25 -174 32 -93
10 -122 10 -225 -6 -142 -21 -157 -24 -164 -27 -3 -1 -9 -3 -15 -4 -5 -2 -12
-4 -15 -5 -10 -3 -36 -9 -120 -26 -142 -27 -284 -3 -367 63 -19 15 -42 32 -51
37 -10 5 -63 64 -120 130 -56 67 -124 144 -150 172 -26 28 -65 72 -87 98 -22
27 -45 53 -51 60 -6 6 -11 15 -11 19 -1 5 -28 38 -60 74 -178 202 -246 396
-197 564 9 30 17 55 19 57 2 2 28 -16 58 -40 31 -24 67 -51 81 -61 45 -31 301
-156 321 -157 3 0 27 -11 55 -25 27 -14 56 -25 64 -25 8 0 16 -5 18 -10 2 -6
21 -13 43 -16 22 -3 42 -9 43 -14 2 -6 7 -8 12 -5 5 3 19 1 32 -4 47 -19 63
-24 70 -23 4 1 20 -3 35 -9 15 -6 37 -12 48 -14 11 -1 72 -12 135 -24 63 -12
127 -23 142 -26 46 -9 46 2 -3 215 -11 47 -22 95 -24 107 -3 14 -15 24 -37 28
-87 19 -546 222 -556 247 -2 5 -8 6 -13 2 -5 -3 -9 0 -9 6 0 6 -4 9 -8 6 -5
-3 -19 4 -30 15 -12 10 -24 19 -27 19 -3 0 -20 10 -38 23 -17 13 -61 44 -97
69 -36 25 -74 54 -85 65 -11 10 -51 44 -90 76 -144 118 -160 133 -255 258 -14
18 -30 37 -35 43 -32 33 -88 142 -111 216 -19 63 -24 99 -21 141 5 54 37 169
47 169 3 0 20 -13 38 -29 17 -17 45 -38 62 -48 16 -9 30 -23 30 -31 0 -7 6
-12 13 -10 13 2 97 -48 109 -66 4 -6 8 -7 8 -3 0 5 15 0 33 -11 82 -50 294
-149 333 -156 11 -2 38 -12 60 -21 21 -10 46 -19 54 -20 8 -2 42 -13 75 -25
33 -12 69 -23 80 -26 11 -2 34 -7 50 -10 17 -4 39 -8 50 -10 11 -2 31 -6 45
-9 14 -4 50 -8 80 -11 30 -2 76 -5 103 -7 26 -2 49 -1 52 1 5 6 34 10 105 16
62 5 230 59 302 97 10 5 23 9 30 9 7 0 26 7 42 15 15 8 32 13 36 10 5 -3 11
-1 15 5 7 11 114 45 177 56 23 4 71 8 105 8 35 1 63 3 63 6 0 5 134 -4 230
-15 67 -7 197 -34 270 -55 36 -11 76 -21 90 -24 14 -2 25 -5 25 -6 0 -1 8 -3
18 -5 20 -4 84 -24 197 -63 77 -27 96 -32 118 -34 6 -1 12 -5 12 -9 0 -5 7 -6
15 -3 8 4 15 1 15 -6 0 -6 4 -9 9 -6 5 4 22 0 38 -8 50 -26 137 -64 163 -71
14 -4 51 -20 83 -36 31 -15 57 -26 57 -23 0 5 80 -36 90 -46 3 -3 14 -6 25 -8
141 -21 209 8 262 113 14 28 34 63 45 78 16 22 17 31 8 42 -7 8 -21 15 -31 15
-11 0 -19 5 -19 12 0 6 -2 9 -5 6 -3 -3 -52 20 -108 51 -213 118 -572 283
-640 295 -7 1 -22 8 -34 14 -13 7 -23 10 -23 6 0 -3 -7 -1 -15 6 -8 7 -15 9
-15 5 0 -4 -11 0 -25 9 -14 9 -25 14 -25 11 0 -2 -37 9 -82 26 -185 68 -438
138 -576 158 -106 16 -285 14 -380 -4 -93 -18 -260 -74 -336 -112 -63 -32
-176 -75 -176 -67 0 4 -7 1 -15 -6 -8 -7 -15 -9 -15 -5 0 4 -6 3 -12 -2 -7 -6
-20 -11 -28 -11 -8 0 -26 -3 -40 -7 -31 -9 -142 -13 -155 -6 -5 3 -22 6 -37 7
-16 1 -29 3 -30 4 -2 1 -16 4 -33 5 -29 3 -70 12 -70 15 0 1 -11 4 -25 6 -137
25 -478 167 -677 282 -130 76 -283 259 -283 339 0 45 80 170 101 157 5 -3 9
-1 9 4 0 17 102 80 188 116 45 19 82 33 82 29 0 -3 7 0 15 7 8 6 19 9 25 5 5
-3 10 -2 10 3 0 7 128 53 165 58 6 1 15 3 20 4 6 1 15 3 20 5 6 1 12 3 15 4 3
2 14 4 25 6 11 2 79 15 150 30 72 15 145 28 163 29 17 0 32 5 32 10 0 4 6 3
14 -3 8 -7 15 -8 18 -2 3 8 39 16 113 24 11 1 26 6 33 10 6 5 16 6 21 2 6 -3
61 1 123 9 62 7 133 14 158 15 24 1 47 4 51 9 11 11 149 317 149 330 0 14
-125 14 -310 1z"/>
<path d="M18527 15408 c-61 -113 -107 -207 -106 -214 0 -4 -5 -10 -12 -14 -24
-16 14 -35 68 -35 29 0 53 -4 53 -10 0 -6 3 -6 8 1 10 14 604 14 614 0 5 -8 8
-8 8 -1 0 15 602 15 612 1 5 -7 8 -7 8 -1 0 7 61 10 172 10 110 0 176 4 186
11 13 10 10 25 -27 120 -24 60 -51 126 -62 147 -10 22 -19 45 -19 53 0 12
-109 14 -729 14 l-729 0 -45 -82z"/>
<path d="M24140 14965 c-17 -21 -8 -103 17 -151 60 -117 98 -186 135 -244 22
-36 46 -74 52 -85 6 -11 42 -67 80 -125 38 -58 94 -143 125 -190 57 -86 70
-104 106 -145 72 -82 116 -137 159 -199 27 -39 58 -81 70 -93 12 -12 30 -32
41 -45 11 -13 54 -61 96 -108 41 -47 86 -98 100 -114 13 -16 36 -40 52 -54 15
-14 27 -28 27 -32 0 -11 323 -330 445 -440 65 -58 141 -126 169 -152 109 -102
121 -112 126 -112 5 0 19 -10 49 -36 9 -8 39 -33 66 -55 28 -21 68 -58 90 -80
48 -49 161 -136 167 -130 3 3 13 -4 23 -15 10 -11 23 -20 29 -20 6 0 22 -14
35 -30 13 -17 29 -30 37 -30 8 0 14 -4 14 -8 0 -4 28 -28 63 -52 34 -24 67
-48 72 -52 88 -74 291 -198 323 -198 36 0 62 27 62 66 0 24 -22 50 -142 164
-671 633 -1599 1605 -2178 2279 -101 118 -191 223 -199 232 -9 10 -21 24 -26
31 -6 7 -21 27 -33 43 -36 46 -104 126 -138 162 -36 37 -91 45 -114 18z"/>
<path d="M20932 14028 c-5 -5 -18 -11 -28 -13 -11 -2 -19 -4 -19 -5 0 -1 -7
-3 -15 -5 -8 -1 -39 -12 -67 -24 -29 -11 -53 -18 -53 -15 0 4 -7 1 -15 -6 -8
-7 -15 -9 -15 -5 0 4 -7 2 -15 -5 -8 -7 -15 -10 -15 -6 0 3 -24 -3 -52 -14
-155 -57 -416 -118 -598 -140 -109 -13 -413 -13 -560 1 -105 9 -195 20 -530
63 -427 56 -796 50 -1099 -15 -97 -21 -296 -91 -374 -130 -23 -12 -43 -21 -45
-20 -11 7 -242 -127 -242 -140 0 -7 27 -44 134 -181 l59 -76 51 20 c28 12 59
21 69 22 9 0 17 3 17 7 0 9 59 24 78 20 6 -1 12 3 12 10 0 6 6 9 14 6 8 -3 17
-3 21 1 4 4 11 8 16 8 5 1 10 2 12 3 1 2 13 4 27 6 14 2 57 11 95 21 39 9 79
18 90 20 116 23 180 34 235 39 36 4 81 9 100 12 64 8 290 11 290 5 0 -4 48 -8
108 -8 95 -2 262 -20 632 -70 63 -8 126 -14 140 -13 14 0 27 0 30 -1 3 -1 30
-4 60 -6 103 -7 125 -10 136 -17 6 -3 14 -3 18 1 4 4 89 7 189 8 100 1 182 2
182 4 0 1 23 3 50 5 89 5 138 14 240 40 148 38 379 108 385 115 6 8 40 20 54
19 5 0 12 4 15 9 3 5 28 17 55 26 106 36 386 168 386 183 0 2 -56 60 -124 128
-79 78 -128 119 -134 113z"/>
<path d="M16525 13804 c-33 -14 -89 -40 -125 -57 -36 -17 -71 -30 -77 -28 -7
1 -13 -4 -13 -10 0 -7 -3 -9 -7 -6 -3 4 -15 -1 -26 -10 -10 -10 -22 -17 -26
-17 -13 3 -157 -59 -281 -121 -84 -42 -294 -164 -317 -185 -7 -5 -17 -10 -23
-10 -5 0 -10 -4 -10 -8 0 -5 -18 -17 -40 -28 -22 -10 -40 -22 -40 -26 0 -5 -5
-8 -11 -8 -11 0 -89 -52 -119 -80 -9 -8 -58 -50 -108 -94 -219 -188 -323 -367
-323 -553 0 -160 59 -282 181 -374 67 -50 205 -109 257 -109 12 0 23 -3 23 -7
0 -11 442 -5 520 7 57 9 145 25 245 46 17 3 38 6 48 5 10 0 15 5 11 11 -5 7
-1 9 9 5 9 -3 19 -2 22 2 4 8 95 35 120 36 6 0 15 3 20 6 22 13 181 63 193 61
7 -2 15 4 18 13 4 9 12 14 20 11 7 -3 14 -1 16 3 3 7 55 28 243 98 94 36 229
99 345 163 69 38 148 79 175 92 28 13 52 25 55 28 3 3 31 18 63 34 31 15 57
32 57 38 0 5 -23 43 -52 84 -53 78 -96 116 -132 118 -11 1 -25 4 -31 7 -9 5
-31 5 -37 -1 -2 -1 -18 -3 -37 -5 -32 -3 -259 -107 -271 -124 -5 -7 -208 -102
-225 -105 -5 -1 -19 -7 -30 -13 -11 -6 -24 -12 -30 -12 -5 -1 -53 -18 -105
-38 -52 -20 -95 -35 -96 -33 0 3 -8 -1 -17 -9 -10 -7 -17 -11 -17 -8 0 4 -21
-3 -47 -14 -128 -56 -418 -131 -575 -150 -146 -17 -338 -7 -410 20 -133 51
-163 168 -80 311 31 52 114 136 194 198 60 46 276 180 415 257 91 51 349 169
361 165 1 0 15 6 31 14 16 9 31 12 35 9 3 -4 6 -1 6 5 0 7 5 12 11 12 5 0 56
22 112 49 56 26 123 56 150 66 27 10 47 24 47 33 0 8 -17 36 -37 61 -21 25
-41 51 -45 56 -4 6 -18 22 -30 36 -13 15 -34 45 -48 68 -14 22 -29 40 -35 40
-5 0 -37 -11 -70 -25z"/>
<path d="M21440 13541 c0 -19 -174 -235 -294 -366 -10 -11 -30 -38 -43 -60
-27 -42 -105 -140 -132 -165 -9 -8 -63 -71 -121 -140 -203 -244 -477 -532
-609 -640 -30 -25 -59 -50 -65 -55 -34 -32 -136 -96 -145 -90 -6 3 -11 2 -11
-4 0 -6 -7 -8 -15 -5 -8 4 -15 2 -15 -3 0 -14 -112 1 -148 21 -67 35 -129 180
-151 351 -8 58 -31 437 -31 506 0 6 -11 5 -180 -17 -186 -24 -465 -78 -640
-125 -85 -23 -164 -42 -175 -44 -11 -2 -20 -4 -20 -5 0 -1 -8 -3 -18 -5 -24
-5 -242 -74 -275 -87 -15 -6 -35 -13 -44 -14 -31 -6 -180 -71 -333 -144 -82
-40 -154 -73 -160 -74 -5 -2 -35 -14 -65 -28 -30 -14 -91 -42 -135 -63 -44
-20 -135 -69 -203 -108 -102 -60 -122 -75 -117 -92 2 -11 11 -45 18 -75 7 -30
16 -62 20 -70 13 -35 27 -87 29 -113 4 -50 19 -49 114 8 49 30 124 73 166 95
42 22 79 44 83 50 3 5 15 10 25 10 10 0 25 6 32 13 7 8 38 23 68 35 30 11 129
52 219 91 90 40 171 73 180 74 9 2 31 11 49 20 18 10 37 15 42 12 6 -3 10 -2
10 3 0 5 21 15 48 22 26 6 56 16 67 20 73 30 264 84 272 77 2 -3 19 -1 36 4
38 11 70 17 128 24 24 3 80 12 124 20 44 8 103 17 130 20 28 3 64 8 81 11 l31
6 7 -89 c10 -126 10 -128 41 -233 15 -52 28 -99 30 -105 16 -69 97 -217 144
-263 64 -63 121 -112 121 -104 0 4 6 0 13 -9 22 -29 154 -66 246 -70 131 -5
365 109 556 271 164 139 418 416 667 725 53 66 115 139 137 163 23 24 41 47
41 52 0 6 9 15 20 22 11 7 20 17 20 22 0 11 105 152 135 181 21 20 164 202
223 284 18 25 32 53 32 63 0 11 -27 37 -67 66 -37 26 -91 66 -120 90 -52 41
-73 51 -73 33z"/>
<path d="M13144 13399 c-3 -5 -15 -9 -27 -9 -22 0 -72 -7 -72 -10 0 -1 -15 -5
-52 -13 -7 -2 -15 -6 -19 -9 -3 -4 -12 -4 -20 -1 -8 3 -14 0 -14 -6 0 -6 -7
-8 -15 -5 -8 4 -15 1 -15 -7 0 -7 -3 -9 -7 -6 -3 4 -12 2 -20 -4 -7 -6 -13 -8
-13 -4 0 4 -7 2 -15 -5 -8 -7 -15 -10 -15 -6 0 3 -24 -4 -52 -15 -29 -12 -60
-22 -68 -24 -8 -2 -68 -25 -133 -51 -79 -32 -117 -53 -117 -63 0 -9 7 -40 14
-68 8 -29 12 -53 9 -53 -2 0 2 -6 9 -13 7 -7 24 -30 38 -50 29 -42 69 -62 120
-59 30 2 184 42 230 60 8 3 20 6 25 7 6 1 53 12 105 24 117 29 262 32 330 7
25 -10 50 -18 55 -20 50 -12 161 -115 211 -196 15 -25 26 -46 23 -46 -2 -1 3
-10 12 -20 9 -11 29 -46 44 -79 15 -33 49 -105 76 -159 31 -62 46 -103 40
-109 -5 -5 -23 -10 -40 -12 -17 -1 -34 -5 -37 -8 -3 -3 -12 -3 -19 -1 -7 3
-16 0 -20 -5 -3 -6 -10 -9 -15 -6 -4 3 -52 -2 -106 -10 -134 -19 -328 -33
-574 -41 -113 -4 -209 -10 -214 -15 -5 -4 -2 -49 8 -104 31 -187 79 -209 451
-206 267 3 252 2 508 37 59 9 118 16 130 16 12 1 27 5 34 10 7 5 14 5 18 -2 5
-8 11 -8 21 1 8 7 28 13 45 14 26 2 35 -5 77 -64 25 -36 51 -71 57 -77 5 -6
45 -52 87 -101 43 -49 103 -111 134 -139 32 -27 62 -53 68 -59 22 -20 122 -93
166 -121 25 -16 47 -31 50 -34 10 -10 221 -114 237 -116 9 -2 19 -8 23 -14 4
-6 11 -10 16 -9 5 2 27 -6 49 -16 22 -10 43 -17 47 -17 4 1 26 -5 50 -14 24
-9 50 -17 58 -19 8 -2 17 -4 20 -5 3 -1 9 -2 13 -1 4 1 34 -6 65 -15 79 -22
102 -24 312 -30 192 -6 361 8 487 41 31 8 59 13 61 10 3 -3 10 -1 16 4 6 4 34
13 61 20 28 7 86 23 130 37 44 15 88 28 99 30 10 2 24 8 32 15 8 6 14 9 14 5
0 -6 69 19 144 53 23 10 52 22 66 26 14 4 69 30 124 56 54 27 105 49 112 49 8
0 14 4 14 8 0 4 25 21 55 37 53 29 55 31 50 65 -2 19 -11 60 -20 90 -24 84
-29 104 -41 168 -3 17 -11 32 -16 32 -15 0 -77 -30 -133 -65 -27 -17 -68 -40
-90 -50 -22 -10 -82 -38 -133 -62 -51 -23 -103 -45 -115 -47 -12 -2 -49 -16
-81 -30 -58 -26 -301 -107 -314 -105 -4 1 -10 0 -14 -1 -5 -1 -17 -4 -28 -5
-11 -1 -21 -3 -22 -5 -2 -1 -12 -3 -23 -4 -11 -2 -69 -11 -130 -22 -141 -23
-366 -24 -485 -1 -47 9 -94 18 -105 20 -11 1 -26 6 -33 11 -7 4 -16 6 -19 3
-11 -11 -218 80 -259 114 -6 5 -14 6 -17 2 -4 -3 -7 -1 -7 5 0 7 -4 11 -9 10
-13 -4 -164 115 -249 197 -146 139 -323 387 -421 591 -168 346 -328 622 -414
713 -26 28 -50 51 -53 51 -3 0 -21 12 -40 26 -19 15 -34 22 -34 18 0 -5 -5 -1
-11 9 -6 9 -14 15 -19 12 -5 -3 -11 -1 -15 5 -6 10 -66 39 -95 45 -8 2 -15 4
-15 5 0 13 -383 22 -391 9z"/>
<path d="M22307 12959 c-11 -6 -24 -12 -30 -13 -16 -4 -71 -29 -77 -36 -3 -4
-41 -28 -85 -54 -44 -27 -82 -52 -85 -56 -3 -4 -61 -48 -130 -97 -289 -210
-637 -561 -881 -888 -57 -77 -106 -142 -110 -145 -15 -14 -101 -142 -129 -193
-33 -61 -170 -238 -249 -322 -73 -78 -185 -175 -201 -175 -6 0 -10 -4 -10 -10
0 -5 -7 -10 -15 -10 -8 0 -15 -4 -15 -9 0 -5 -10 -13 -22 -17 -13 -4 -51 -24
-86 -44 -62 -38 -218 -105 -264 -114 -13 -3 -88 -27 -168 -55 -80 -27 -199
-64 -265 -81 -66 -17 -128 -34 -137 -36 -18 -5 -34 22 -44 74 -5 25 -86 195
-128 270 -198 347 -464 590 -721 657 -76 19 -257 20 -349 0 -38 -8 -72 -12
-77 -10 -4 3 -10 1 -14 -5 -4 -6 -10 -8 -14 -5 -13 8 -187 -50 -332 -111 -74
-31 -138 -57 -144 -58 -5 -2 -21 -8 -35 -13 -14 -6 -50 -21 -80 -33 -30 -12
-59 -25 -65 -29 -5 -5 -55 -28 -110 -51 -55 -24 -138 -61 -185 -83 -47 -22
-141 -66 -210 -99 -69 -32 -132 -63 -140 -68 -8 -6 -60 -33 -115 -61 -55 -28
-101 -55 -103 -60 -2 -5 -9 -9 -14 -9 -6 0 -62 -29 -125 -65 -62 -36 -117 -65
-121 -65 -4 0 -23 -13 -42 -29 -30 -25 -33 -30 -17 -36 9 -4 17 -13 17 -21 0
-8 4 -14 8 -14 5 0 30 -30 57 -67 27 -38 55 -72 62 -76 7 -4 13 -12 13 -17 0
-6 9 -19 19 -29 19 -19 20 -19 55 5 20 14 36 22 36 19 0 -3 74 32 165 80 91
47 165 83 165 79 0 -3 62 27 138 66 75 40 157 79 182 87 25 8 83 33 129 55 79
37 130 60 141 63 3 0 14 6 25 12 27 15 145 64 164 68 9 2 49 18 90 34 40 17
79 31 85 31 7 0 30 9 52 19 21 10 55 22 75 25 20 3 48 10 63 15 14 6 26 8 26
5 0 -2 12 2 28 10 24 12 56 20 147 34 17 2 74 5 127 5 96 1 98 1 192 -46 66
-33 113 -65 153 -105 75 -73 123 -129 123 -142 0 -5 5 -10 10 -10 6 0 10 -8
10 -19 0 -10 6 -24 14 -30 32 -27 145 -238 146 -273 0 -9 5 -18 10 -20 6 -2
13 -15 15 -29 5 -25 2 -27 -58 -39 -88 -18 -101 -20 -202 -30 -49 -5 -139 -16
-200 -24 -215 -29 -518 -50 -860 -62 -211 -7 -230 -11 -283 -50 -40 -31 -63
-76 -91 -175 -28 -99 -27 -119 2 -119 238 -5 649 4 877 20 296 19 299 20 470
39 41 5 82 9 90 9 8 0 62 8 120 17 58 8 121 18 140 20 40 5 62 9 139 24 29 6
71 11 92 11 21 0 41 5 44 10 3 6 17 8 31 6 13 -3 24 -1 24 4 0 4 8 7 18 5 9
-1 21 0 26 3 6 3 19 6 30 8 12 1 57 9 101 19 44 10 85 18 90 20 6 1 28 7 50
13 22 6 51 13 65 16 14 2 57 15 95 27 39 12 75 23 80 24 6 1 17 4 25 7 8 3 76
26 150 50 166 55 293 101 300 109 3 3 21 11 40 19 49 18 354 172 360 182 5 6
75 5 90 -2 3 -1 9 -2 14 -1 5 1 17 -6 27 -15 11 -9 19 -13 19 -7 0 6 18 7 53
2 71 -12 250 -12 314 -1 28 5 62 8 75 7 13 -1 29 2 35 7 7 6 30 12 51 14 58 6
278 80 332 113 8 5 41 19 73 31 31 12 83 38 115 57 31 19 63 36 70 37 8 1 17
7 20 12 8 11 89 64 98 64 15 0 174 123 208 161 68 75 78 125 63 314 -5 55 -13
103 -19 106 -10 6 -161 -105 -210 -153 -15 -15 -208 -144 -308 -206 -84 -52
-300 -150 -300 -135 0 3 -7 0 -15 -7 -8 -7 -15 -10 -15 -7 0 4 -17 0 -38 -7
-100 -36 -381 -53 -422 -26 -13 8 -11 17 13 62 31 57 108 180 118 188 3 3 34
48 69 100 35 52 67 97 72 98 4 2 8 10 8 18 0 8 5 14 10 14 6 0 10 7 10 15 0 8
3 15 8 15 4 0 13 13 20 28 14 33 73 113 135 186 99 114 157 186 157 194 0 11
345 343 392 378 18 13 69 51 113 84 99 74 315 220 325 220 5 0 10 4 12 8 2 5
43 29 92 54 50 25 92 50 93 55 2 6 -13 21 -34 34 -21 13 -40 26 -43 30 -12 15
-217 139 -231 139 -7 0 -22 -5 -32 -11z"/>
<path d="M23471 12227 c-29 -62 -70 -141 -91 -177 -21 -36 -66 -112 -99 -170
-33 -58 -73 -124 -88 -146 -16 -23 -46 -68 -67 -100 -218 -330 -437 -598 -710
-869 -181 -180 -434 -391 -607 -506 -39 -26 -78 -54 -87 -62 -10 -8 -37 -26
-62 -39 -25 -14 -80 -47 -123 -74 -43 -27 -95 -59 -115 -71 -20 -12 -43 -27
-50 -33 -26 -23 -201 -99 -352 -153 -235 -84 -365 -114 -620 -144 -111 -12
-341 -17 -1285 -23 -1239 -8 -1235 -8 -1555 -65 -80 -15 -158 -28 -175 -31
-16 -3 -39 -6 -50 -9 -11 -2 -45 -8 -75 -13 -30 -6 -151 -37 -268 -71 -257
-73 -321 -87 -475 -102 -255 -25 -482 23 -817 172 -86 38 -243 139 -313 202
l-49 43 186 144 c102 79 186 148 186 153 0 7 -153 219 -181 251 -7 8 -205
-129 -439 -303 -63 -48 -146 -108 -185 -135 -118 -84 -218 -159 -260 -198 -22
-21 -82 -68 -134 -105 -100 -72 -433 -318 -591 -437 -52 -39 -101 -76 -110
-82 -13 -10 -15 11 -16 190 -1 165 -5 219 -23 303 -37 178 -83 284 -182 419
-93 127 -282 250 -567 369 l-112 47 -73 -42 c-39 -24 -79 -49 -88 -56 -8 -8
-55 -35 -104 -62 -49 -26 -90 -52 -92 -58 -2 -5 17 -15 41 -22 59 -16 146 -54
146 -64 0 -4 8 -8 17 -8 25 0 83 -23 83 -33 0 -4 4 -5 10 -2 5 3 28 -4 51 -15
23 -12 49 -23 58 -25 9 -2 39 -17 66 -33 28 -17 77 -46 110 -66 96 -55 179
-144 225 -242 69 -143 84 -227 84 -459 -1 -229 -11 -293 -71 -429 -38 -86 -95
-170 -123 -180 -8 -3 -33 -20 -56 -38 -23 -18 -50 -39 -60 -46 -10 -7 -45 -30
-78 -52 -32 -22 -62 -40 -67 -40 -5 0 -32 -11 -61 -24 -134 -60 -303 -102
-443 -110 -27 -2 -50 -4 -50 -5 0 -2 -47 -4 -105 -5 -123 -3 -169 -21 -220
-86 -17 -22 -29 -40 -25 -40 4 0 3 -6 -2 -12 -6 -7 -11 -66 -12 -130 l-2 -118
33 -1 c18 -1 36 -1 39 -1 111 14 164 17 179 12 17 -6 70 -4 70 3 0 5 5 5 10 2
5 -3 16 -3 23 2 6 4 30 8 52 10 59 3 113 9 175 19 30 4 60 9 65 10 6 0 17 4
25 7 22 9 102 30 125 33 66 8 402 164 412 191 3 7 11 13 19 13 8 0 14 5 14 10
0 6 7 10 15 10 8 0 15 4 15 8 0 8 50 41 60 40 3 -1 16 9 30 20 14 12 108 86
211 164 102 79 277 214 390 300 112 87 260 201 329 254 69 52 127 99 130 104
3 4 41 36 85 70 44 34 85 69 91 76 6 8 14 11 17 8 3 -3 12 3 19 15 7 12 16 21
21 21 11 0 150 107 223 170 31 28 60 50 63 50 3 0 17 -15 30 -33 35 -47 263
-227 287 -227 4 0 34 -17 68 -38 121 -75 407 -202 484 -215 9 -2 27 -8 38 -15
12 -6 23 -9 26 -7 3 3 38 -2 79 -10 113 -23 129 -24 356 -31 156 -5 217 -3
227 5 8 7 16 8 18 3 1 -5 59 2 128 14 69 13 143 26 165 30 22 3 44 8 49 12 6
3 19 7 31 8 18 3 70 17 360 99 50 14 104 26 120 28 17 2 37 6 45 9 36 14 171
40 177 35 3 -4 12 -2 18 3 7 6 44 12 84 15 39 2 74 6 78 8 5 2 26 3 48 2 22
-1 44 1 50 4 10 5 86 9 253 14 56 1 92 -2 92 -8 0 -6 3 -6 8 0 8 13 1820 14
1840 2 7 -5 12 -4 12 3 0 6 4 9 9 5 5 -3 12 -2 15 3 2 4 40 7 83 6 43 0 83 3
88 7 6 4 17 4 24 0 7 -5 29 -5 50 0 20 4 63 10 96 13 63 6 219 35 318 59 31 8
57 12 57 9 0 -2 6 1 13 7 8 6 17 8 20 5 3 -3 12 -2 19 2 7 5 21 10 31 11 26 4
265 97 308 119 176 92 219 113 219 108 0 -4 8 0 18 8 9 8 58 37 107 63 109 58
249 144 310 191 25 18 45 31 45 27 0 -3 8 4 19 15 10 12 23 22 28 22 9 0 23
10 70 50 7 5 17 10 23 10 5 0 10 5 10 10 0 6 6 10 13 10 7 0 25 12 42 28 16
15 46 41 66 57 256 210 531 480 779 764 30 35 61 69 68 77 6 7 12 17 12 23 0
5 8 16 18 23 10 7 45 49 78 93 32 44 64 85 71 90 21 18 187 277 270 420 92
160 243 443 243 456 0 5 10 29 22 54 15 30 19 49 12 53 -95 64 -184 122 -189
122 -3 0 -32 17 -63 38 -31 21 -62 41 -68 45 -7 4 -31 -36 -63 -106z"/>
<path d="M27940 5991 c-473 -52 -1219 -129 -1260 -131 -8 0 -35 -3 -60 -6 -25
-3 -67 -6 -95 -8 -27 -2 -50 -4 -50 -5 0 -1 -38 -4 -85 -7 -94 -5 -124 -8
-254 -24 -49 -6 -120 -11 -158 -12 -38 -1 -71 -5 -74 -9 -2 -5 -11 -6 -18 -3
-17 6 -297 -23 -346 -36 -43 -12 -70 -39 -102 -100 -23 -43 -23 -51 -18 -217
5 -162 6 -173 28 -196 27 -28 58 -42 117 -52 66 -12 2921 -8 2998 3 102 16
155 52 184 127 18 46 17 505 -1 575 -8 30 -19 56 -25 58 -6 2 -11 8 -11 14 0
15 -40 48 -78 65 -64 27 -154 22 -692 -36z"/>
<path d="M9785 5966 c-72 -18 -107 -39 -159 -97 -83 -92 -76 127 -76 -2438 0
-1785 3 -2295 13 -2327 29 -99 114 -183 205 -205 20 -5 139 -9 264 -9 156 1
228 -3 233 -10 5 -8 13 -6 26 6 10 9 25 14 33 11 9 -4 18 -2 21 3 3 5 11 7 18
5 16 -6 99 56 130 97 14 18 34 59 44 90 17 54 18 131 18 1677 0 892 3 1621 7
1621 3 0 46 -73 94 -162 48 -90 98 -177 110 -193 12 -17 27 -41 33 -55 13 -29
31 -59 49 -78 6 -7 12 -17 12 -21 0 -4 29 -58 65 -121 36 -63 65 -120 65 -127
0 -7 3 -13 8 -13 4 0 17 -22 30 -50 12 -27 27 -52 32 -55 6 -3 10 -15 10 -25
0 -10 3 -20 8 -22 14 -6 51 -66 97 -157 25 -50 51 -91 56 -91 6 0 9 -6 7 -12
-3 -7 4 -22 15 -33 11 -11 26 -34 33 -52 8 -17 18 -34 24 -38 5 -3 10 -15 10
-26 0 -10 5 -19 10 -19 6 0 10 -5 10 -11 0 -6 21 -47 48 -92 26 -45 59 -104
72 -132 14 -27 28 -51 33 -53 4 -2 7 -10 7 -18 0 -8 4 -14 9 -14 5 0 12 -13
16 -30 4 -16 11 -32 16 -36 5 -3 18 -22 29 -42 11 -20 31 -55 45 -77 14 -22
40 -67 57 -101 38 -71 74 -135 123 -219 20 -33 42 -74 50 -92 8 -17 19 -34 25
-38 5 -3 10 -15 10 -25 0 -10 3 -20 8 -22 13 -5 119 -186 190 -323 20 -38 66
-120 104 -181 37 -61 68 -116 68 -121 0 -6 7 -16 15 -23 8 -7 15 -21 15 -31 0
-11 4 -19 8 -19 5 0 17 -17 28 -37 10 -21 22 -40 25 -43 4 -3 24 -39 45 -80
41 -79 170 -220 202 -220 5 0 31 -11 58 -24 28 -13 66 -27 85 -30 78 -14 105
-19 119 -18 8 0 171 0 362 1 l347 2 60 30 c103 52 150 113 170 224 8 41 11
653 11 2045 l0 1987 3548 1 c2339 0 3566 4 3604 11 98 17 146 53 173 130 22
62 22 435 0 509 -18 60 -65 104 -129 121 -30 9 -1080 11 -4011 9 l-3970 -3
-50 -25 c-68 -33 -129 -99 -157 -168 l-23 -57 -5 -1590 -5 -1590 -39 70 c-41
74 -73 134 -164 305 -57 107 -116 209 -184 314 -21 33 -38 62 -38 67 0 4 -16
36 -36 71 -20 34 -58 104 -84 153 -26 50 -84 153 -128 230 -166 288 -392 691
-421 750 -8 17 -37 71 -66 120 -28 50 -57 105 -64 123 -7 17 -17 32 -21 32 -8
0 -159 268 -340 605 -24 44 -64 114 -90 155 -26 41 -66 109 -90 150 -93 160
-238 266 -407 295 -111 19 -741 20 -818 1z"/>
<path d="M21915 5936 c-64 -30 -111 -76 -139 -135 -21 -45 -21 -56 -24 -648
l-3 -603 -29 -1 c-17 -1 -75 -3 -130 -4 -55 -1 -101 -3 -102 -4 -2 -2 -14 -5
-27 -7 -35 -6 -88 -49 -109 -87 -14 -27 -18 -65 -20 -231 -2 -136 0 -214 9
-243 12 -44 73 -117 100 -119 7 -1 41 -8 74 -16 33 -8 99 -14 147 -13 l87 2 4
-971 c2 -534 7 -984 10 -1001 3 -16 8 -45 11 -63 10 -64 18 -97 37 -149 33
-93 105 -226 166 -308 50 -68 81 -101 177 -190 55 -52 288 -185 331 -190 14
-2 67 -16 85 -23 8 -3 25 -7 38 -8 13 -2 29 -7 35 -12 7 -5 23 -8 37 -7 14 1
30 -2 37 -7 7 -5 14 -5 18 2 3 6 12 7 18 3 7 -4 32 -8 57 -9 52 -3 584 -5 588
-3 1 1 7 3 12 4 6 1 13 4 18 5 4 1 11 2 15 1 4 -1 25 15 46 34 61 57 71 103
71 339 0 191 -1 204 -24 252 -26 56 -71 96 -126 112 -19 6 -84 13 -145 16
-195 10 -283 44 -391 152 -55 54 -76 84 -94 130 -49 132 -50 148 -50 1047 l0
842 303 1 c166 0 322 4 347 8 25 4 50 8 57 8 25 3 109 75 125 108 14 29 17 68
18 241 0 199 -1 207 -25 255 -18 36 -37 57 -67 75 -43 24 -43 24 -368 25 -179
1 -340 2 -357 3 l-33 1 -2 603 -3 602 -29 58 c-31 61 -69 96 -138 127 -39 18
-68 20 -318 20 -268 0 -276 -1 -325 -24z"/>
<path d="M24015 5944 c-25 -9 -63 -39 -101 -79 -49 -51 -65 -75 -75 -117 -12
-44 -14 -434 -14 -2278 0 -1224 3 -2264 7 -2312 6 -76 11 -93 41 -141 47 -74
121 -127 165 -118 7 1 15 -5 18 -14 4 -10 10 -12 18 -6 7 6 132 11 300 12
l289 2 44 30 c60 40 97 94 117 169 16 58 17 248 14 2358 l-3 2295 -28 58 c-31
61 -95 124 -150 144 -50 18 -590 16 -642 -3z"/>
<path d="M15785 4673 c-136 -11 -400 -72 -492 -113 -24 -10 -43 -17 -43 -14 0
2 -15 -3 -32 -13 -18 -9 -39 -18 -46 -19 -74 -13 -328 -186 -478 -327 -130
-121 -285 -336 -360 -497 -9 -19 -29 -62 -44 -95 -96 -205 -171 -572 -172
-839 0 -176 42 -443 93 -595 22 -63 42 -127 45 -144 2 -17 8 -35 12 -41 3 -6
7 -15 8 -21 1 -5 36 -80 78 -166 48 -98 90 -170 114 -195 21 -21 49 -55 62
-74 13 -19 35 -46 47 -60 13 -14 23 -30 23 -37 0 -7 5 -13 10 -13 6 0 16 -11
22 -25 6 -14 16 -25 22 -25 11 0 66 -60 66 -72 0 -5 7 -8 15 -8 8 0 15 -7 15
-16 0 -8 4 -12 10 -9 5 3 34 -15 65 -40 31 -25 52 -45 48 -45 -4 0 1 -6 13
-13 30 -18 137 -89 152 -101 7 -6 19 -17 27 -24 8 -7 15 -11 15 -8 0 3 28 -9
63 -28 56 -29 197 -82 245 -91 9 -2 17 -4 17 -5 0 -1 8 -3 19 -5 53 -10 122
-28 131 -35 6 -4 17 -8 25 -8 8 -1 27 -3 41 -6 14 -2 68 -9 120 -16 52 -7 97
-17 102 -24 5 -8 9 -7 16 3 7 11 10 11 15 0 5 -11 7 -11 12 -1 8 17 224 17
224 0 0 -10 2 -10 8 -1 4 6 41 15 82 18 96 8 116 11 165 24 22 6 48 8 58 5 9
-3 17 -1 17 3 0 7 84 30 145 39 6 1 13 3 18 4 4 1 12 4 17 5 6 1 11 3 13 5 1
1 9 3 17 5 8 1 64 19 123 40 101 34 256 116 376 197 240 164 415 379 497 613
23 65 28 97 29 172 0 99 -10 123 -69 167 -27 20 -39 21 -389 21 -331 0 -365
-2 -396 -19 -40 -21 -74 -56 -109 -111 -36 -58 -109 -142 -136 -157 -13 -7
-57 -35 -97 -62 -135 -90 -286 -130 -489 -129 -135 0 -215 14 -327 59 -64 26
-195 101 -201 116 -2 5 -9 8 -15 8 -6 0 -45 35 -86 78 -119 121 -213 319 -225
470 -2 27 -7 55 -10 61 -5 8 331 11 1222 11 1076 0 1235 2 1280 15 29 9 52 20
52 25 0 6 3 9 8 8 4 -2 16 4 26 12 87 72 101 119 99 330 -2 282 -47 489 -176
815 -110 279 -368 588 -624 748 -90 57 -206 117 -214 111 -5 -3 -9 0 -9 6 0 7
-6 10 -12 8 -7 -3 -19 2 -27 9 -7 8 -20 12 -27 9 -8 -3 -14 -2 -14 3 0 23
-337 103 -509 120 -95 10 -322 12 -416 4z m414 -794 c28 -7 51 -16 51 -20 0
-3 11 -6 25 -6 26 0 117 -45 205 -101 95 -60 243 -225 243 -269 0 -7 4 -13 9
-13 4 0 8 -6 8 -12 0 -7 11 -40 24 -72 13 -33 22 -65 19 -73 -3 -7 0 -13 7
-13 7 0 10 -7 6 -15 -3 -8 -1 -15 5 -15 7 0 9 -12 7 -30 -3 -16 -1 -30 4 -30
4 0 8 -6 8 -12 0 -10 -172 -13 -832 -11 -458 0 -839 2 -845 2 -15 1 -9 36 24
146 33 104 116 245 190 319 55 56 173 141 204 148 8 2 17 7 20 11 3 4 16 9 27
10 12 1 22 4 22 8 0 9 41 24 58 21 6 -2 12 1 12 6 0 9 40 20 104 28 16 2 32 6
34 9 11 10 311 -3 361 -16z"/>
<path d="M19375 4669 c-118 -13 -318 -52 -415 -83 -47 -15 -89 -28 -95 -29 -5
-1 -16 -6 -22 -10 -7 -5 -13 -5 -13 -1 0 3 -10 0 -22 -8 -13 -8 -45 -23 -73
-33 -166 -62 -375 -232 -484 -394 -78 -114 -152 -307 -167 -431 -11 -88 -4
-343 10 -380 3 -8 14 -42 25 -76 11 -33 36 -88 55 -123 20 -35 36 -65 36 -67
0 -10 85 -113 140 -169 32 -33 86 -80 119 -104 34 -24 61 -48 61 -53 0 -5 5
-6 10 -3 6 3 23 -3 38 -14 47 -33 203 -108 260 -125 29 -8 58 -18 65 -23 6 -4
21 -9 32 -10 11 -2 31 -8 45 -13 14 -5 36 -12 50 -14 14 -3 34 -7 45 -10 11
-3 52 -13 90 -22 39 -9 72 -20 75 -24 3 -4 12 -8 20 -8 23 -2 122 -26 255 -62
66 -17 146 -38 179 -46 32 -8 63 -17 70 -21 6 -4 17 -8 26 -9 36 -5 74 -16 92
-25 10 -5 18 -8 18 -5 0 3 24 -2 53 -11 28 -8 57 -16 64 -17 7 -1 16 -5 19 -9
4 -4 15 -7 25 -7 43 0 196 -101 183 -122 -3 -4 -1 -8 4 -8 20 0 44 -101 37
-154 -11 -78 -31 -116 -94 -176 -80 -76 -83 -78 -154 -104 -190 -72 -452 -82
-659 -25 -81 22 -258 104 -258 119 0 6 -6 10 -13 10 -21 0 -122 112 -158 175
-40 71 -88 126 -137 157 -36 23 -43 23 -352 24 -347 1 -361 -1 -412 -58 -30
-34 -58 -112 -58 -162 0 -61 33 -204 66 -286 79 -194 237 -363 484 -516 128
-80 303 -164 341 -164 10 0 19 -5 19 -11 0 -5 4 -8 9 -5 5 3 25 -1 45 -9 19
-8 39 -15 43 -14 5 1 11 0 16 -1 4 -1 12 -4 17 -5 6 -1 11 -3 13 -4 1 -2 14
-4 30 -6 41 -6 140 -25 157 -32 8 -3 26 -7 40 -9 14 -1 41 -5 60 -8 19 -3 80
-9 135 -12 55 -4 103 -12 108 -18 5 -8 9 -8 15 0 4 7 74 14 187 18 222 8 258
12 395 46 47 12 96 23 110 25 14 2 25 4 25 5 0 1 9 3 20 4 11 1 72 20 135 41
204 67 452 230 582 383 69 81 174 261 200 345 65 208 64 475 -3 674 -41 126
-124 248 -256 382 -57 57 -103 101 -103 97 0 -4 -12 1 -27 12 -66 47 -206 123
-274 150 -127 50 -448 145 -529 157 -14 2 -27 4 -30 5 -3 2 -9 2 -14 1 -4 -1
-14 4 -22 10 -11 9 -14 9 -14 -1 0 -9 -3 -10 -13 -1 -8 6 -27 12 -43 14 -17 2
-35 7 -42 11 -7 4 -16 5 -21 1 -5 -3 -12 -1 -16 5 -4 6 -10 8 -15 5 -5 -3 -11
-1 -15 4 -3 6 -12 8 -20 4 -8 -3 -15 0 -15 7 0 7 -8 9 -20 5 -12 -4 -20 -2
-20 5 0 7 -7 10 -15 6 -8 -3 -15 -1 -15 4 0 5 -8 9 -17 9 -62 -1 -336 81 -438
130 -140 68 -192 157 -166 281 28 130 122 210 306 261 80 22 261 33 282 17 6
-5 14 -5 17 0 8 13 125 4 189 -14 28 -8 66 -19 83 -23 110 -29 278 -162 324
-256 29 -59 75 -114 109 -127 56 -22 146 -29 361 -29 253 -1 320 2 320 13 0 3
9 10 21 13 11 4 33 25 49 46 59 82 49 229 -24 385 -105 222 -232 353 -495 513
-46 28 -88 48 -92 45 -5 -3 -9 0 -9 5 0 6 -6 11 -12 11 -7 0 -26 7 -42 15 -15
8 -32 13 -36 10 -4 -3 -13 2 -20 10 -7 8 -19 15 -26 15 -8 0 -53 11 -101 25
-141 41 -299 73 -423 84 -132 12 -367 12 -485 0z"/>
<path d="M26765 4664 c-164 -22 -338 -66 -442 -111 -21 -9 -41 -18 -45 -19 -5
-1 -11 -3 -15 -4 -5 -1 -11 -2 -14 -2 -13 2 -202 -99 -266 -141 -166 -110
-335 -273 -450 -434 -24 -34 -81 -136 -127 -225 -131 -260 -153 -321 -201
-553 -68 -325 -54 -665 40 -986 49 -166 76 -235 142 -358 31 -58 71 -134 89
-168 17 -34 43 -77 58 -95 14 -18 30 -37 34 -43 4 -5 24 -31 45 -56 20 -25 37
-51 37 -58 0 -7 5 -9 10 -6 6 3 10 3 10 -2 1 -19 113 -126 210 -200 140 -107
400 -268 400 -247 0 4 6 2 13 -4 6 -6 14 -10 17 -11 6 0 35 -9 83 -27 20 -8
37 -11 37 -8 0 4 7 1 15 -6 8 -7 15 -10 15 -7 0 3 42 -6 93 -19 50 -13 104
-24 118 -24 14 0 29 -3 33 -7 4 -4 20 -8 36 -9 72 -4 146 -17 153 -28 6 -8 10
-8 14 2 3 9 43 12 148 12 79 0 197 7 262 16 65 8 127 16 138 16 11 0 45 9 76
19 31 10 67 20 80 23 69 14 143 34 174 46 11 4 43 16 70 25 63 23 224 102 242
121 8 7 55 42 105 76 122 83 243 200 330 317 40 53 75 98 79 101 15 11 88 169
107 230 13 45 19 88 17 140 -1 41 -3 77 -4 81 -3 15 -71 80 -92 87 -13 5 -181
8 -374 8 -337 -2 -352 -3 -390 -23 -42 -22 -92 -71 -140 -138 -110 -150 -285
-259 -487 -301 -122 -26 -308 -24 -420 4 -82 20 -249 94 -256 113 -2 5 -10 9
-18 9 -8 0 -14 5 -14 11 0 5 -4 8 -9 5 -5 -3 -41 24 -80 60 -140 130 -244 331
-269 522 l-9 62 1227 0 c1341 0 1290 -2 1369 57 33 25 81 111 81 146 0 9 5 17
10 17 6 0 10 63 10 170 0 94 -4 170 -9 170 -4 0 -11 31 -15 69 -3 39 -13 102
-21 140 -8 39 -17 85 -20 103 -14 82 -81 282 -124 369 -73 148 -209 345 -318
459 -53 56 -148 140 -212 188 -64 48 -122 92 -129 99 -7 7 -24 16 -38 19 -13
3 -24 10 -24 14 0 9 -61 36 -72 32 -5 -1 -8 3 -8 8 0 5 -3 9 -7 8 -5 -2 -21 2
-38 9 -32 12 -62 22 -70 23 -3 0 -24 8 -47 16 -284 100 -656 139 -953 98z
m285 -764 c0 -3 33 -7 73 -7 71 -1 182 -24 222 -46 11 -6 27 -12 37 -14 21 -3
142 -74 146 -85 2 -4 7 -6 12 -3 15 9 146 -129 205 -215 59 -86 91 -156 101
-220 3 -19 9 -53 14 -75 5 -22 7 -41 4 -44 -2 -2 -382 -5 -844 -5 l-839 -1 5
25 c67 306 188 477 416 589 119 59 268 100 350 99 32 -1 60 1 63 4 7 7 35 6
35 -2z"/>
</g>
</svg>
