<?xml version="1.0" standalone="no"?>
<!DOCTYPE svg PUBLIC "-//W3C//DTD SVG 20010904//EN"
 "http://www.w3.org/TR/2001/REC-SVG-20010904/DTD/svg10.dtd">
<svg version="1.0" xmlns="http://www.w3.org/2000/svg"
 width="3840.000000pt" height="2160.000000pt" viewBox="0 0 3840.000000 2160.000000"
 preserveAspectRatio="xMidYMid meet">
<metadata>
Created by potrace 1.16, written by Peter Selinger 2001-2019
</metadata>
<g transform="translate(0.000000,2160.000000) scale(0.100000,-0.100000)"
fill="#000000" stroke="none">
<path d="M630 12931 c0 -5 4 -11 10 -13 5 -1 15 -28 21 -58 6 -30 15 -71 19
-90 4 -19 24 -114 44 -210 52 -246 97 -459 106 -500 4 -19 18 -82 30 -140 12
-58 26 -123 31 -145 5 -22 14 -62 19 -90 5 -27 14 -68 19 -90 20 -90 32 -143
41 -190 5 -27 19 -93 30 -145 12 -52 37 -171 57 -265 19 -93 39 -188 44 -210
5 -22 14 -62 19 -90 10 -48 22 -106 41 -190 5 -22 14 -62 19 -90 5 -27 14 -68
19 -90 5 -22 19 -87 31 -145 12 -58 26 -121 30 -140 4 -19 24 -114 44 -210 21
-96 41 -193 45 -215 5 -22 19 -87 31 -145 12 -58 26 -121 30 -140 4 -19 18
-82 30 -140 12 -58 31 -145 42 -195 10 -49 23 -110 28 -135 7 -38 38 -183 55
-258 l5 -22 656 2 656 3 12 40 c7 22 18 65 25 95 12 56 23 105 41 183 5 23 30
137 55 252 25 116 50 229 55 253 6 23 14 61 19 85 5 23 14 62 20 87 5 25 15
70 22 100 6 30 15 65 20 78 5 13 9 34 9 47 0 13 4 34 9 47 5 13 14 48 20 78
11 53 19 89 41 183 5 23 30 137 55 252 25 116 50 230 56 255 13 57 23 101 49
220 36 163 38 173 60 265 27 114 34 148 60 268 12 53 25 95 30 92 4 -3 13 -29
20 -57 6 -29 20 -91 31 -138 20 -83 30 -127 48 -212 5 -24 14 -64 20 -90 6
-27 16 -69 22 -95 20 -91 29 -129 79 -357 28 -126 56 -250 61 -275 18 -80 28
-125 37 -166 6 -22 15 -65 22 -95 7 -30 16 -71 20 -90 4 -19 13 -60 20 -90 7
-30 16 -71 20 -90 4 -19 43 -190 85 -380 42 -190 81 -361 85 -380 4 -19 13
-60 20 -90 21 -95 32 -144 42 -185 5 -22 12 -52 15 -67 l5 -28 639 0 639 0 10
23 c5 12 17 58 26 102 9 44 20 98 25 120 5 22 13 63 18 90 9 43 25 118 62 290
5 22 14 63 19 90 5 28 14 68 19 90 5 22 25 117 44 210 45 212 97 457 108 510
5 22 14 63 19 90 5 28 14 70 20 95 6 25 15 68 20 95 6 28 15 68 19 90 5 22 18
85 30 140 11 55 30 143 41 195 24 112 63 295 91 435 26 123 55 263 70 330 12
55 23 103 39 180 5 28 14 68 19 90 5 22 18 85 30 140 11 55 36 177 56 270 20
94 40 190 45 215 5 25 18 88 30 140 11 52 25 118 30 145 13 66 26 124 35 158
l7 27 -535 0 c-295 0 -538 -4 -541 -9 -3 -4 -26 -111 -51 -237 -25 -126 -49
-247 -55 -269 -5 -22 -108 -542 -230 -1155 -121 -613 -224 -1128 -228 -1145
-8 -30 -8 -30 -20 -8 -7 13 -16 42 -21 65 -10 51 -76 346 -97 438 -23 98 -34
151 -45 198 -28 129 -49 223 -59 262 -11 45 -33 142 -61 268 -9 43 -24 107
-40 177 -10 46 -108 483 -119 535 -5 19 -13 60 -20 90 -7 30 -16 71 -20 90 -4
19 -13 60 -20 90 -12 56 -24 106 -39 170 -5 19 -14 60 -21 90 -7 30 -16 71
-20 90 -7 32 -32 147 -49 225 l-7 30 -555 3 -556 2 -43 -192 c-24 -106 -51
-229 -61 -273 -18 -85 -54 -243 -70 -310 -5 -22 -13 -60 -19 -85 -5 -25 -13
-63 -18 -85 -6 -22 -15 -65 -22 -95 -7 -30 -15 -71 -20 -90 -11 -53 -129 -579
-140 -627 -6 -24 -14 -63 -20 -88 -25 -111 -32 -142 -40 -175 -5 -19 -12 -48
-15 -65 -3 -16 -10 -46 -14 -65 -5 -19 -14 -60 -21 -90 -13 -59 -27 -124 -40
-180 -47 -210 -71 -320 -75 -342 -13 -73 -45 -102 -45 -41 0 14 -4 42 -9 62
-5 20 -15 61 -21 91 -6 30 -60 305 -122 610 -123 619 -122 613 -136 690 -6 30
-24 123 -42 205 -17 83 -42 206 -55 275 -13 69 -47 240 -76 380 -60 298 -64
316 -78 393 -6 33 -13 67 -16 78 -6 18 -25 19 -576 19 -338 0 -569 -4 -569 -9z"/>
<path d="M9995 12928 c-3 -7 -4 -987 -3 -2178 l3 -2165 555 0 555 0 3 2178 2
2177 -555 0 c-435 0 -557 -3 -560 -12z"/>
<path d="M23495 12692 c-3 -3 -5 -701 -5 -1552 0 -1630 1 -1656 45 -1825 140
-535 534 -802 1180 -799 250 1 403 27 552 92 l62 27 1 421 c0 231 -3 423 -6
427 -3 3 -20 -3 -38 -14 -54 -31 -126 -49 -228 -56 -242 -15 -373 66 -428 268
-20 73 -20 95 -18 780 l3 704 355 0 355 1 3 432 2 432 -360 0 -360 0 -2 333
-3 332 -552 1 c-304 0 -555 -1 -558 -4z"/>
<path d="M7805 12133 c-229 -11 -542 -72 -746 -146 -162 -59 -341 -154 -432
-229 l-27 -23 2 -458 3 -457 50 41 c161 133 410 262 636 328 191 56 346 79
539 79 324 1 479 -84 497 -270 7 -77 -6 -124 -47 -167 -83 -86 -219 -136 -625
-226 -387 -86 -592 -154 -770 -256 -275 -158 -423 -352 -481 -629 -26 -125
-24 -383 4 -507 81 -354 314 -599 657 -688 101 -27 142 -30 350 -29 220 0 297
13 443 72 174 72 332 200 437 358 30 46 60 84 65 84 6 0 10 -84 10 -215 l0
-215 537 2 537 3 -1 1100 c0 1118 -3 1257 -29 1400 -35 195 -62 281 -131 420
-155 312 -433 505 -848 591 -121 25 -461 45 -630 37z m517 -1905 c3 -7 4 -139
2 -293 -2 -209 -6 -299 -18 -355 -43 -203 -183 -353 -366 -391 -79 -16 -222
-6 -295 21 -91 34 -173 122 -203 215 -51 162 -8 325 116 437 73 66 172 116
423 212 126 48 234 101 289 140 41 29 46 30 52 14z"/>
<path d="M18570 12132 c-160 -7 -426 -51 -594 -98 -191 -54 -432 -164 -544
-250 l-67 -51 0 -456 c0 -251 1 -457 3 -457 1 0 37 26 80 59 332 252 734 388
1152 389 130 0 205 -9 304 -39 206 -61 268 -315 106 -434 -87 -64 -246 -115
-610 -195 -194 -43 -358 -87 -450 -121 -30 -12 -62 -22 -70 -24 -8 -2 -62 -25
-120 -52 -182 -85 -317 -186 -418 -312 -204 -254 -251 -697 -111 -1049 113
-285 364 -476 702 -537 120 -22 420 -16 531 9 175 41 357 140 478 261 67 67
168 203 168 225 0 6 6 10 13 7 9 -3 13 -54 14 -203 1 -109 3 -205 3 -211 0
-10 114 -13 535 -13 l535 0 0 1163 c0 1190 -2 1252 -39 1422 -58 261 -151 445
-306 601 -171 172 -400 283 -688 333 -151 26 -429 42 -607 33z m525 -2168 c1
-330 -9 -404 -71 -531 -61 -123 -186 -220 -319 -244 -92 -17 -229 -6 -296 24
-162 71 -244 238 -210 422 33 180 164 293 469 406 167 62 293 120 352 161 30
21 59 36 65 35 6 -2 10 -103 10 -273z"/>
<path d="M13730 12123 c-171 -15 -304 -50 -425 -110 -217 -109 -422 -338 -515
-578 -11 -27 -13 -28 -20 -10 -4 11 -6 144 -6 295 1 151 0 283 -2 293 -4 16
-38 17 -548 17 l-544 0 0 -1725 0 -1725 555 0 555 0 1 1013 c0 556 2 1019 3
1027 2 8 6 44 10 80 28 256 135 436 301 505 63 26 81 29 185 30 97 0 122 -4
161 -21 130 -60 194 -175 215 -384 1 -14 2 -526 3 -1137 l1 -1113 555 0 555 0
0 998 c0 1043 3 1115 45 1277 40 152 136 283 245 336 129 62 293 65 406 6 87
-45 155 -167 173 -312 5 -38 10 -572 10 -1185 l1 -1115 555 0 555 0 0 1251 c0
1053 -3 1267 -15 1350 -20 137 -29 177 -60 269 -124 370 -364 589 -713 651
-79 14 -298 21 -347 11 -11 -3 -42 -8 -69 -12 -27 -4 -79 -16 -115 -27 -305
-93 -528 -289 -694 -610 -23 -45 -47 -83 -53 -85 -6 -2 -18 25 -27 62 -54 219
-217 449 -393 554 -152 90 -370 140 -544 124z"/>
<path d="M22790 12035 c-289 -46 -531 -202 -697 -450 -79 -116 -203 -409 -203
-476 0 -11 -4 -19 -10 -19 -6 0 -11 167 -12 468 l-3 467 -547 3 -548 2 -1 -22
c0 -13 -1 -788 -1 -1723 l-1 -1700 559 0 559 0 6 820 c4 524 10 838 16 870 14
66 58 197 82 244 101 196 325 343 579 378 111 15 353 8 460 -13 l32 -7 -2 584
-3 584 -90 2 c-49 1 -128 -5 -175 -12z"/>
</g>
</svg>
