<?xml version="1.0" standalone="no"?>
<!DOCTYPE svg PUBLIC "-//W3C//DTD SVG 20010904//EN"
 "http://www.w3.org/TR/2001/REC-SVG-20010904/DTD/svg10.dtd">
<svg version="1.0" xmlns="http://www.w3.org/2000/svg"
 width="300.000000pt" height="300.000000pt" viewBox="0 0 300.000000 300.000000"
 preserveAspectRatio="xMidYMid meet">
<metadata>
Created by potrace 1.16, written by Peter Selinger 2001-2019
</metadata>
<g transform="translate(0.000000,300.000000) scale(0.100000,-0.100000)"
fill="#000000" stroke="none">
<path d="M1380 2864 c-76 -8 -292 -52 -350 -72 -30 -11 -83 -33 -117 -51 -34
-17 -68 -31 -75 -31 -6 0 -44 -22 -84 -50 -40 -27 -75 -50 -79 -50 -10 0 -146
-118 -199 -174 -71 -73 -156 -177 -156 -189 0 -5 -11 -24 -24 -41 -93 -123
-174 -366 -197 -594 -17 -172 1 -316 69 -555 18 -64 95 -226 112 -237 4 -3 18
-25 31 -50 24 -47 83 -121 165 -206 52 -55 189 -174 199 -174 4 0 39 -22 79
-50 40 -27 78 -50 84 -50 7 0 41 -14 75 -31 89 -46 155 -66 302 -96 291 -59
643 -20 872 96 34 17 69 31 77 31 8 0 21 6 28 13 17 16 126 87 133 87 4 0 38
28 78 61 127 109 240 235 284 316 14 26 28 50 33 53 17 11 94 173 112 237 68
239 86 383 69 556 -24 232 -100 459 -202 600 -16 22 -29 44 -29 49 0 10 -76
101 -146 174 -51 54 -189 174 -199 174 -7 0 -116 71 -133 88 -7 6 -20 12 -28
12 -8 0 -43 14 -77 31 -89 46 -156 67 -297 94 -122 24 -316 38 -410 29z m110
-1138 c0 -338 0 -336 65 -336 65 0 65 0 65 136 0 117 -1 124 -20 124 -18 0
-20 7 -20 55 0 48 3 55 18 53 14 -2 18 6 22 47 5 50 5 50 51 61 25 6 59 19 77
28 17 9 33 16 37 16 3 0 5 -36 5 -80 l0 -80 41 0 40 0 -3 -47 -3 -48 -42 -3
-43 -3 0 -99 c0 -134 7 -150 64 -150 79 0 76 -7 76 171 l0 158 58 17 c31 9 65
20 74 25 30 15 38 10 38 -26 l0 -35 37 20 c61 33 73 28 73 -29 l0 -50 -52 -3
-53 -3 0 -120 0 -120 33 -3 c18 -2 52 4 76 13 l44 17 3 121 c3 101 8 128 24
157 28 48 84 73 162 73 55 1 67 -3 100 -30 44 -35 68 -96 59 -148 -8 -42 -64
-99 -123 -125 -49 -22 -53 -33 -19 -55 22 -15 29 -14 87 5 34 12 72 28 83 35
14 11 23 11 33 4 29 -25 -44 -108 -117 -133 -86 -30 -213 -15 -249 28 -11 14
-15 14 -37 -1 -31 -20 -126 -43 -179 -43 -42 0 -109 20 -126 37 -7 7 -23 4
-49 -9 -53 -26 -150 -35 -201 -18 -34 12 -48 11 -87 0 -124 -36 -243 -17 -279
46 l-19 33 -32 -30 c-79 -74 -278 -84 -333 -16 -15 18 -17 19 -41 3 -58 -38
-244 -64 -271 -37 -28 28 -36 12 -30 -59 l6 -70 -102 0 -101 0 0 244 c0 208
-2 245 -15 250 -8 3 -22 3 -30 0 -18 -7 -18 -4 -5 31 7 18 27 34 65 51 46 21
60 24 91 15 20 -6 47 -20 61 -32 18 -18 26 -20 35 -11 7 7 43 12 89 12 76 0
77 -1 108 -35 17 -20 32 -37 32 -38 1 -1 5 -60 8 -132 l6 -130 30 -3 30 -3 0
129 c0 162 15 201 85 226 100 36 204 6 240 -69 45 -94 15 -159 -103 -221 -43
-22 -46 -27 -36 -46 10 -18 17 -20 73 -15 33 3 78 12 99 21 l37 16 0 255 c0
207 3 255 13 255 8 0 45 13 83 29 38 16 72 30 77 30 4 1 7 -136 7 -303z m-270
-625 c5 -11 10 -47 10 -81 0 -79 -11 -100 -53 -100 -18 0 -38 5 -45 12 -16 16
-16 160 0 176 20 20 76 15 88 -7z"/>
<path d="M622 1678 c-8 -8 -12 -53 -12 -138 0 -114 2 -129 20 -145 18 -17 21
-17 45 -1 25 16 25 19 25 141 0 99 -3 127 -16 139 -18 19 -45 21 -62 4z"/>
</g>
</svg>
