<?xml version="1.0" standalone="no"?>
<!DOCTYPE svg PUBLIC "-//W3C//DTD SVG 20010904//EN"
 "http://www.w3.org/TR/2001/REC-SVG-20010904/DTD/svg10.dtd">
<svg version="1.0" xmlns="http://www.w3.org/2000/svg"
 width="480.000000pt" height="334.000000pt" viewBox="0 0 480.000000 334.000000"
 preserveAspectRatio="xMidYMid meet">

<g transform="translate(0.000000,334.000000) scale(0.100000,-0.100000)"
fill="#000000" stroke="none">
<path d="M2277 2975 c-427 -81 -704 -455 -656 -887 17 -151 89 -338 133 -346
15 -3 17 0 12 14 -4 11 -15 55 -23 99 -45 235 31 494 209 715 68 84 158 154
263 205 111 54 192 75 309 81 50 3 133 15 185 26 l94 22 -44 19 c-140 59 -333
80 -482 52z"/>
<path d="M973 849 c-43 -13 -91 -63 -99 -104 -7 -42 9 -95 39 -123 23 -21 123
-72 143 -72 23 0 64 -42 64 -65 0 -52 -89 -56 -182 -9 -26 13 -50 24 -53 24
-3 0 -5 -22 -5 -49 l0 -50 55 -20 c61 -23 165 -28 212 -10 70 26 111 101 93
169 -14 51 -55 86 -145 123 -85 35 -107 56 -89 85 16 26 99 28 163 3 l51 -19
0 48 0 47 -58 17 c-63 17 -139 20 -189 5z"/>
<path d="M1403 850 c-44 -14 -91 -64 -99 -105 -7 -42 9 -95 39 -123 23 -21
123 -72 143 -72 23 0 64 -42 64 -65 0 -18 -8 -26 -35 -35 -41 -14 -82 -6 -147
26 -26 13 -50 24 -53 24 -3 0 -5 -22 -5 -49 l0 -50 55 -20 c61 -23 165 -28
212 -10 99 37 128 158 56 231 -16 15 -64 43 -107 61 -86 35 -108 56 -90 85 16
26 99 28 163 3 l51 -19 0 47 c0 46 -1 48 -37 60 -52 16 -171 23 -210 11z"/>
<path d="M1927 846 c-60 -16 -124 -61 -154 -105 -93 -137 -21 -325 141 -371
59 -16 198 -8 254 15 42 17 42 17 42 70 l0 54 -62 -26 c-111 -45 -203 -32
-261 37 -39 46 -44 90 -16 147 34 67 91 96 175 90 33 -2 82 -14 108 -25 l47
-21 -3 56 c-3 56 -3 56 -43 70 -58 21 -171 25 -228 9z"/>
<path d="M460 605 l0 -245 60 0 59 0 3 103 3 102 108 3 107 3 0 39 0 40 -110
0 -111 0 3 58 3 57 108 3 107 3 0 39 0 40 -170 0 -170 0 0 -245z"/>
</g>
</svg>
