<?xml version="1.0" standalone="no"?>
<!DOCTYPE svg PUBLIC "-//W3C//DTD SVG 20010904//EN"
 "http://www.w3.org/TR/2001/REC-SVG-20010904/DTD/svg10.dtd">
<svg version="1.0" xmlns="http://www.w3.org/2000/svg"
 width="1200.000000pt" height="381.000000pt" viewBox="0 0 1200.000000 381.000000"
 preserveAspectRatio="xMidYMid meet">
<metadata>
Created by potrace 1.16, written by Peter Selinger 2001-2019
</metadata>
<g transform="translate(0.000000,381.000000) scale(0.100000,-0.100000)"
fill="#000000" stroke="none">
<path d="M845 3329 c25 -23 45 -46 45 -50 0 -5 13 -27 28 -48 34 -47 105 -192
212 -431 67 -150 85 -190 124 -271 20 -42 36 -81 36 -88 0 -6 11 -32 24 -59
13 -26 43 -90 66 -142 42 -93 84 -186 140 -305 16 -33 31 -71 35 -84 4 -14 21
-46 36 -72 16 -25 29 -51 29 -57 0 -6 15 -27 33 -46 17 -20 37 -42 43 -48 20
-23 78 -68 88 -68 5 0 18 -8 28 -17 10 -9 34 -22 53 -28 l33 -12 46 91 c25 50
52 102 60 116 8 14 53 104 100 200 48 96 92 186 100 200 7 14 28 57 46 95 18
39 38 79 44 90 11 21 86 167 109 212 42 84 56 108 66 111 6 2 11 -4 11 -13 0
-10 17 -49 37 -89 37 -72 71 -138 84 -166 4 -8 22 -49 42 -90 52 -113 177
-372 189 -394 5 -11 26 -49 44 -85 46 -88 95 -147 163 -198 48 -37 130 -83
146 -83 2 0 11 21 19 48 8 26 28 75 45 110 17 34 31 67 31 72 0 6 13 37 30 70
16 32 36 76 44 97 26 71 67 168 97 229 16 34 29 67 29 73 0 6 16 43 35 81 19
38 35 76 35 83 0 8 11 34 23 58 13 24 29 61 36 82 7 21 26 63 42 95 16 31 29
63 29 70 0 7 16 44 35 82 19 38 35 74 35 80 0 6 14 38 30 72 17 33 30 65 30
71 0 6 16 43 35 84 19 41 35 78 35 83 0 5 15 42 34 82 19 40 41 90 50 111 l16
37 -285 0 c-183 0 -285 -4 -285 -10 0 -5 5 -10 12 -10 23 0 57 -52 64 -97 12
-82 -4 -191 -42 -278 -19 -45 -34 -84 -34 -88 0 -4 -13 -37 -30 -72 -16 -35
-30 -69 -30 -76 0 -6 -16 -45 -35 -86 -19 -41 -35 -79 -35 -84 0 -6 -16 -44
-35 -85 -19 -41 -35 -80 -35 -86 0 -6 -12 -36 -27 -67 -14 -31 -29 -67 -33
-80 -10 -41 -25 -34 -50 21 -13 29 -37 82 -53 118 -16 36 -42 92 -57 125 -26
57 -76 163 -139 300 -15 33 -61 132 -101 220 -67 147 -116 255 -143 313 -10
22 -11 22 -241 22 l-231 -1 33 -30 c45 -41 90 -126 103 -196 17 -93 -11 -196
-98 -358 -6 -11 -28 -56 -49 -100 -20 -44 -46 -98 -58 -120 -11 -22 -27 -53
-35 -70 -8 -16 -20 -42 -28 -56 -20 -41 -47 -97 -89 -181 -20 -43 -39 -78 -40
-78 -3 0 -40 78 -89 190 -21 47 -50 113 -66 147 -16 34 -29 66 -29 71 0 6 -16
40 -35 76 -19 37 -35 71 -35 78 0 6 -15 43 -34 82 -58 120 -96 205 -96 214 0
4 -16 38 -35 75 -19 37 -35 73 -35 80 0 7 -16 42 -35 77 -19 36 -35 73 -35 83
0 16 -20 17 -275 17 l-275 0 45 -41z"/>
<path d="M5845 3001 c-65 -17 -130 -42 -165 -62 -8 -5 -27 -14 -42 -20 -16 -6
-28 -15 -28 -20 0 -5 -6 -9 -12 -9 -26 0 -120 -105 -149 -166 -52 -107 -50
-201 7 -320 25 -52 118 -154 142 -154 6 0 12 -5 12 -11 0 -5 14 -15 30 -20 17
-6 30 -15 30 -20 0 -5 7 -9 16 -9 8 0 32 -9 52 -19 20 -11 53 -26 72 -34 19
-9 90 -39 157 -68 130 -55 184 -95 209 -155 21 -49 17 -76 -16 -126 -47 -71
-98 -91 -241 -96 -95 -3 -132 0 -203 18 -48 12 -99 28 -114 35 -15 8 -61 30
-102 50 -41 20 -96 51 -121 69 l-46 34 7 -36 c4 -21 21 -77 38 -127 16 -49 34
-107 38 -129 9 -37 12 -39 79 -61 120 -38 231 -55 371 -55 175 0 293 24 417
86 16 8 35 14 43 14 8 0 14 4 14 9 0 5 14 14 30 21 17 7 30 16 30 20 0 4 16
18 35 31 19 13 35 27 35 31 0 4 13 21 29 39 36 39 72 134 78 210 4 44 0 75
-18 131 -23 71 -57 114 -148 191 -26 21 -282 147 -300 147 -7 0 -25 6 -39 13
-15 8 -49 25 -77 38 -27 13 -56 30 -63 37 -7 6 -20 12 -27 12 -8 0 -33 23 -55
51 -34 43 -40 58 -40 99 0 60 30 100 97 130 56 25 224 28 288 5 22 -8 45 -15
52 -15 16 0 129 -66 176 -102 l37 -30 0 156 c0 116 -3 158 -12 161 -109 41
-484 56 -603 26z"/>
<path d="M4039 2955 c17 -20 34 -48 38 -63 10 -35 10 -1239 0 -1274 -4 -15
-21 -43 -38 -63 l-31 -35 561 0 560 0 7 38 c4 20 20 68 37 106 16 39 35 91 41
117 l13 47 -58 -29 c-32 -17 -95 -41 -141 -55 -74 -23 -101 -26 -258 -27 -96
0 -201 2 -232 7 l-58 7 0 236 0 236 186 -5 c169 -5 188 -7 214 -27 16 -11 32
-21 35 -21 3 0 5 59 5 130 l0 130 -220 0 -220 0 0 189 0 189 86 7 c141 12 308
-2 379 -32 33 -14 63 -30 67 -37 4 -6 8 51 8 127 l0 137 -506 0 -506 0 31 -35z"/>
<path d="M6687 2941 c-9 -27 -17 -55 -17 -63 0 -8 -11 -42 -25 -76 -28 -70
-32 -90 -12 -74 6 6 44 22 82 37 62 23 89 27 243 32 l172 6 0 -586 c0 -322 -4
-596 -9 -609 -5 -13 -21 -36 -35 -53 l-26 -30 267 -3 c146 -1 268 0 271 3 3 3
-4 15 -15 28 -49 53 -48 36 -51 661 l-3 589 165 -6 c142 -5 172 -9 208 -28 24
-12 51 -28 60 -36 15 -14 18 -11 28 29 6 23 22 79 36 124 13 44 24 86 24 92 0
9 -159 12 -673 12 l-672 0 -18 -49z"/>
<path d="M8287 2960 c18 -17 36 -43 40 -58 10 -35 10 -1259 0 -1294 -4 -15
-22 -41 -40 -58 l-32 -30 279 0 278 0 -16 23 c-61 84 -65 137 -65 712 0 575 4
628 65 713 l16 22 -278 0 -279 0 32 -30z"/>
<path d="M9103 2955 c21 -19 49 -58 62 -87 l25 -53 0 -578 c0 -631 2 -610 -60
-680 l-32 -37 246 0 c142 0 246 4 246 9 0 5 -11 18 -25 28 -14 10 -34 44 -47
78 -21 57 -22 78 -26 438 -2 207 -1 377 3 377 4 0 42 -37 84 -82 42 -45 101
-107 131 -139 30 -31 72 -75 94 -98 21 -22 43 -41 47 -41 5 0 9 -5 9 -11 0 -5
29 -39 65 -75 36 -36 65 -66 65 -68 0 -2 67 -71 149 -154 135 -138 156 -155
225 -187 43 -19 85 -35 94 -35 9 0 46 -9 80 -20 35 -11 81 -20 102 -20 l39 0
3 643 c4 626 4 644 25 706 15 43 32 72 55 92 l33 28 -253 1 -254 0 37 -42 c62
-74 66 -99 63 -508 l-3 -365 -97 98 c-54 55 -98 100 -98 101 0 1 -42 46 -92
98 -51 53 -142 149 -203 213 -60 65 -138 146 -172 182 -35 36 -63 66 -63 67 0
2 -29 34 -65 72 -36 38 -65 72 -65 77 0 4 -105 7 -232 7 l-233 0 38 -35z"/>
<path d="M10985 2933 c-53 -16 -89 -48 -112 -101 -20 -47 -3 -101 46 -145 106
-96 289 -33 293 101 1 36 -20 92 -42 110 -49 40 -121 54 -185 35z m146 -35
c38 -28 59 -67 59 -109 0 -35 -37 -99 -57 -99 -7 0 -13 -4 -13 -9 0 -14 -79
-30 -108 -21 -52 15 -85 39 -99 71 -27 66 -10 135 44 170 42 28 134 26 174 -3z"/>
<path d="M10980 2795 c0 -50 4 -85 10 -85 6 0 10 18 10 40 0 36 3 40 25 40 15
0 25 -6 25 -15 0 -20 40 -65 59 -65 10 0 7 8 -12 28 -33 34 -34 50 -4 54 28 4
35 43 11 69 -13 14 -31 19 -71 19 l-53 0 0 -85z"/>
<path d="M2275 929 c-100 -23 -157 -64 -199 -143 -44 -83 -30 -170 40 -244 64
-67 110 -85 226 -85 73 0 103 4 122 16 14 10 32 17 40 17 27 0 113 106 119
147 16 95 2 152 -50 208 -44 47 -88 70 -161 84 -61 13 -81 13 -137 0z m163
-56 c35 -22 70 -59 93 -97 25 -41 26 -141 1 -177 -44 -66 -116 -109 -180 -109
-86 0 -194 77 -206 149 -20 119 9 187 99 234 42 23 157 22 193 0z"/>
<path d="M4740 929 c-105 -17 -151 -64 -135 -139 7 -33 66 -87 105 -97 14 -3
34 -12 45 -19 11 -8 26 -14 33 -14 8 0 32 -14 53 -31 38 -30 46 -50 33 -83 -7
-19 -87 -56 -119 -56 -33 0 -127 31 -147 48 -22 19 -23 4 -4 -42 13 -31 17
-33 81 -39 83 -8 149 1 197 25 42 22 50 31 67 75 24 60 -10 114 -90 147 -22 9
-58 24 -81 34 -98 40 -126 95 -65 132 39 24 133 27 163 5 30 -23 44 -18 44 14
0 28 -3 30 -47 36 -27 4 -55 8 -63 10 -8 1 -40 -2 -70 -6z"/>
<path d="M5645 927 c-87 -34 -103 -77 -55 -144 l33 -46 -37 -30 c-46 -37 -66
-75 -66 -124 1 -84 57 -123 178 -123 79 0 99 7 144 52 19 19 20 18 53 -2 71
-44 94 -51 151 -48 l58 3 -56 28 c-76 38 -162 102 -267 195 l-53 48 31 32 c19
18 35 46 38 66 5 30 1 40 -25 66 -17 16 -39 30 -50 30 -11 0 -26 2 -34 4 -7 3
-27 -1 -43 -7z m85 -278 c25 -22 57 -52 72 -65 34 -31 24 -52 -33 -77 -49 -21
-79 -21 -123 -1 -26 13 -36 25 -41 51 -9 47 3 93 29 115 31 26 47 22 96 -23z"/>
<path d="M7996 928 c-37 -6 -72 -19 -93 -35 -30 -23 -33 -30 -33 -78 0 -48 3
-56 32 -80 18 -15 44 -32 58 -37 139 -56 163 -71 173 -107 3 -13 2 -33 -3 -46
-9 -24 -74 -55 -114 -55 -33 0 -128 31 -148 48 -16 14 -17 12 -5 -29 l13 -44
59 -7 c124 -16 228 14 266 76 40 65 15 123 -69 162 -204 95 -229 124 -152 177
31 21 127 22 154 2 31 -23 46 -18 46 15 0 26 -4 30 -37 35 -74 11 -89 12 -147
3z"/>
<path d="M8665 926 c-80 -19 -119 -42 -162 -91 -32 -37 -42 -57 -46 -97 -11
-92 1 -134 55 -194 28 -30 56 -54 64 -54 8 0 26 -7 40 -17 35 -23 206 -23 249
1 17 9 34 16 38 16 5 0 26 17 48 37 136 129 90 327 -90 389 -60 20 -139 25
-196 10z m168 -52 c88 -43 132 -149 103 -247 -18 -62 -42 -88 -110 -118 -89
-39 -186 -10 -253 75 -35 45 -38 54 -38 116 0 60 3 70 34 111 19 25 51 52 70
61 48 21 153 22 194 2z"/>
<path d="M10590 929 c-81 -13 -119 -36 -131 -81 -5 -21 -7 -49 -3 -63 7 -30
68 -83 104 -92 14 -3 34 -12 45 -19 11 -8 25 -14 32 -14 7 0 29 -10 48 -22 31
-20 35 -28 35 -65 0 -40 -2 -43 -46 -63 -26 -11 -57 -20 -69 -20 -33 0 -127
31 -147 48 -22 19 -23 4 -4 -42 13 -32 16 -33 82 -39 124 -12 220 18 255 79
48 81 5 138 -149 196 -109 41 -143 100 -79 138 39 24 132 27 161 5 31 -23 46
-18 46 14 0 28 -3 30 -47 36 -27 4 -55 8 -63 10 -8 1 -40 -2 -70 -6z"/>
<path d="M9869 902 c-14 -37 -11 -42 17 -32 14 6 50 10 80 10 l54 0 0 -191 c0
-112 -4 -198 -10 -210 -10 -18 -7 -19 51 -19 55 0 60 2 53 18 -5 9 -10 104
-12 210 l-3 192 58 0 c32 0 65 -4 73 -10 16 -10 30 4 30 32 0 15 -19 17 -191
20 l-191 3 -9 -23z"/>
<path d="M1328 710 c2 -138 -1 -216 -8 -230 -10 -19 -8 -20 42 -20 l53 0 -4
115 -3 115 147 0 147 0 -3 -115 -4 -115 53 0 c49 0 52 1 42 19 -13 26 -13 396
0 422 10 18 7 19 -42 19 l-53 0 3 -95 4 -95 -147 0 -147 0 4 95 4 95 -46 0
-45 0 3 -210z"/>
<path d="M2806 898 c-9 -36 -7 -39 13 -28 11 5 45 10 76 10 l56 0 -3 -210 -3
-210 59 0 58 0 -16 25 c-13 20 -16 56 -16 210 l0 185 56 0 c30 0 64 -5 75 -10
16 -9 21 -7 29 15 6 15 10 28 10 31 0 2 -87 4 -194 4 -192 0 -194 0 -200 -22z"/>
<path d="M3457 898 c4 -13 8 -109 8 -214 0 -147 -3 -195 -14 -207 -12 -16 -1
-17 145 -17 l159 0 16 38 16 39 -41 -15 c-40 -14 -152 -18 -188 -6 -16 5 -18
17 -18 90 l0 86 70 -4 c69 -3 70 -3 70 22 0 24 -2 25 -67 25 l-68 0 -3 73 -3
74 73 -4 c40 -2 81 -8 91 -12 14 -7 17 -3 17 23 l0 31 -136 0 -135 0 8 -22z"/>
<path d="M4050 894 c16 -42 13 -374 -4 -406 l-15 -28 154 0 155 0 19 39 20 38
-41 -14 c-25 -9 -71 -13 -122 -11 l-81 3 0 203 0 202 -47 0 c-47 0 -47 0 -38
-26z"/>
<path d="M6618 710 c2 -138 -1 -216 -8 -230 -10 -19 -8 -20 50 -20 59 0 70 6
50 26 -7 7 -9 82 -8 205 l3 194 34 3 c47 5 73 -3 104 -32 53 -49 21 -118 -65
-146 -21 -6 -38 -15 -38 -19 0 -7 11 -23 50 -68 5 -7 10 -15 10 -18 0 -2 32
-36 71 -75 69 -69 71 -70 122 -70 l52 1 -35 27 c-32 25 -89 80 -166 163 l-32
34 42 19 c59 27 85 62 86 113 0 39 -4 46 -42 73 -40 29 -43 30 -162 30 l-121
0 3 -210z"/>
<path d="M7290 901 c6 -12 10 -98 10 -211 0 -113 -4 -199 -10 -211 -10 -18 -6
-19 149 -19 l159 0 6 24 c3 13 9 32 13 43 5 15 4 16 -8 7 -21 -17 -78 -28
-139 -26 -92 4 -90 2 -90 99 l0 85 65 -4 c64 -3 65 -3 65 22 0 26 -1 26 -65
22 l-65 -4 0 77 0 77 73 -4 c39 -2 80 -8 90 -12 14 -7 17 -3 17 23 l0 31 -140
0 c-136 0 -140 -1 -130 -19z"/>
<path d="M9298 711 c2 -140 0 -217 -8 -230 -10 -20 -8 -21 42 -21 l53 0 0 212
0 213 37 3 c57 5 106 -23 114 -63 10 -55 -13 -87 -77 -110 l-56 -20 29 -30
c15 -16 28 -34 28 -38 0 -4 16 -23 35 -43 19 -19 35 -37 35 -41 0 -7 41 -46
72 -67 14 -10 42 -16 73 -15 43 0 47 2 31 12 -11 7 -28 20 -38 30 -10 9 -20
17 -23 17 -4 0 -55 49 -55 53 0 2 -22 27 -50 57 l-49 53 40 21 c99 50 111 157
23 200 -26 12 -64 16 -147 16 l-112 0 3 -209z"/>
</g>
</svg>
