<?xml version="1.0" standalone="no"?>
<!DOCTYPE svg PUBLIC "-//W3C//DTD SVG 20010904//EN"
 "http://www.w3.org/TR/2001/REC-SVG-20010904/DTD/svg10.dtd">
<svg version="1.0" xmlns="http://www.w3.org/2000/svg"
 width="800.000000pt" height="611.000000pt" viewBox="0 0 800.000000 611.000000"
 preserveAspectRatio="xMidYMid meet">

<g transform="translate(0.000000,611.000000) scale(0.100000,-0.100000)"
fill="#000000" stroke="none">
<path d="M3750 5690 c-207 -24 -252 -33 -382 -75 -77 -25 -150 -52 -161 -60
-12 -8 -27 -15 -35 -15 -18 0 -188 -101 -259 -154 -92 -70 -226 -208 -257
-267 -7 -13 -29 -51 -48 -84 -19 -33 -48 -105 -64 -160 -40 -143 -39 -270 4
-407 17 -53 39 -110 48 -125 75 -121 114 -172 185 -242 96 -95 130 -110 40
-18 -34 35 -74 81 -88 103 -15 21 -30 41 -34 44 -24 16 -93 202 -108 287 -14
85 -14 100 1 172 24 116 112 302 151 319 4 2 7 9 7 15 0 16 123 130 195 182
74 52 210 135 223 135 5 0 42 16 81 35 39 19 76 35 82 35 6 0 53 13 103 29
202 64 447 96 681 87 152 -5 212 -12 465 -56 123 -21 343 -111 424 -173 19
-15 37 -27 40 -27 3 0 16 -10 29 -22 14 -13 35 -32 48 -44 34 -29 129 -153
129 -168 0 -7 11 -34 24 -62 62 -130 79 -333 37 -458 -51 -156 -128 -276 -246
-381 -37 -33 -77 -69 -89 -81 -11 -12 -30 -24 -42 -28 -11 -3 -29 -14 -40 -24
-28 -26 -177 -96 -274 -130 -256 -90 -608 -126 -831 -87 -102 18 -282 76 -304
99 -9 9 -24 16 -33 16 -21 0 -75 44 -162 131 -55 55 -72 81 -100 150 -30 75
-34 94 -34 179 0 81 4 105 27 161 15 36 27 69 27 73 0 11 59 85 95 118 149
141 436 200 645 134 l45 -14 -85 -1 c-162 -3 -246 -23 -370 -90 -13 -7 -15
-49 -18 -265 l-2 -256 217 2 218 3 3 288 2 287 28 -6 c15 -4 47 -15 71 -25 24
-11 49 -19 56 -19 6 0 19 -8 28 -18 15 -16 17 -50 17 -265 l0 -247 57 0 57 0
-29 -30 c-16 -16 -32 -30 -37 -30 -5 0 -26 -11 -48 -25 -47 -30 -157 -55 -241
-55 -38 0 -59 -4 -59 -11 0 -9 34 -10 123 -6 127 7 219 27 297 67 51 26 140
107 140 127 0 7 6 24 14 36 23 37 39 126 32 181 -9 83 -48 164 -105 223 -29
29 -54 53 -57 53 -3 0 -28 16 -57 35 -62 42 -47 46 25 8 107 -58 134 -79 183
-143 47 -61 75 -144 75 -220 0 -47 -26 -160 -41 -175 -19 -19 -7 -25 51 -25
l60 0 0 515 0 515 -220 0 -220 0 0 -215 c0 -157 3 -215 12 -215 6 0 9 -2 7 -5
-3 -2 -34 6 -69 19 -36 13 -84 27 -107 31 l-43 7 0 189 0 189 -220 0 -220 0 0
-189 0 -189 -110 -36 c-116 -37 -241 -97 -276 -131 -12 -11 -30 -25 -40 -31
-26 -15 -90 -100 -114 -152 -72 -153 -27 -333 124 -489 38 -40 74 -73 79 -73
5 0 23 -12 40 -26 17 -14 76 -48 132 -74 175 -83 148 -73 350 -124 160 -40
264 -49 467 -43 182 5 215 9 398 48 118 24 331 94 387 125 23 13 48 24 55 24
7 0 35 16 62 35 27 19 55 35 61 35 6 0 24 14 40 30 16 17 33 30 37 30 12 0
136 125 174 175 39 50 97 172 119 249 21 71 23 211 5 288 -20 82 -95 241 -147
310 -100 132 -300 303 -433 371 -19 9 -46 24 -60 31 -172 95 -476 197 -649
218 -256 30 -336 33 -471 18z"/>
<path d="M5402 3873 c26 -4 27 -7 31 -76 l3 -72 2 72 c2 66 4 72 25 76 12 2
-3 4 -33 4 -30 0 -43 -2 -28 -4z"/>
<path d="M5522 3803 l1 -78 6 59 6 58 27 -56 c15 -31 32 -56 37 -56 5 0 18 26
28 58 l18 57 3 -57 c4 -85 22 -71 22 17 0 56 -3 75 -13 75 -15 0 -37 -41 -37
-69 0 -9 -6 -26 -14 -37 -14 -19 -15 -19 -22 1 -19 55 -46 105 -54 105 -6 0
-9 -33 -8 -77z"/>
<path d="M2516 3227 c-54 -30 -91 -103 -90 -173 2 -75 35 -128 98 -159 64 -32
115 -32 176 1 82 44 121 154 86 238 -18 43 -53 84 -88 102 -43 22 -136 18
-182 -9z"/>
<path d="M3120 3191 c0 -38 0 -39 48 -48 l47 -8 3 -782 2 -782 -50 -7 -50 -7
0 -38 0 -39 270 0 270 0 0 40 c0 35 -3 40 -24 40 -13 0 -38 3 -55 6 l-31 6 0
829 0 829 -215 0 -215 0 0 -39z"/>
<path d="M390 3136 l0 -44 60 -7 60 -7 0 -748 0 -748 -60 -7 -60 -7 0 -44 0
-44 295 0 295 0 0 44 0 43 -60 7 -60 7 0 339 0 340 380 0 380 0 0 -339 0 -339
-65 -7 -65 -7 0 -44 0 -44 300 0 300 0 0 44 0 44 -60 7 -60 7 0 748 0 749 60
7 60 7 0 43 0 44 -301 0 -300 0 3 -42 3 -43 63 -9 62 -9 0 -318 0 -319 -380 0
-380 0 0 319 0 319 58 8 57 9 3 43 3 42 -295 0 -296 0 0 -44z"/>
<path d="M4230 3005 c-41 -13 -108 -33 -147 -45 l-73 -21 0 -125 0 -124 -120
0 -120 0 0 -55 0 -55 115 0 114 0 3 -462 3 -463 26 -56 c19 -40 39 -65 72 -87
40 -28 54 -32 148 -38 133 -8 275 8 375 43 77 27 79 29 82 63 l3 35 -121 -3
c-67 -2 -133 -1 -146 2 -39 10 -103 74 -114 114 -6 22 -10 200 -10 445 l0 407
145 0 145 0 0 55 0 55 -145 0 -145 0 0 170 c0 94 -3 170 -7 169 -5 0 -42 -11
-83 -24z"/>
<path d="M5246 2701 c-38 -11 -79 -24 -90 -29 -12 -6 -33 -13 -47 -16 -14 -3
-36 -15 -50 -27 -13 -11 -36 -27 -50 -35 -62 -32 -158 -152 -199 -249 -77
-182 -45 -572 56 -672 8 -8 14 -20 14 -27 0 -12 79 -82 115 -102 87 -47 117
-58 203 -75 106 -21 286 -25 362 -9 25 6 65 14 90 18 71 13 186 80 261 152 55
53 76 83 116 165 l48 100 3 155 c5 182 -4 231 -61 350 -69 141 -164 224 -323
281 -81 29 -102 32 -234 35 -121 3 -157 1 -214 -15z m290 -100 c66 -31 84 -52
134 -149 28 -56 34 -80 47 -217 14 -136 14 -171 1 -307 -13 -138 -18 -160 -48
-221 -62 -126 -115 -161 -245 -161 -104 0 -135 12 -188 74 -84 99 -112 213
-112 460 0 243 29 378 98 452 14 15 27 31 28 37 2 5 29 21 59 35 78 35 147 34
226 -3z"/>
<path d="M6968 2681 c-83 -28 -127 -51 -156 -78 -7 -7 -19 -13 -26 -13 -7 0
-26 -13 -42 -30 -47 -47 -54 -40 -54 50 l0 80 -215 0 -215 0 0 -44 0 -44 50
-7 50 -7 0 -508 0 -507 -50 -7 -50 -7 0 -39 0 -40 270 0 270 0 0 39 0 40 -55
6 -55 7 2 437 3 436 87 43 c82 41 91 44 172 44 50 -1 95 -6 109 -14 36 -19 71
-66 93 -123 17 -46 19 -81 19 -435 l0 -385 -55 -10 c-54 -11 -55 -12 -58 -48
l-3 -37 276 0 276 0 -3 37 c-3 37 -4 38 -55 46 l-51 8 -5 422 c-6 505 -9 525
-96 622 -53 61 -125 87 -246 92 -90 3 -109 1 -187 -26z"/>
<path d="M2327 2684 c-4 -4 -7 -22 -7 -40 0 -31 1 -32 58 -40 l57 -9 3 -511 2
-512 -57 -8 c-58 -9 -58 -9 -61 -46 l-3 -38 275 0 276 0 0 39 0 39 -55 7 -55
6 -2 557 -3 557 -211 3 c-115 1 -213 -1 -217 -4z"/>
<path d="M1430 832 c-46 -22 -59 -36 -80 -77 -37 -77 -39 -158 -5 -227 32 -66
62 -90 132 -108 75 -20 152 -1 207 51 36 33 44 47 55 104 20 98 1 173 -55 225
-72 66 -163 78 -254 32z m165 -53 c72 -36 94 -138 51 -239 -11 -29 -24 -39
-63 -53 -66 -24 -115 -9 -155 48 -26 36 -28 47 -25 107 3 77 23 112 78 140 44
23 63 23 114 -3z"/>
<path d="M3076 842 c-37 -13 -53 -25 -68 -52 -41 -79 -8 -138 97 -172 104 -33
138 -75 95 -118 -24 -24 -90 -27 -167 -6 l-51 14 -5 -32 c-6 -39 2 -43 81 -52
74 -8 152 0 180 17 30 19 52 63 52 106 0 39 -22 83 -42 83 -6 0 -19 6 -27 14
-9 7 -41 21 -71 32 -90 30 -112 61 -69 100 25 23 95 22 140 -2 36 -18 34 -19
42 23 6 32 5 33 -45 48 -64 19 -81 18 -142 -3z"/>
<path d="M3700 843 c-19 -10 -41 -29 -48 -43 -16 -31 -9 -94 12 -115 23 -23
20 -32 -14 -50 -64 -33 -90 -126 -51 -177 21 -26 79 -48 127 -48 42 0 115 24
128 42 10 14 15 13 46 -8 35 -24 65 -30 87 -16 9 6 0 20 -29 50 l-41 43 16 35
c18 37 23 104 8 104 -5 0 -16 3 -24 6 -11 4 -19 -8 -31 -49 l-16 -55 -42 42
c-45 44 -78 85 -102 127 -13 23 -13 28 0 48 18 25 50 27 101 6 19 -8 37 -15
38 -15 2 0 5 13 7 29 5 36 -17 51 -86 57 -37 4 -60 0 -86 -13z m78 -280 l52
-57 -30 -19 c-43 -27 -107 -20 -127 14 -10 17 -13 36 -9 53 7 27 39 66 55 66
5 0 31 -26 59 -57z"/>
<path d="M5220 841 c-45 -18 -78 -62 -80 -103 -1 -48 47 -107 87 -108 12 0 24
-4 28 -9 3 -5 18 -12 35 -16 42 -9 80 -42 80 -70 0 -51 -86 -70 -183 -40 -51
15 -50 16 -60 -33 -7 -30 21 -37 145 -37 82 0 101 3 125 21 35 27 49 84 34
139 -12 42 -41 62 -151 100 -75 26 -90 63 -37 95 34 21 72 20 134 -6 31 -12
33 -12 39 12 10 39 -1 51 -56 63 -67 14 -86 13 -140 -8z"/>
<path d="M5656 845 c-22 -8 -57 -32 -79 -53 -46 -47 -61 -108 -50 -207 5 -52
11 -65 50 -106 37 -39 52 -48 103 -59 32 -7 70 -10 85 -6 14 3 37 9 53 12 50
13 79 42 117 124 22 46 16 158 -11 197 -10 15 -23 37 -29 47 -5 10 -17 22 -25
26 -89 44 -144 50 -214 25z m149 -72 c31 -22 65 -90 65 -129 0 -83 -42 -146
-109 -164 -35 -9 -48 -8 -86 9 -25 11 -48 28 -51 38 -3 10 -10 26 -15 35 -13
25 -10 116 5 158 9 24 25 41 57 58 50 26 92 25 134 -5z"/>
<path d="M6957 846 c-67 -24 -106 -79 -93 -131 8 -33 58 -85 82 -86 10 0 48
-14 84 -32 53 -26 66 -37 68 -59 6 -52 -77 -72 -183 -44 -54 14 -65 9 -65 -30
0 -29 19 -35 120 -41 102 -6 149 9 180 59 23 37 22 84 -4 123 -16 25 -133 85
-164 85 -23 0 -52 30 -52 53 0 45 106 65 169 32 29 -15 30 -14 36 15 9 40 3
47 -56 59 -63 14 -75 13 -122 -3z"/>
<path d="M860 635 l0 -215 40 0 40 0 0 95 0 95 105 0 105 0 0 -95 0 -95 40 0
40 0 0 215 0 215 -40 0 -40 0 0 -85 0 -85 -105 0 -105 0 0 85 0 85 -40 0 -40
0 0 -215z"/>
<path d="M1790 815 l0 -35 70 0 70 0 0 -180 0 -180 40 0 40 0 0 180 0 180 75
0 c67 0 75 2 75 19 0 51 0 51 -191 51 l-179 0 0 -35z"/>
<path d="M2260 635 l0 -215 140 0 140 0 0 35 0 35 -105 0 -105 0 0 60 0 60 85
0 c89 0 91 1 79 48 -6 20 -12 22 -85 22 l-79 0 0 50 0 50 100 0 100 0 0 35 0
35 -135 0 -135 0 0 -215z"/>
<path d="M2660 635 l0 -215 126 0 125 0 -3 28 c-3 27 -3 27 -90 30 l-88 3 0
184 0 185 -35 0 -35 0 0 -215z"/>
<path d="M4310 635 l0 -215 40 0 40 0 0 85 c0 77 2 85 19 85 20 0 67 -49 118
-123 32 -47 44 -52 91 -39 22 7 21 8 -19 67 -23 33 -46 62 -51 63 -4 2 -13 12
-18 23 -9 16 -5 21 29 38 33 17 40 27 46 61 9 51 -2 115 -22 132 -31 25 -90
38 -180 38 l-93 0 0 -215z m211 124 c23 -27 24 -43 2 -79 -18 -31 -38 -40 -95
-40 l-38 0 0 76 0 77 56 -6 c40 -4 61 -12 75 -28z"/>
<path d="M4750 635 l0 -215 140 0 140 0 0 35 0 35 -105 0 -105 0 0 60 0 60 85
0 c77 0 85 2 85 19 0 46 -8 51 -91 51 l-79 0 0 50 0 49 103 3 102 3 3 33 3 32
-140 0 -141 0 0 -215z"/>
<path d="M6050 635 l0 -215 40 0 40 0 0 85 c0 82 1 85 23 84 14 0 38 -20 70
-59 26 -32 47 -62 47 -67 0 -6 9 -18 20 -28 14 -13 28 -16 55 -11 19 4 35 8
35 10 0 13 -37 69 -70 105 -41 46 -51 71 -26 71 8 0 28 13 45 29 27 25 31 36
31 79 0 97 -58 132 -219 132 l-91 0 0 -215z m213 124 c22 -27 22 -61 -1 -89
-14 -18 -32 -24 -75 -28 l-57 -4 0 77 0 78 58 -6 c42 -4 62 -12 75 -28z"/>
<path d="M6432 818 l3 -33 68 -3 67 -3 0 -179 0 -180 40 0 40 0 0 180 0 180
75 0 c67 0 75 2 75 19 0 51 0 51 -192 51 l-179 0 3 -32z"/>
</g>
</svg>
