<?xml version="1.0" standalone="no"?>
<!DOCTYPE svg PUBLIC "-//W3C//DTD SVG 20010904//EN"
 "http://www.w3.org/TR/2001/REC-SVG-20010904/DTD/svg10.dtd">
<svg version="1.0" xmlns="http://www.w3.org/2000/svg"
 width="654.000000pt" height="427.000000pt" viewBox="0 0 654.000000 427.000000"
 preserveAspectRatio="xMidYMid meet">

<g transform="translate(0.000000,427.000000) scale(0.100000,-0.100000)"
fill="#000000" stroke="none">
<path d="M2979 4126 c-2 -2 -65 -9 -139 -15 -421 -37 -846 -134 -1230 -282
-138 -53 -446 -212 -575 -297 -413 -271 -710 -623 -824 -976 -59 -185 -65
-226 -65 -431 0 -173 3 -200 28 -300 140 -562 603 -1032 1338 -1358 644 -285
1515 -403 2299 -312 666 77 1245 273 1701 574 797 527 1080 1273 751 1981
-175 377 -551 734 -1032 979 -420 214 -922 359 -1421 410 -58 6 -149 15 -202
21 -90 9 -620 15 -629 6z m741 -102 c544 -51 1087 -205 1500 -426 602 -322
983 -767 1075 -1253 22 -118 20 -333 -5 -456 -112 -547 -595 -1042 -1321
-1352 -1291 -551 -3034 -393 -4041 366 -367 276 -604 618 -679 978 -25 121
-30 341 -10 449 100 535 520 1001 1196 1326 648 311 1469 443 2285 368z"/>
<path d="M3276 3971 c-2 -3 -6 -42 -7 -86 l-4 -80 65 -3 c61 -3 90 -14 90 -33
0 -16 -60 -77 -89 -89 -21 -8 -27 -17 -24 -31 3 -10 10 -19 16 -19 22 0 106
99 118 139 16 53 2 71 -57 71 -68 0 -94 14 -94 51 0 18 7 37 16 43 18 13 10
43 -12 43 -8 0 -16 -3 -18 -6z"/>
<path d="M2840 3875 c1 -31 21 -40 92 -40 72 0 73 0 76 -28 3 -22 -6 -37 -37
-69 -41 -40 -54 -78 -27 -78 15 0 59 60 75 103 15 39 14 104 -1 114 -19 12
-178 10 -178 -2z"/>
<path d="M2718 3858 c-17 -14 -32 -88 -18 -88 9 0 19 22 30 68 9 37 9 36 -12
20z"/>
<path d="M2767 3863 c-12 -21 -17 -83 -7 -83 12 0 30 42 30 71 0 19 -15 26
-23 12z"/>
<path d="M2465 3832 c3 -8 5 -21 5 -29 0 -13 11 -14 75 -8 64 6 76 4 81 -9 10
-27 -5 -63 -41 -97 -37 -36 -47 -73 -18 -67 44 8 101 167 74 207 -13 20 -184
22 -176 3z"/>
<path d="M3488 3827 c-3 -13 1 -33 9 -43 8 -11 13 -46 13 -90 0 -40 3 -75 8
-77 4 -2 35 -1 70 3 78 10 107 34 128 107 8 29 20 55 25 58 23 15 8 35 -26 35
-39 0 -42 -5 -20 -30 18 -20 3 -79 -30 -110 -27 -25 -85 -38 -85 -19 1 20 38
101 57 121 21 23 10 48 -21 48 -30 0 -42 -16 -26 -35 9 -11 6 -28 -11 -74 -12
-34 -25 -61 -30 -61 -10 0 -29 65 -29 98 0 12 7 25 15 28 21 8 19 40 -2 48
-10 3 -23 8 -29 11 -7 3 -14 -5 -16 -18z"/>
<path d="M4036 3810 c-3 -8 -5 -31 -5 -50 1 -19 -5 -59 -12 -88 -11 -43 -17
-52 -31 -49 -11 3 -22 -2 -28 -13 -8 -15 -4 -19 26 -25 20 -3 38 -4 41 -2 2 3
9 36 15 73 14 88 21 96 75 81 57 -15 68 -43 48 -120 -19 -72 -19 -77 0 -77 8
0 15 2 15 5 0 3 7 40 16 81 24 119 22 126 -61 147 -38 11 -75 26 -81 36 -11
14 -13 14 -18 1z"/>
<path d="M2867 3773 c-3 -4 -1 -35 4 -68 4 -33 11 -81 14 -107 4 -31 11 -48
20 -48 21 0 25 14 15 51 -5 19 -13 65 -17 103 -7 62 -23 92 -36 69z"/>
<path d="M4270 3720 c0 -20 5 -30 15 -30 32 0 35 -49 10 -159 -6 -26 -5 -33 6
-29 15 5 63 183 55 205 -3 7 -15 13 -26 13 -11 0 -23 7 -26 15 -11 27 -34 17
-34 -15z"/>
<path d="M2494 3732 c-7 -5 -6 -43 5 -120 15 -103 17 -112 33 -100 15 12 15
19 2 78 -7 36 -14 82 -14 102 0 38 -9 51 -26 40z"/>
<path d="M2144 3720 c-12 -5 -24 -20 -28 -34 -8 -32 -22 -34 -29 -5 -4 15 -11
20 -23 15 -9 -3 -22 -2 -29 4 -18 15 -25 0 -14 -27 5 -13 17 -23 28 -23 24 0
29 -16 35 -100 3 -45 8 -65 18 -65 10 0 13 19 13 75 0 83 13 117 50 126 32 8
41 1 70 -57 l25 -49 -36 -15 c-20 -8 -43 -15 -50 -15 -8 0 -14 -11 -14 -26 0
-19 4 -24 18 -20 115 33 105 26 99 70 -2 23 -16 67 -30 99 -23 50 -29 57 -54
56 -15 0 -38 -4 -49 -9z"/>
<path d="M4392 3693 c3 -23 10 -29 51 -39 26 -7 54 -18 62 -24 17 -14 20 -56
6 -92 -19 -53 -22 -78 -7 -78 9 0 21 28 34 82 27 108 20 128 -58 145 -30 6
-56 17 -58 22 -2 6 -10 11 -18 11 -11 0 -14 -8 -12 -27z"/>
<path d="M1880 3648 c0 -24 21 -46 39 -41 25 6 51 -31 51 -74 0 -24 -7 -37
-25 -49 -25 -17 -32 -38 -16 -48 18 -11 40 6 46 35 8 35 17 37 38 7 12 -18 18
-20 27 -11 10 9 7 19 -13 45 -14 18 -33 53 -43 78 -9 25 -21 49 -25 54 -10 12
-79 15 -79 4z"/>
<path d="M4613 3627 c-6 -13 -8 -29 -4 -36 4 -6 -3 -43 -16 -82 -13 -40 -23
-77 -23 -84 0 -16 82 -45 127 -45 27 0 44 12 98 64 36 35 65 68 65 73 0 5 -12
15 -27 22 -31 14 -46 0 -37 -35 8 -32 -48 -84 -91 -84 -68 0 -71 9 -19 61 27
27 54 49 60 49 7 0 15 7 18 16 7 19 8 17 -22 33 -29 15 -42 7 -42 -28 0 -19
-13 -40 -45 -71 -40 -40 -45 -42 -45 -22 0 13 5 43 11 68 8 32 16 44 30 44 24
0 24 28 0 58 -24 27 -25 27 -38 -1z"/>
<path d="M1740 3608 c0 -22 15 -38 36 -38 21 0 26 -10 53 -97 16 -54 32 -113
36 -131 5 -24 12 -32 23 -30 21 5 20 15 -19 118 -20 54 -31 104 -31 137 l-1
52 -48 -2 c-27 -1 -49 -5 -49 -9z"/>
<path d="M4901 3502 c-15 -28 -11 -35 37 -56 51 -23 67 -56 51 -105 -6 -20
-15 -40 -19 -45 -5 -4 -34 3 -65 18 -65 29 -76 31 -93 14 -10 -10 3 -19 59
-45 68 -32 72 -32 98 -17 32 19 77 130 66 165 -4 12 -26 29 -53 42 -26 11 -52
27 -58 35 -10 14 -13 13 -23 -6z"/>
<path d="M2985 3503 c-27 -2 -111 -10 -185 -19 -513 -59 -990 -221 -1337 -453
-145 -97 -319 -260 -399 -372 -65 -93 -134 -236 -160 -334 -28 -104 -25 -303
5 -410 134 -480 667 -874 1436 -1064 630 -156 1360 -143 1974 34 688 198 1173
571 1300 1000 144 491 -158 977 -804 1295 -356 175 -766 281 -1228 319 -116
10 -479 12 -602 4z m-1235 -933 c0 -5 -18 -10 -40 -10 -51 0 -98 -24 -105 -53
-3 -12 -4 -82 -3 -155 l3 -134 154 99 c85 54 179 121 210 150 48 44 54 54 45
70 -7 12 -25 19 -53 21 -22 2 -41 7 -41 13 0 5 81 9 200 9 187 0 255 -10 158
-23 -63 -8 -173 -69 -356 -196 -158 -109 -163 -114 -145 -131 42 -40 460 -314
520 -342 36 -16 87 -32 114 -35 119 -14 41 -23 -200 -23 -167 0 -261 4 -261
10 0 6 11 10 24 10 39 0 56 11 56 36 0 19 -36 48 -202 161 -111 76 -208 142
-215 146 -10 6 -13 -21 -13 -143 0 -147 1 -152 25 -175 19 -20 34 -25 75 -25
27 0 50 -4 50 -10 0 -6 -84 -10 -231 -10 -129 0 -228 4 -225 9 3 5 31 11 61
13 94 8 90 -8 90 348 0 305 0 310 -22 331 -16 16 -38 24 -77 27 -31 2 -56 8
-56 13 0 5 104 9 230 9 147 0 230 -4 230 -10z m1380 -280 c106 -159 196 -290
200 -290 4 0 94 131 199 290 l190 290 156 0 c97 0 155 -4 155 -10 0 -5 -17
-10 -39 -10 -57 0 -98 -18 -110 -48 -6 -17 -9 -136 -8 -324 2 -342 -1 -328 92
-336 30 -2 58 -8 61 -13 3 -5 -99 -9 -231 -9 -155 0 -234 3 -230 10 3 6 29 10
56 10 40 0 55 5 74 25 l25 24 0 276 c0 151 -2 275 -5 275 -5 0 -352 -523 -390
-588 -11 -18 -27 -32 -37 -32 -13 0 -78 91 -218 303 -110 166 -205 304 -210
305 -8 3 -10 -84 -8 -273 l3 -277 24 -19 c16 -13 39 -19 72 -19 26 0 51 -4 54
-10 4 -7 -62 -10 -190 -10 -128 0 -194 3 -190 10 3 6 29 10 56 10 40 0 55 5
74 25 l25 24 0 300 c0 297 0 300 -22 326 -17 19 -36 27 -75 32 -102 11 -52 23
100 23 l154 0 193 -290z m1864 266 c145 -33 256 -108 307 -208 31 -59 38 -177
14 -247 -26 -78 -100 -153 -199 -201 -131 -63 -188 -70 -556 -70 -181 0 -319
4 -316 9 3 5 31 11 62 13 40 3 61 10 70 23 11 15 14 85 14 330 0 360 4 345
-95 353 -30 2 -55 9 -55 14 0 18 671 3 754 -16z m-2337 -1046 c-14 -11 -32
-20 -41 -20 -14 0 -14 3 -4 20 8 13 24 20 42 20 l29 0 -26 -20z m-642 -80 c21
-22 43 -40 48 -40 5 0 31 18 57 40 33 28 57 40 79 40 l31 0 0 -115 0 -115 -35
0 -35 0 0 70 c0 39 -3 70 -6 70 -4 0 -24 -16 -46 -35 l-39 -36 -44 37 -45 36
0 -71 0 -71 -35 0 -35 0 0 115 0 115 33 0 c25 0 42 -9 72 -40z m715 20 c0 -18
-7 -20 -70 -20 l-70 0 0 -30 0 -30 64 0 c46 0 65 -4 69 -14 9 -22 -2 -26 -70
-26 -61 0 -63 -1 -63 -25 0 -24 2 -25 69 -25 50 0 70 -4 74 -14 3 -8 3 -17 0
-20 -4 -3 -53 -6 -110 -6 l-103 0 0 115 0 115 105 0 c98 0 105 -1 105 -20z
m400 -10 c15 -16 32 -30 37 -30 5 0 22 14 38 30 24 25 37 30 74 30 l45 0 -54
-55 -55 -56 62 -59 61 -60 -48 0 c-38 0 -52 5 -67 23 -42 51 -49 53 -93 13
-33 -29 -48 -36 -82 -36 l-42 0 59 61 60 60 -60 54 -60 55 48 0 c42 0 53 -5
77 -30z m550 -85 l0 -115 -35 0 -35 0 0 115 0 115 35 0 35 0 0 -115z m550 106
c15 -4 26 -15 28 -29 4 -25 4 -25 -52 -11 -56 14 -120 -2 -142 -36 -13 -21
-14 -28 -2 -52 19 -40 78 -58 141 -44 63 14 62 14 64 -9 2 -26 -31 -35 -122
-34 -86 1 -131 21 -151 69 -20 48 -18 60 14 95 44 50 143 73 222 51z m592 -18
c18 -10 41 -34 50 -52 14 -29 15 -39 4 -65 -45 -110 -275 -113 -320 -4 -35 82
52 153 176 144 32 -2 73 -13 90 -23z"/>
<path d="M4588 2533 l-38 -4 0 -323 0 -324 23 -6 c48 -13 253 -6 308 10 164
49 256 151 267 295 12 173 -100 303 -297 345 -62 13 -177 16 -263 7z"/>
<path d="M4670 1417 c-42 -14 -60 -53 -42 -91 24 -53 150 -54 174 -1 17 38 2
74 -37 91 -41 17 -49 17 -95 1z"/>
<path d="M1471 3460 c-35 -21 -70 -36 -77 -33 -18 7 -18 -8 1 -33 14 -19 15
-18 65 9 27 15 54 27 60 27 5 0 28 -31 51 -70 23 -38 45 -70 50 -70 22 0 15
24 -22 79 -27 38 -42 72 -43 92 -1 18 -5 33 -11 35 -5 1 -39 -15 -74 -36z"/>
<path d="M5103 3413 c-3 -10 -8 -21 -10 -26 -3 -4 30 -24 71 -43 42 -20 76
-38 76 -39 0 -2 -16 -40 -35 -85 -34 -80 -34 -81 -13 -78 14 2 24 11 26 23 8
48 45 123 63 128 40 11 18 35 -66 72 -47 21 -85 44 -85 52 0 19 -20 16 -27 -4z"/>
<path d="M1329 3369 c-8 -5 -24 -9 -36 -9 -26 0 -29 -9 -9 -35 12 -17 17 -18
40 -7 24 11 28 9 54 -27 15 -22 35 -53 44 -70 17 -31 38 -41 38 -18 0 6 -9 26
-21 42 -11 17 -31 51 -44 76 -26 50 -43 63 -66 48z"/>
<path d="M1171 3280 c-34 -22 -66 -38 -71 -35 -18 11 -19 -13 -1 -29 21 -19
39 -14 90 25 13 11 27 19 31 19 4 0 29 -31 56 -70 37 -54 50 -67 60 -59 11 9
7 19 -20 53 -41 50 -60 85 -60 110 -1 32 -19 29 -85 -14z"/>
<path d="M5045 3260 c-23 -46 -24 -50 -7 -50 11 0 26 16 40 45 26 54 26 55 7
55 -8 0 -26 -22 -40 -50z"/>
<path d="M5455 3230 c-17 -19 -16 -21 24 -69 l41 -49 -67 -60 c-57 -51 -65
-62 -50 -68 14 -5 32 7 72 46 34 34 59 51 68 47 19 -7 41 18 31 35 -4 7 -25
34 -46 59 -21 26 -38 54 -38 63 0 22 -13 20 -35 -4z"/>
<path d="M870 3035 c-30 -30 -60 -55 -67 -55 -7 0 -13 -4 -13 -10 0 -11 35
-32 47 -28 4 1 31 -20 60 -47 47 -44 51 -51 37 -66 -12 -14 -12 -18 -1 -27 11
-9 19 -6 38 14 l24 26 -35 29 c-19 16 -51 43 -69 60 l-35 30 40 40 c49 49 69
47 139 -16 27 -24 53 -41 57 -39 10 7 10 34 0 34 -4 0 -36 25 -70 55 -35 30
-71 55 -80 55 -10 0 -42 -25 -72 -55z"/>
<path d="M5606 3061 c-9 -9 -16 -26 -16 -35 0 -24 -52 -116 -66 -116 -6 0 -21
11 -34 25 -22 23 -25 24 -41 9 -23 -21 -18 -29 39 -65 54 -34 91 -36 152 -8
25 12 54 22 65 23 26 1 31 33 9 57 -13 15 -20 16 -31 7 -8 -6 -12 -20 -11 -31
2 -15 -6 -23 -32 -33 -41 -15 -77 -17 -84 -6 -8 13 51 95 70 98 27 4 40 22 26
36 -7 7 -12 20 -12 29 0 26 -15 31 -34 10z"/>
<path d="M720 2959 c0 -15 12 -37 31 -55 l32 -29 -7 30 c-4 17 -18 41 -32 55
l-24 25 0 -26z"/>
<path d="M690 2907 c0 -13 14 -36 30 -52 38 -36 40 -15 5 38 -30 43 -35 45
-35 14z"/>
<path d="M5742 2888 c-19 -20 -20 -22 -4 -46 16 -25 16 -26 -47 -83 -48 -45
-60 -60 -48 -65 11 -4 40 15 87 57 66 59 83 90 60 104 -5 3 -10 15 -10 25 0
28 -14 31 -38 8z"/>
<path d="M665 2780 c-10 -11 -24 -20 -32 -20 -22 0 -15 -26 11 -38 20 -9 27
-7 42 9 21 24 42 19 104 -25 65 -46 67 -47 73 -32 4 9 -24 33 -77 70 -46 31
-88 56 -93 56 -5 0 -18 -9 -28 -20z"/>
<path d="M2456 633 c-10 -48 -36 -217 -36 -234 0 -20 57 -32 64 -13 2 6 8 32
11 58 4 25 11 46 15 46 4 0 26 -31 49 -69 36 -61 44 -69 76 -73 19 -2 35 -1
35 3 0 4 -20 41 -44 81 l-43 74 54 60 54 59 -33 7 c-30 6 -38 2 -90 -50 -60
-58 -63 -57 -48 18 9 49 2 60 -37 60 -15 0 -23 -8 -27 -27z"/>
<path d="M3982 647 c-47 -9 -53 -13 -48 -31 3 -12 15 -74 27 -139 l21 -118 32
7 c17 3 33 8 35 10 2 2 -2 23 -8 48 -15 62 -14 66 14 66 18 0 35 -14 62 -50
34 -46 40 -50 68 -44 16 3 32 8 33 9 7 6 -58 94 -75 103 -15 9 -15 11 1 33 23
33 20 66 -9 94 -27 28 -60 30 -153 12z m92 -43 c35 -13 11 -64 -30 -64 -15 0
-24 8 -28 27 -10 36 17 53 58 37z"/>
<path d="M3747 607 l-79 -10 6 -41 c3 -22 10 -85 17 -138 9 -77 15 -98 27 -98
54 0 192 24 192 34 -1 32 -17 38 -80 28 -66 -10 -67 -9 -72 38 -3 23 1 25 60
33 57 8 62 11 62 33 0 24 -2 24 -67 22 -66 -3 -68 -2 -68 22 0 27 23 37 86 39
42 1 48 6 42 32 -6 21 -8 21 -126 6z"/>
<path d="M2781 592 c-52 -26 -76 -65 -76 -122 0 -52 19 -87 68 -124 34 -25
128 -28 171 -6 66 34 94 123 59 190 -35 68 -148 100 -222 62z m119 -47 c56
-29 68 -98 24 -142 -22 -22 -32 -25 -71 -20 -96 11 -114 118 -28 165 27 15 41
15 75 -3z"/>
<path d="M3138 583 c-15 -2 -37 -16 -48 -30 -41 -52 -18 -101 67 -138 40 -18
54 -29 51 -42 -4 -24 -56 -28 -103 -9 l-36 16 3 -28 c4 -35 38 -52 106 -52 43
0 58 5 77 25 28 27 32 70 10 101 -8 12 -39 33 -70 48 -30 14 -55 32 -55 41 0
20 43 29 81 16 45 -15 49 -14 49 14 0 25 1 24 -90 39 -8 2 -27 1 -42 -1z"/>
<path d="M3552 581 c-9 -5 -12 -24 -10 -57 l3 -49 -72 -3 -73 -3 0 33 c0 56
-10 78 -36 78 -12 0 -26 -5 -29 -11 -4 -6 -4 -69 0 -140 l7 -130 32 3 c31 3
31 4 31 58 l0 55 73 3 72 3 0 -40 c0 -57 8 -71 41 -71 28 0 29 2 29 48 0 27
-3 90 -6 140 -6 85 -9 92 -28 92 -12 0 -27 -4 -34 -9z"/>
</g>
</svg>
