<?xml version="1.0" standalone="no"?>
<!DOCTYPE svg PUBLIC "-//W3C//DTD SVG 20010904//EN"
 "http://www.w3.org/TR/2001/REC-SVG-20010904/DTD/svg10.dtd">
<svg version="1.0" xmlns="http://www.w3.org/2000/svg"
 width="700.000000pt" height="500.000000pt" viewBox="0 0 700.000000 500.000000"
 preserveAspectRatio="xMidYMid meet">
<metadata>
Created by potrace 1.16, written by Peter Selinger 2001-2019
</metadata>
<g transform="translate(0.000000,500.000000) scale(0.100000,-0.100000)"
fill="#000000" stroke="none">
<path d="M2595 3208 c-10 -34 -79 -245 -83 -255 -2 -8 5 -13 21 -13 22 0 27 6
33 35 6 33 9 35 45 35 35 0 40 -4 53 -35 10 -24 22 -35 35 -35 12 0 21 3 21 7
0 4 -21 67 -47 140 -44 122 -66 157 -78 121z"/>
<path d="M2888 3191 c-29 -25 -32 -35 -36 -95 -5 -75 8 -117 46 -147 14 -11
30 -30 36 -42 9 -17 22 -23 54 -25 37 -3 42 -1 42 17 0 17 -6 21 -30 21 -36 0
-39 12 -6 29 67 36 72 201 8 251 -35 28 -76 25 -114 -9z m97 -41 c20 -38 19
-119 -1 -148 -26 -38 -66 -26 -82 23 -33 100 39 210 83 125z"/>
<path d="M4542 3092 c-23 -70 -42 -133 -42 -140 0 -7 9 -12 19 -12 13 0 23 11
31 35 11 32 15 35 50 35 35 0 39 -3 50 -35 9 -27 17 -35 35 -35 l24 0 -44 123
c-57 161 -55 157 -69 157 -6 0 -31 -58 -54 -128z"/>
<path d="M2190 3190 c0 -16 7 -20 35 -20 l35 0 0 -115 0 -115 25 0 25 0 0 115
0 115 35 0 c28 0 35 4 35 20 0 19 -7 20 -95 20 -88 0 -95 -1 -95 -20z"/>
<path d="M3527 3078 l2 -133 85 -3 c81 -3 86 -2 86 18 0 18 -6 20 -65 20 l-65
0 0 40 0 40 55 0 c48 0 55 2 55 20 0 18 -7 20 -55 20 l-55 0 0 35 0 35 65 0
c58 0 65 2 65 20 0 18 -7 20 -87 20 l-88 0 2 -132z"/>
<path d="M3850 3075 l0 -135 25 0 c24 0 25 3 25 60 0 46 3 60 15 60 8 0 28
-27 45 -60 25 -50 35 -60 56 -60 14 0 24 3 22 8 -2 4 -15 30 -30 58 l-27 51
24 23 c33 31 33 79 2 108 -19 18 -35 22 -90 22 l-67 0 0 -135z"/>
<path d="M4200 3196 c0 -8 10 -16 23 -18 21 -3 22 -8 25 -100 l3 -98 -31 0
c-25 0 -31 -4 -28 -17 3 -15 16 -18 81 -21 72 -3 77 -1 77 18 0 16 -6 20 -30
20 l-31 0 3 98 3 97 28 3 c15 2 27 9 27 18 0 11 -17 14 -75 14 -58 0 -75 -3
-75 -14z"/>
<path d="M3190 3087 c0 -106 2 -115 23 -135 30 -28 95 -30 128 -3 22 18 24 27
27 135 l4 116 -26 0 -26 0 0 -110 c0 -108 -1 -111 -25 -122 -21 -9 -28 -8 -45
7 -18 16 -20 31 -20 122 0 96 -1 103 -20 103 -19 0 -20 -7 -20 -113z"/>
<path d="M2253 2530 c-56 -34 -58 -43 -58 -305 0 -262 2 -271 58 -305 27 -17
51 -20 150 -20 186 0 217 24 217 165 l0 76 -67 -3 -68 -3 -3 -58 -3 -58 -67 3
-67 3 0 200 0 200 67 3 67 3 3 -53 3 -53 68 -3 67 -3 0 71 c0 137 -31 160
-212 160 -104 0 -128 -3 -155 -20z"/>
<path d="M3118 2534 c-55 -29 -58 -48 -58 -349 l0 -276 68 3 67 3 3 63 3 62
74 0 75 0 0 -65 0 -65 70 0 70 0 0 271 c0 305 -5 329 -66 355 -47 20 -269 19
-306 -2z m230 -241 l3 -133 -76 0 -75 0 0 135 0 136 73 -3 72 -3 3 -132z"/>
<path d="M6183 2531 c-17 -11 -37 -29 -42 -40 -7 -12 -11 -121 -11 -300 l0
-281 65 0 65 0 0 65 0 66 76 -3 77 -3 1 -60 1 -60 73 -3 72 -3 0 266 c0 372 2
368 -209 373 -121 2 -139 1 -168 -17z m227 -111 c1 -5 1 -65 1 -132 l0 -123
-75 -3 -76 -3 0 129 c0 71 3 132 7 135 10 11 143 8 143 -3z"/>
<path d="M340 2225 l0 -315 190 0 190 0 0 60 0 60 -120 0 -120 0 0 65 0 65 90
0 90 0 0 60 0 60 -90 0 -90 0 0 70 0 69 118 3 117 3 3 58 3 57 -191 0 -190 0
0 -315z"/>
<path d="M1160 2225 l0 -315 185 0 185 0 0 60 0 60 -115 0 -115 0 0 255 0 255
-70 0 -70 0 0 -315z"/>
<path d="M3930 2225 l0 -315 185 0 186 0 -3 58 -3 57 -112 3 -113 3 0 254 0
255 -70 0 -70 0 0 -315z"/>
<path d="M4730 2225 l0 -315 75 0 75 0 0 315 0 315 -75 0 -75 0 0 -315z"/>
<path d="M5310 2225 l0 -316 71 3 71 3 1 120 2 120 90 5 90 5 3 57 3 57 -93 3
-93 3 0 65 0 65 115 5 115 5 3 58 3 57 -191 0 -190 0 0 -315z"/>
</g>
</svg>
