<?xml version="1.0" standalone="no"?>
<!DOCTYPE svg PUBLIC "-//W3C//DTD SVG 20010904//EN"
 "http://www.w3.org/TR/2001/REC-SVG-20010904/DTD/svg10.dtd">
<svg version="1.0" xmlns="http://www.w3.org/2000/svg"
 width="1116.000000pt" height="577.000000pt" viewBox="0 0 1116.000000 577.000000"
 preserveAspectRatio="xMidYMid meet">

<g transform="translate(0.000000,577.000000) scale(0.100000,-0.100000)"
fill="#000000" stroke="none">
<path d="M5561 5495 c-24 -11 -32 -20 -29 -33 5 -16 657 -1432 665 -1441 5 -7
55 33 77 62 l19 26 -318 693 c-175 381 -323 696 -329 700 -17 12 -47 9 -85 -7z"/>
<path d="M5953 5474 c8 -16 128 -276 267 -579 139 -302 256 -554 260 -559 12
-13 68 105 92 193 28 106 28 276 -1 386 -78 298 -314 528 -594 580 l-39 8 15
-29z"/>
<path d="M5250 5328 c-132 -107 -231 -266 -271 -433 -17 -73 -20 -114 -17
-213 3 -124 3 -124 33 -148 48 -39 145 -64 244 -64 73 0 95 4 138 25 104 52
185 177 185 285 0 60 -22 115 -150 374 l-108 219 -54 -45z"/>
<path d="M5636 4655 c-3 -9 -6 -25 -6 -34 0 -10 -16 -50 -35 -89 -79 -158
-273 -282 -440 -282 -19 0 -35 -3 -35 -8 0 -15 87 -112 140 -155 75 -61 166
-110 280 -148 84 -29 108 -33 205 -33 120 -1 160 11 191 59 15 23 11 35 -131
352 -174 387 -160 360 -169 338z"/>
<path d="M9215 3920 l-230 -85 -3 -173 -2 -172 -96 0 -95 0 -25 -55 c-38 -88
-41 -85 96 -85 l120 0 0 -522 c0 -628 9 -747 66 -860 44 -87 47 -88 286 -88
l210 0 -26 31 c-64 75 -61 39 -64 772 l-3 667 80 0 79 0 26 71 c14 38 26 72
26 75 0 2 -47 4 -105 4 l-105 0 -2 253 -3 252 -230 -85z"/>
<path d="M10175 3920 l-230 -85 -3 -173 -2 -172 -96 0 -95 0 -29 -66 c-17 -36
-30 -68 -30 -70 0 -2 56 -4 124 -4 l124 0 5 -587 c5 -642 8 -682 64 -792 47
-92 47 -92 281 -89 l203 3 -26 35 c-55 74 -55 79 -55 782 l0 648 79 0 79 0 26
71 c14 38 26 72 26 75 0 2 -47 4 -105 4 l-105 0 -2 253 -3 253 -230 -86z"/>
<path d="M1325 3871 c-137 -70 -249 -131 -248 -137 1 -5 93 -205 204 -444 111
-239 202 -440 202 -445 0 -6 -39 -91 -87 -190 -184 -380 -355 -575 -559 -637
-58 -17 -83 -20 -151 -14 -44 4 -90 9 -102 12 -18 5 -39 -25 -160 -222 -76
-126 -140 -233 -142 -240 -8 -29 129 -85 266 -109 271 -47 462 102 705 551 63
116 211 424 273 567 20 47 32 64 37 55 5 -7 111 -231 237 -498 l228 -485 311
-3 c171 -1 311 -1 311 1 0 1 -65 151 -145 332 -80 182 -145 335 -145 341 0 6
36 87 81 179 78 162 82 168 94 144 8 -13 112 -239 232 -501 l218 -478 297 0
297 0 -23 53 c-53 118 -1018 2232 -1020 2235 -2 1 -110 -50 -240 -115 -173
-86 -236 -122 -233 -133 2 -8 86 -201 187 -428 l183 -413 -79 -165 c-43 -91
-81 -167 -84 -169 -3 -2 -153 317 -334 708 -181 392 -337 726 -345 744 l-16
32 -250 -128z"/>
<path d="M8170 3501 c-150 -41 -430 -196 -494 -272 -81 -96 -106 -229 -105
-553 1 -287 8 -350 53 -440 20 -41 57 -98 84 -127 97 -109 288 -227 404 -251
148 -31 335 58 534 252 163 159 198 290 175 649 -15 243 -38 341 -96 419 -56
77 -142 161 -233 229 -142 106 -210 126 -322 94z m96 -253 c41 -32 52 -46 79
-103 37 -78 50 -201 50 -490 0 -241 -2 -266 -23 -338 -38 -134 -82 -194 -154
-212 -59 -15 -134 52 -162 147 -31 101 -49 335 -43 543 9 282 34 378 114 444
46 38 97 41 139 9z"/>
<path d="M4039 3499 c-94 -10 -222 -42 -293 -73 -96 -42 -145 -135 -190 -358
-7 -38 -12 -68 -10 -68 3 0 29 20 59 44 187 153 331 213 482 204 64 -4 78 -9
101 -31 37 -37 35 -87 -3 -127 -34 -35 -62 -49 -258 -126 -275 -107 -390 -188
-460 -321 -47 -92 -62 -159 -61 -278 1 -81 5 -112 26 -167 52 -137 122 -226
231 -291 67 -41 122 -51 197 -37 68 12 216 85 295 145 l60 45 16 -50 c9 -27
29 -68 44 -90 l28 -40 222 0 223 0 -37 68 -36 67 -7 490 c-9 679 -9 680 -46
760 -40 84 -113 157 -197 197 -96 45 -211 56 -386 37z m134 -687 c22 -24 41
-245 35 -388 -4 -82 -9 -108 -29 -145 -45 -81 -166 -139 -252 -119 -89 20
-119 66 -125 192 -8 159 36 284 134 382 85 86 197 122 237 78z"/>
<path d="M5451 3476 c-24 -8 -69 -35 -102 -60 l-58 -45 -17 45 c-9 25 -25 49
-35 54 -18 10 -439 14 -439 5 0 -3 10 -25 23 -48 l22 -42 5 -655 5 -655 24
-59 c13 -32 39 -76 58 -97 l35 -39 216 0 215 0 -20 23 c-32 34 -53 83 -69 155
-11 52 -14 173 -14 554 l0 486 46 23 c69 33 144 31 218 -5 48 -23 60 -26 67
-15 5 8 46 73 93 144 l84 130 -26 28 c-67 71 -228 106 -331 73z"/>
<path d="M6505 3472 c-27 -9 -72 -34 -99 -55 -27 -20 -52 -37 -56 -37 -5 0
-13 14 -19 32 -24 69 -21 68 -262 68 l-218 0 26 -51 27 -51 6 -656 c6 -653 6
-657 29 -715 12 -31 37 -73 55 -92 l33 -35 211 0 211 0 -29 48 c-58 93 -60
117 -60 669 l0 503 43 21 c63 33 149 31 218 -5 42 -22 55 -24 64 -14 34 38
176 272 171 283 -8 23 -89 72 -146 89 -69 21 -142 20 -205 -2z"/>
<path d="M6943 3433 c22 -48 22 -50 19 -608 -3 -711 4 -806 75 -907 l26 -38
217 0 218 0 -42 81 -41 81 -5 652 -5 651 -24 50 c-42 90 -28 85 -257 85 l-203
0 22 -47z"/>
<path d="M10655 2166 c-119 -53 -126 -233 -12 -293 44 -23 125 -22 166 2 53
31 74 67 79 132 3 48 0 64 -20 92 -12 19 -35 43 -50 54 -34 26 -121 33 -163
13z m106 -16 c112 -31 135 -190 36 -250 -66 -41 -158 -14 -191 54 -38 80 0
172 80 196 39 11 34 11 75 0z"/>
<path d="M10662 2018 c2 -62 7 -93 16 -96 8 -2 12 10 12 42 0 60 19 60 60 1
17 -25 35 -45 40 -45 15 0 12 9 -11 47 l-21 34 21 15 c27 20 28 69 2 84 -11 5
-43 10 -71 10 l-51 0 3 -92z m103 42 c0 -22 -5 -25 -37 -28 -36 -3 -38 -2 -38
28 0 30 2 31 38 28 32 -3 37 -6 37 -28z"/>
<path d="M270 1235 l0 -35 5135 0 5135 0 0 35 0 35 -5135 0 -5135 0 0 -35z"/>
<path d="M1095 817 c-102 -34 -165 -96 -192 -186 -32 -111 8 -244 92 -301 62
-42 107 -53 204 -48 71 3 95 9 140 33 94 52 141 133 141 245 0 105 -46 188
-130 234 -42 23 -68 29 -134 32 -51 3 -96 -1 -121 -9z m135 -37 c27 0 78 -46
102 -94 17 -32 22 -59 23 -121 0 -69 -4 -88 -30 -140 -36 -70 -67 -95 -128
-102 -59 -7 -116 24 -148 81 -21 36 -24 54 -24 141 0 84 4 107 23 147 13 25
35 54 50 64 30 20 80 34 100 28 8 -2 22 -4 32 -4z"/>
<path d="M2990 807 c-53 -28 -80 -75 -80 -141 0 -73 26 -106 120 -155 82 -43
110 -70 110 -107 0 -36 -11 -54 -41 -69 -58 -30 -112 -13 -149 47 l-18 31 -11
-39 c-6 -22 -11 -46 -11 -56 0 -41 154 -52 227 -17 58 28 86 69 91 136 6 75
-23 118 -114 166 -91 47 -114 70 -114 111 0 45 28 69 82 69 35 0 46 -5 70 -34
15 -18 30 -30 33 -27 3 3 6 22 8 44 2 36 0 39 -33 51 -56 19 -122 16 -170 -10z"/>
<path d="M4934 811 c-69 -31 -103 -103 -85 -181 12 -53 37 -80 114 -120 88
-46 107 -66 107 -111 0 -93 -131 -109 -182 -22 l-22 37 -13 -50 c-17 -68 -5
-78 96 -82 59 -3 86 0 112 13 83 42 118 107 100 186 -12 53 -41 82 -133 134
-83 47 -108 79 -92 122 7 20 20 32 47 40 45 15 82 4 113 -35 l21 -26 13 38
c14 42 10 48 -39 65 -50 16 -110 13 -157 -8z"/>
<path d="M5453 811 c-117 -40 -174 -117 -181 -242 -7 -124 38 -212 132 -261
58 -30 194 -37 266 -13 79 26 153 102 175 179 43 149 -31 300 -166 340 -69 21
-161 20 -226 -3z m192 -50 c87 -50 111 -259 42 -363 -38 -55 -84 -80 -140 -75
-61 5 -96 30 -126 90 -27 55 -33 165 -12 240 32 114 139 163 236 108z"/>
<path d="M7053 810 c-69 -31 -104 -111 -83 -189 12 -45 49 -80 124 -118 75
-37 96 -60 96 -104 0 -70 -78 -101 -147 -60 -17 11 -34 29 -38 40 -10 32 -22
25 -33 -21 -16 -60 -1 -72 92 -76 93 -5 135 9 180 58 40 45 53 96 38 149 -15
47 -50 81 -137 128 -83 46 -105 76 -86 121 25 59 111 62 157 5 l22 -25 12 36
c14 44 9 52 -38 66 -56 15 -112 12 -159 -10z"/>
<path d="M8020 819 c-60 -24 -100 -85 -100 -151 0 -71 26 -106 116 -155 111
-61 130 -88 103 -146 -31 -68 -149 -59 -179 13 -16 38 -26 29 -35 -31 -7 -46
-6 -47 26 -58 17 -6 59 -11 92 -11 104 0 181 53 194 134 14 87 -23 144 -129
197 -77 39 -98 61 -98 102 0 46 28 70 82 70 34 0 47 -6 71 -33 15 -17 30 -30
33 -28 2 3 5 22 7 44 2 36 0 39 -33 51 -42 14 -116 15 -150 2z"/>
<path d="M10300 808 c-87 -44 -115 -165 -55 -236 13 -16 52 -44 87 -62 35 -18
73 -42 86 -53 31 -29 30 -80 -4 -114 -46 -46 -139 -20 -166 47 -10 24 -11 22
-24 -25 -8 -27 -14 -53 -14 -57 0 -13 66 -28 127 -28 137 0 228 98 195 209
-15 47 -50 81 -137 128 -83 46 -105 76 -86 121 25 60 111 62 157 4 l21 -26 13
38 c14 42 10 48 -39 65 -53 17 -112 13 -161 -11z"/>
<path d="M280 553 l0 -263 60 0 60 0 0 130 0 131 118 -3 117 -3 3 -127 3 -128
54 0 55 0 0 263 0 262 -55 0 -55 0 0 -101 c0 -97 -1 -102 -22 -108 -30 -8
-182 -8 -202 0 -13 5 -16 24 -16 108 l0 101 -60 0 -60 0 0 -262z"/>
<path d="M1520 787 l0 -33 70 4 70 4 0 -236 0 -236 55 0 55 0 0 236 0 236 70
-4 70 -4 0 33 0 33 -195 0 -195 0 0 -33z"/>
<path d="M2030 555 l0 -265 145 0 145 0 0 31 0 32 -85 -5 -85 -6 0 99 0 99 85
0 85 0 0 30 0 30 -85 -6 -85 -7 0 88 0 87 85 -3 85 -4 0 33 0 32 -145 0 -145
0 0 -265z"/>
<path d="M2480 553 l0 -263 143 0 142 0 0 31 0 32 -87 -7 -88 -6 0 238 0 237
-55 0 -55 0 0 -262z"/>
<path d="M3910 556 l0 -266 60 0 59 0 3 121 3 120 70 -120 69 -121 69 0 c52 0
66 3 61 12 -5 7 -31 49 -59 93 -28 44 -61 97 -74 117 l-22 37 34 14 c99 42
115 180 27 231 -29 17 -57 21 -167 24 l-133 4 0 -266z m187 214 c89 -31 61
-200 -33 -200 l-34 0 0 105 c0 116 1 118 67 95z"/>
<path d="M4430 555 l0 -265 149 0 148 0 -1 31 -1 32 -87 -6 -88 -6 0 100 0 99
85 0 85 0 0 30 0 30 -85 -6 -85 -7 0 88 0 87 88 -4 88 -4 0 33 0 33 -148 0
-148 0 0 -265z"/>
<path d="M5990 555 l0 -265 55 0 55 0 0 120 c0 66 3 120 8 120 4 0 38 -54 75
-120 l68 -120 70 0 69 0 -23 38 c-13 20 -50 76 -81 124 -31 48 -56 90 -56 93
0 2 17 13 38 24 52 27 74 63 75 123 1 42 -4 53 -29 79 -39 39 -83 48 -216 49
l-108 0 0 -265z m188 214 c22 -8 34 -20 42 -45 26 -76 -17 -154 -85 -154 l-35
0 0 98 c0 54 3 102 7 105 9 10 36 9 71 -4z"/>
<path d="M6470 787 l0 -33 70 4 70 4 0 -236 0 -236 55 0 55 0 0 236 0 236 70
-4 70 -4 0 33 0 33 -195 0 -195 0 0 -33z"/>
<path d="M8380 648 c0 -195 10 -256 51 -303 44 -50 101 -68 201 -64 72 3 91 8
126 32 23 15 51 46 64 70 21 39 22 55 23 236 l0 194 -26 1 -27 2 -4 -186 c-6
-252 -24 -291 -142 -298 -58 -4 -66 -2 -95 24 -44 39 -50 78 -51 284 l0 175
-60 0 -60 0 0 -167z"/>
<path d="M9030 553 l0 -263 60 0 60 0 0 263 0 262 -60 0 -60 0 0 -262z"/>
<path d="M9284 787 l0 -32 73 3 73 4 0 -236 0 -236 55 0 55 0 0 236 0 236 70
-4 70 -4 0 33 0 33 -198 0 -198 0 0 -33z"/>
<path d="M9807 813 c-4 -3 -7 -123 -7 -265 l0 -258 150 0 150 0 0 31 0 32 -90
-6 -90 -6 0 100 0 99 85 0 85 0 0 30 0 30 -85 -6 -85 -7 0 88 0 87 90 -4 90
-4 0 33 0 33 -143 0 c-79 0 -147 -3 -150 -7z"/>
<path d="M3490 589 c-17 -30 -4 -68 25 -75 34 -8 53 1 67 31 9 21 8 28 -7 45
-24 27 -71 26 -85 -1z"/>
<path d="M7541 596 c-16 -19 -10 -66 10 -79 26 -16 68 0 75 30 4 14 2 33 -3
42 -13 21 -66 26 -82 7z"/>
</g>
</svg>
