<?xml version="1.0" standalone="no"?>
<!DOCTYPE svg PUBLIC "-//W3C//DTD SVG 20010904//EN"
 "http://www.w3.org/TR/2001/REC-SVG-20010904/DTD/svg10.dtd">
<svg version="1.0" xmlns="http://www.w3.org/2000/svg"
 width="1674.000000pt" height="590.000000pt" viewBox="0 0 1674.000000 590.000000"
 preserveAspectRatio="xMidYMid meet">

<g transform="translate(0.000000,590.000000) scale(0.100000,-0.100000)"
fill="#000000" stroke="none">
<path d="M3344 5700 c-46 -9 -156 -53 -191 -75 -13 -9 -40 -50 -60 -93 l-38
-77 -5 -1635 -5 -1635 -22 -35 c-82 -131 -282 -228 -409 -200 -139 31 -267
111 -298 184 -7 17 -30 92 -51 166 -53 189 -93 271 -164 342 -68 68 -116 88
-212 88 -102 0 -171 -29 -241 -101 -73 -76 -93 -134 -91 -274 1 -170 66 -364
169 -512 25 -36 48 -72 51 -81 18 -50 154 -153 287 -217 164 -79 280 -114 416
-126 170 -16 379 -4 488 27 88 25 298 118 361 160 99 66 288 253 316 312 10
20 28 60 41 87 14 28 34 77 47 110 l22 60 3 1609 c3 1788 8 1651 -64 1757 -19
28 -34 54 -34 58 -2 25 -226 117 -270 110 -3 -1 -23 -5 -46 -9z"/>
<path d="M2062 5689 c-60 -11 -150 -56 -179 -87 -13 -15 -36 -49 -51 -77 l-27
-50 -3 -1281 -2 -1281 107 -6 c157 -7 230 -36 326 -126 59 -56 76 -80 127
-185 32 -67 77 -175 101 -241 23 -66 44 -122 46 -124 2 -3 2 724 1 1615 l-3
1619 -29 55 c-38 74 -70 106 -134 135 -86 40 -189 52 -280 34z"/>
<path d="M12201 4977 c-35 -111 -70 -233 -77 -272 -14 -73 -19 -309 -8 -387 6
-43 9 -46 48 -58 61 -18 197 -72 192 -77 -2 -2 -39 9 -82 26 -310 118 -704
135 -1014 42 -159 -47 -295 -103 -380 -155 -49 -31 -94 -56 -98 -56 -37 0
-332 -272 -395 -365 -112 -164 -132 -197 -172 -280 -58 -122 -89 -218 -111
-355 -40 -242 -15 -585 57 -768 28 -74 116 -252 129 -262 3 -3 32 -45 64 -95
41 -63 97 -128 190 -218 72 -70 134 -127 138 -127 4 0 38 -22 76 -50 107 -78
341 -188 477 -225 157 -43 412 -67 580 -55 218 15 390 55 559 131 61 27 115
49 119 49 4 0 57 34 118 75 60 41 113 75 117 75 10 0 230 217 280 276 63 75
71 87 72 103 0 8 10 28 23 45 36 49 105 182 137 265 80 211 109 423 90 637
-21 219 -86 416 -205 620 -55 95 -148 229 -163 236 -4 2 -36 35 -72 73 -36 39
-52 59 -37 45 l28 -24 47 23 c89 44 107 54 157 86 28 18 82 49 120 70 80 42
115 72 141 121 10 19 22 34 26 34 11 0 54 88 72 149 16 55 21 175 10 243 l-6
36 -82 -28 c-112 -39 -354 -100 -396 -100 -46 0 -125 -22 -176 -48 -44 -23
-139 -94 -167 -127 -36 -41 -87 -137 -90 -168 -2 -27 4 -35 48 -64 27 -18 46
-33 41 -33 -10 0 -79 41 -86 51 -3 4 -41 26 -85 48 -44 22 -74 40 -67 40 7 1
27 -6 43 -15 17 -8 32 -14 33 -12 1 2 22 42 45 90 33 67 57 101 106 146 35 33
82 68 105 78 l42 19 -5 70 c-14 190 -62 322 -157 430 -36 40 -68 74 -71 74 -4
1 -30 16 -58 35 -48 32 -124 66 -181 79 -25 6 -26 3 -89 -196z m-266 -914 c50
-8 106 -17 125 -20 65 -9 187 -53 279 -102 50 -27 101 -51 113 -55 13 -3 58
-35 100 -71 42 -36 81 -65 85 -65 10 0 173 -164 173 -174 0 -7 68 -104 86
-123 20 -21 93 -169 123 -250 16 -45 37 -115 45 -157 21 -101 22 -378 1 -476
-34 -162 -103 -318 -203 -458 -29 -39 -52 -75 -52 -78 0 -10 -163 -174 -173
-174 -4 0 -39 -26 -77 -58 -38 -32 -79 -63 -92 -69 -13 -6 -69 -34 -125 -62
-116 -59 -196 -89 -268 -101 -27 -4 -90 -15 -140 -24 -115 -20 -343 -20 -450
0 -44 8 -107 19 -140 24 -126 20 -357 132 -508 247 -100 76 -229 209 -275 283
-9 14 -24 34 -33 45 -28 32 -93 155 -116 220 -85 243 -98 484 -39 743 28 118
41 156 88 247 31 61 154 237 169 243 5 2 25 26 45 53 57 77 246 214 405 291
145 71 193 87 338 114 182 34 345 36 516 7z m753 -50 c74 -55 121 -96 127
-112 3 -9 -13 2 -37 25 -24 23 -64 56 -90 74 -27 18 -48 35 -48 37 0 8 13 1
48 -24z"/>
<path d="M11683 3981 c-60 -20 -112 -57 -150 -107 -21 -28 -28 -50 -31 -98 -4
-68 10 -138 90 -426 28 -102 68 -250 88 -330 l38 -145 11 40 c6 22 25 63 42
90 48 78 166 293 201 365 17 36 35 72 39 80 34 59 87 162 102 200 24 57 25
146 2 191 -64 126 -276 194 -432 140z"/>
<path d="M11016 3814 c-33 -13 -69 -33 -81 -44 -12 -11 -26 -20 -32 -20 -17 0
-80 -78 -108 -134 -27 -54 -34 -150 -15 -200 10 -28 78 -106 91 -106 5 0 31
-16 58 -36 28 -19 101 -61 163 -93 62 -32 154 -81 205 -109 50 -29 98 -52 106
-52 8 0 25 -8 38 -18 22 -17 187 -112 195 -112 4 0 -33 108 -46 135 -5 11 -19
45 -29 75 -11 30 -34 91 -51 135 -18 44 -37 98 -43 120 -15 58 -96 271 -125
330 -45 91 -137 155 -222 154 -25 0 -72 -11 -104 -25z"/>
<path d="M12382 3665 c-35 -15 -112 -75 -112 -87 0 -8 -69 -109 -81 -118 -3
-3 -29 -39 -57 -80 -29 -41 -70 -100 -91 -130 -22 -30 -40 -59 -41 -63 0 -9
-99 -159 -110 -167 -8 -6 -90 -127 -90 -133 0 -5 82 17 340 90 69 19 148 39
175 43 95 15 280 72 363 112 70 34 87 47 109 85 23 40 25 51 21 127 -4 76 -8
88 -49 156 -47 79 -87 114 -177 156 -61 28 -147 32 -200 9z"/>
<path d="M10605 3230 c-78 -40 -114 -86 -151 -197 -22 -65 -15 -193 13 -248
28 -53 100 -119 148 -135 56 -19 157 -8 355 38 96 22 202 45 235 52 66 13 341
78 365 87 9 3 -9 17 -50 37 -95 48 -329 170 -450 236 -272 147 -376 176 -465
130z"/>
<path d="M12625 2989 c-22 -4 -110 -24 -195 -44 -85 -21 -189 -44 -230 -52
-179 -35 -359 -78 -352 -84 4 -4 59 -34 122 -66 162 -84 425 -224 490 -261
103 -58 203 -92 270 -92 52 0 68 5 114 34 57 36 82 70 116 156 27 67 30 183 6
248 -18 51 -87 127 -138 153 -40 20 -128 24 -203 8z"/>
<path d="M11595 2737 c-45 -9 -169 -47 -356 -107 -69 -22 -135 -40 -146 -40
-29 0 -258 -77 -313 -105 -83 -43 -112 -75 -124 -139 -19 -92 -3 -166 53 -250
46 -69 76 -93 170 -138 50 -23 147 -28 194 -9 34 13 117 79 117 93 0 8 51 87
73 113 4 6 46 69 92 140 46 72 88 135 94 142 6 7 11 18 12 25 0 7 17 38 37 69
20 31 55 84 77 119 22 34 46 69 54 77 18 19 13 21 -34 10z"/>
<path d="M11775 2735 c42 -112 225 -670 225 -685 0 -12 18 -58 39 -103 33 -68
48 -87 88 -114 94 -63 167 -62 301 4 82 40 118 78 164 170 28 57 30 70 25 129
-4 52 -11 76 -34 107 -31 44 -162 140 -253 184 -30 15 -57 30 -60 33 -9 11
-175 108 -221 130 -24 11 -86 47 -137 80 -51 33 -99 60 -106 60 -6 0 -18 6
-25 13 -12 10 -13 8 -6 -8z"/>
<path d="M11606 2542 c-54 -97 -109 -194 -122 -214 -13 -21 -24 -43 -24 -50 0
-7 -14 -38 -32 -68 -102 -180 -132 -241 -145 -296 -14 -55 -14 -67 1 -117 19
-66 60 -106 156 -151 55 -26 79 -32 157 -34 81 -3 99 -1 146 21 72 33 142 102
158 156 15 52 4 145 -35 291 -81 299 -136 519 -137 540 0 14 -6 42 -12 62
l-12 38 -99 -178z"/>
<path d="M16040 4834 c-57 -15 -143 -65 -172 -99 -10 -11 -30 -45 -45 -75 -59
-121 -25 -269 84 -356 140 -114 307 -109 433 12 118 113 128 288 23 419 -15
19 -32 35 -36 35 -4 0 -17 9 -29 20 -48 45 -176 67 -258 44z m170 -59 c63 -16
108 -59 146 -140 39 -81 28 -174 -30 -256 -14 -21 -15 -21 -30 9 -8 16 -31 51
-51 77 l-36 47 21 15 c12 9 29 31 37 50 12 31 12 38 -4 71 -26 53 -52 62 -175
62 l-108 0 0 -180 0 -180 30 0 30 0 0 75 0 75 38 0 c46 0 69 -19 115 -92 34
-53 39 -57 79 -60 l43 -3 -60 -29 c-42 -21 -79 -31 -125 -34 -58 -4 -74 0
-132 27 -129 61 -182 202 -124 326 27 58 105 135 138 135 13 0 30 5 38 10 22
14 97 12 160 -5z m-36 -135 c28 -10 34 -38 14 -58 -7 -7 -40 -12 -80 -12 l-68
0 0 33 c0 19 3 37 7 40 10 10 98 8 127 -3z"/>
<path d="M14475 4214 c-238 -28 -320 -47 -430 -100 -114 -54 -152 -79 -228
-146 -119 -105 -166 -157 -199 -221 -94 -187 -116 -356 -67 -517 22 -71 89
-191 131 -233 47 -47 131 -117 142 -117 3 0 32 -17 64 -38 88 -60 198 -106
407 -172 203 -64 257 -78 535 -144 74 -18 161 -44 194 -59 32 -15 64 -27 71
-27 20 0 126 -81 136 -103 5 -12 18 -33 29 -47 11 -14 23 -48 26 -76 6 -45 2
-58 -30 -121 -31 -59 -47 -78 -107 -121 -39 -28 -107 -65 -152 -82 -78 -31
-83 -31 -226 -28 -190 5 -219 15 -400 147 -59 43 -221 200 -221 214 0 28 -143
158 -212 193 -105 53 -240 23 -348 -80 -102 -96 -110 -218 -25 -381 75 -143
121 -195 286 -327 68 -55 258 -136 409 -177 96 -25 121 -28 315 -41 195 -13
518 7 655 40 109 27 253 76 294 101 17 10 38 19 48 19 32 0 172 105 268 200
83 82 104 109 145 193 42 85 49 107 56 184 9 113 1 245 -18 308 -16 50 -50
126 -62 135 -3 3 -18 23 -32 45 -15 22 -42 54 -60 72 -19 17 -52 48 -74 68
-41 39 -134 105 -147 105 -5 0 -47 19 -95 43 -116 57 -219 91 -585 192 -91 25
-184 49 -205 52 -96 14 -363 108 -379 134 -3 5 -13 9 -23 9 -23 0 -107 74
-126 111 -44 84 9 186 148 281 72 49 150 63 307 55 126 -6 201 -32 310 -108
39 -27 75 -49 80 -49 4 0 41 -37 80 -82 104 -118 137 -147 210 -181 62 -30 70
-31 190 -31 143 1 177 12 229 77 72 91 93 196 59 293 -26 74 -106 182 -161
219 -29 19 -86 57 -127 86 -41 28 -91 57 -110 64 -19 7 -87 33 -150 58 -154
59 -272 83 -525 107 -96 9 -238 11 -300 4z"/>
<path d="M7965 4169 c-123 -11 -208 -35 -345 -95 -100 -44 -143 -70 -215 -130
-100 -82 -245 -231 -245 -252 0 -7 -13 -32 -29 -55 -107 -157 -184 -387 -212
-635 -17 -158 -7 -518 19 -609 42 -151 103 -285 183 -405 22 -31 39 -61 39
-66 0 -14 180 -202 194 -202 6 0 27 -15 46 -33 51 -48 126 -97 179 -117 25
-10 82 -33 126 -50 252 -102 601 -91 830 25 27 14 54 25 61 25 21 0 135 70
183 112 24 21 49 38 55 38 6 0 41 30 78 67 37 37 70 64 74 61 3 -4 6 -89 6
-190 1 -328 -55 -504 -202 -642 -145 -135 -461 -191 -716 -126 -108 28 -276
115 -338 174 -228 221 -291 260 -416 261 -65 0 -84 -4 -140 -33 -45 -22 -74
-45 -95 -74 -72 -103 -92 -170 -75 -254 16 -75 30 -103 99 -190 51 -65 175
-168 251 -209 144 -77 338 -143 459 -156 47 -4 109 -13 136 -18 28 -6 160 -15
295 -22 l245 -12 142 27 c79 14 151 26 162 26 54 0 292 86 439 159 56 27 224
174 275 240 66 86 145 265 177 406 42 179 42 187 47 1358 3 730 1 1157 -6
1211 -15 124 -52 208 -126 282 -70 71 -126 94 -230 94 -128 0 -232 -34 -302
-99 -38 -35 -83 -158 -83 -225 0 -25 -3 -46 -8 -46 -4 0 -35 23 -69 50 -34 28
-66 50 -72 50 -5 0 -31 17 -58 37 -59 46 -173 113 -191 113 -7 0 -42 14 -78
31 -168 78 -369 114 -549 98z m548 -563 c38 -13 80 -32 95 -42 46 -30 162
-128 162 -137 0 -7 42 -68 78 -112 25 -31 92 -193 113 -270 20 -77 23 -113 23
-245 -1 -134 -4 -168 -26 -250 -50 -183 -156 -359 -270 -449 -77 -62 -123 -91
-142 -91 -7 0 -35 -10 -62 -21 -76 -34 -232 -32 -344 5 -47 15 -101 38 -120
51 -55 37 -173 155 -214 213 -50 71 -102 180 -109 228 -3 21 -13 71 -21 109
-17 77 -21 322 -7 390 5 22 14 67 21 100 12 59 19 80 56 160 33 70 113 182
157 218 23 19 57 48 75 64 49 45 148 89 242 107 63 12 226 -3 293 -28z"/>
<path d="M4420 4156 c-30 -7 -73 -22 -95 -33 -49 -26 -120 -91 -128 -118 -3
-11 -17 -47 -31 -80 l-26 -60 0 -860 c0 -926 -2 -881 51 -1085 15 -56 74 -176
104 -210 12 -14 42 -47 66 -73 24 -27 56 -55 72 -63 15 -8 37 -24 47 -34 32
-32 201 -108 275 -124 232 -51 303 -58 434 -47 69 6 158 18 196 27 39 9 88 19
110 23 49 9 188 75 270 129 56 37 173 151 222 214 l21 28 6 -58 c10 -89 26
-148 56 -210 34 -70 56 -90 140 -128 57 -25 76 -29 155 -28 78 1 100 5 160 31
78 34 102 61 135 150 20 54 20 66 18 1221 l-3 1167 -28 58 c-36 71 -96 120
-186 148 -109 34 -256 25 -341 -21 -42 -22 -101 -85 -128 -135 l-27 -50 -5
-790 -5 -790 -24 -65 c-34 -92 -47 -116 -108 -192 -43 -54 -69 -75 -136 -111
-119 -65 -175 -81 -287 -81 -109 0 -195 24 -277 76 -54 35 -113 87 -113 101 0
5 -13 27 -29 50 -16 23 -40 74 -53 112 l-23 70 -5 790 -5 790 -23 55 c-28 68
-34 75 -103 131 -84 69 -234 101 -349 75z"/>
<path d="M530 2721 c-48 -15 -92 -43 -123 -78 -18 -20 -38 -42 -45 -49 -25
-25 -51 -100 -58 -164 -11 -113 30 -295 105 -466 12 -25 21 -53 21 -61 0 -8
21 -50 46 -93 57 -100 167 -213 259 -268 78 -46 273 -122 314 -122 14 0 62 -7
106 -16 94 -18 297 -20 405 -4 41 6 102 15 136 20 71 11 94 19 94 32 0 5 -33
44 -73 86 -126 133 -179 211 -229 335 l-23 57 -100 3 c-156 5 -247 56 -302
169 -39 79 -93 257 -93 305 0 54 -51 152 -109 211 -74 75 -156 112 -241 111
-36 0 -76 -4 -90 -8z"/>
<path d="M14380 676 l0 -446 40 0 40 0 -2 443 -3 442 -37 3 -38 3 0 -445z"/>
<path d="M11878 978 l-3 -123 -72 -3 -73 -3 0 -29 0 -30 75 0 75 0 0 -182 c0
-239 18 -305 95 -357 58 -39 109 -54 165 -49 69 7 121 37 148 86 l23 42 -30 0
c-17 0 -31 -5 -31 -10 0 -6 -15 -19 -32 -30 -57 -35 -159 -21 -199 26 -40 48
-49 103 -49 292 l0 182 155 0 155 0 0 30 0 29 -157 3 -158 3 -3 123 -3 122
-39 0 -39 0 -3 -122z"/>
<path d="M10575 874 c-95 -20 -142 -41 -182 -83 l-43 -45 0 57 0 57 -45 0 -45
0 0 -315 0 -315 44 0 43 0 5 193 c5 180 7 197 30 249 28 61 71 99 137 123 105
37 196 3 244 -90 18 -36 21 -64 25 -257 l5 -218 44 0 45 0 -4 228 c-4 201 -7
232 -25 272 -26 58 -67 106 -95 113 -13 3 -41 12 -63 21 -39 15 -79 18 -120
10z"/>
<path d="M11240 870 c-99 -23 -152 -57 -209 -133 -49 -66 -62 -109 -62 -198 0
-183 153 -325 345 -322 82 1 170 35 224 86 l32 31 0 -52 0 -52 45 0 45 0 0
315 0 315 -45 0 -45 0 0 -56 0 -56 -43 45 c-63 64 -193 100 -287 77z m192 -91
c43 -23 107 -91 123 -132 21 -50 23 -154 4 -199 -16 -41 -92 -119 -139 -143
-48 -25 -162 -25 -209 -1 -48 26 -128 112 -142 155 -17 47 -16 126 1 176 14
43 97 130 140 148 63 26 170 24 222 -4z"/>
<path d="M13825 866 c-117 -30 -175 -75 -222 -174 -24 -49 -28 -69 -28 -147 0
-79 4 -98 29 -149 39 -81 90 -127 167 -153 35 -12 78 -24 96 -27 77 -13 230
37 271 88 11 14 23 26 26 26 3 0 6 -22 6 -50 l0 -50 40 0 40 0 0 315 0 315
-40 0 -40 0 0 -57 0 -57 -34 41 c-60 69 -206 107 -311 79z m148 -71 c44 -7 78
-26 131 -73 85 -75 87 -265 3 -351 -108 -112 -272 -114 -381 -5 -53 54 -76
106 -76 179 0 74 24 130 77 179 57 53 145 90 193 81 8 -2 32 -6 53 -10z"/>
<path d="M13320 854 c-19 -8 -50 -29 -67 -46 l-33 -32 0 42 0 42 -45 0 -45 0
0 -315 0 -315 45 0 45 0 0 148 c1 261 22 344 103 403 40 30 46 31 113 26 67
-5 72 -4 82 18 10 21 8 24 -33 34 -60 15 -123 13 -165 -5z"/>
<path d="M12393 653 c6 -230 17 -284 69 -347 16 -20 55 -48 86 -63 49 -23 70
-27 142 -26 69 0 95 5 140 26 56 26 70 26 70 1 0 -10 13 -14 50 -14 l50 0 0
315 0 315 -49 0 -49 0 -4 -217 -3 -218 -30 -44 c-47 -70 -75 -85 -159 -89 -89
-5 -138 16 -180 77 -35 50 -45 126 -45 344 l-1 147 -47 0 -46 0 6 -207z"/>
<path d="M14788 845 c-63 -18 -71 -23 -124 -85 -71 -83 -89 -129 -89 -230 0
-77 3 -90 33 -145 45 -83 84 -122 150 -153 49 -23 70 -27 152 -27 92 0 99 2
175 40 64 32 86 49 112 89 18 26 33 52 33 57 0 10 -60 28 -75 22 -5 -2 -22
-21 -36 -41 -14 -20 -50 -50 -80 -67 -47 -26 -64 -30 -134 -30 -90 0 -123 13
-177 69 -35 36 -68 113 -68 159 l0 27 296 0 296 0 -5 23 c-3 12 -9 46 -13 75
-7 59 -53 128 -117 176 -67 51 -221 70 -329 41z m221 -75 c78 -36 150 -115
151 -167 0 -10 -56 -13 -245 -13 -135 0 -245 3 -245 8 0 4 6 25 13 47 11 39
26 58 74 99 57 47 176 60 252 26z"/>
<path d="M15473 846 c-84 -17 -136 -53 -158 -110 -14 -37 -15 -50 -5 -80 13
-39 71 -93 110 -103 14 -3 48 -16 76 -29 28 -13 77 -33 110 -45 62 -23 124
-75 124 -104 0 -47 -57 -89 -141 -105 -66 -13 -132 0 -205 40 l-50 28 -40 -33
-39 -33 25 -10 c14 -6 46 -19 73 -31 167 -72 398 -36 462 73 29 49 31 85 10
125 -21 42 -89 96 -137 110 -68 20 -181 64 -196 75 -91 70 -93 108 -12 152 55
29 142 24 221 -12 l64 -31 38 28 37 27 -47 27 c-32 18 -78 32 -138 41 -104 16
-100 16 -182 0z"/>
</g>
</svg>
